Varta-Regular.ufo
<glyph name="exclam" format="2">
  <advance width="582.2469135802469"/>
  <unicode hex="0021"/>
  <outline>
    <contour>
      <point x="236.87654320987653" y="399.85185185185185" type="line"/>
      <point x="344.60493827160496" y="399.85185185185185" type="line"/>
      <point x="366.41975308641975" y="1187.2716049382716" type="line"/>
      <point x="370.12345679012344" y="1372.0" type="line"/>
      <point x="212.12345679012347" y="1372.0" type="line"/>
      <point x="215.82716049382717" y="1187.2716049382716" type="line"/>
    </contour>
    <contour>
      <point x="291.5061728395062" y="-25.0" type="curve" smooth="yes"/>
      <point x="354.1358024691358" y="-25.0"/>
      <point x="407.41975308641975" y="25.45679012345679"/>
      <point x="407.41975308641975" y="96.91358024691358" type="curve" smooth="yes"/>
      <point x="407.41975308641975" y="171.37037037037038"/>
      <point x="354.1358024691358" y="221.59259259259258"/>
      <point x="291.5061728395062" y="221.59259259259258" type="curve" smooth="yes"/>
      <point x="228.11111111111111" y="221.59259259259258"/>
      <point x="174.82716049382717" y="171.37037037037038"/>
      <point x="174.82716049382717" y="96.91358024691358" type="curve" smooth="yes"/>
      <point x="174.82716049382717" y="25.45679012345679"/>
      <point x="228.11111111111111" y="-25.0"/>
    </contour>
  </outline>
</glyph>
<glyph name="numbersign" format="2">
  <advance width="1012.1481481481482"/>
  <unicode hex="0023"/>
  <outline>
    <contour>
      <point x="184.82716049382717" y="0.0" type="line"/>
      <point x="289.2098765432099" y="0.0" type="line"/>
      <point x="340.5061728395062" y="421.0740740740741" type="line"/>
      <point x="616.8271604938271" y="421.0740740740741" type="line"/>
      <point x="567.2962962962963" y="0.0" type="line"/>
      <point x="670.679012345679" y="0.0" type="line"/>
      <point x="721.4444444444445" y="421.0740740740741" type="line"/>
      <point x="909.1481481481482" y="421.0740740740741" type="line"/>
      <point x="909.1481481481482" y="531.6296296296297" type="line"/>
      <point x="734.6172839506173" y="531.6296296296297" type="line"/>
      <point x="772.2098765432099" y="841.604938271605" type="line"/>
      <point x="950.1481481481482" y="841.604938271605" type="line"/>
      <point x="950.1481481481482" y="952.395061728395" type="line"/>
      <point x="784.8518518518518" y="952.395061728395" type="line"/>
      <point x="833.9135802469136" y="1331.0" type="line"/>
      <point x="731.2962962962963" y="1331.0" type="line"/>
      <point x="681.4691358024692" y="952.395061728395" type="line"/>
      <point x="404.679012345679" y="952.395061728395" type="line"/>
      <point x="451.9753086419753" y="1331.0" type="line"/>
      <point x="348.82716049382714" y="1331.0" type="line"/>
      <point x="301.2962962962963" y="952.395061728395" type="line"/>
      <point x="113.53086419753086" y="952.395061728395" type="line"/>
      <point x="113.53086419753086" y="841.604938271605" type="line"/>
      <point x="287.8888888888889" y="841.604938271605" type="line"/>
      <point x="250.2962962962963" y="531.6296296296297" type="line"/>
      <point x="72.53086419753086" y="531.6296296296297" type="line"/>
      <point x="72.53086419753086" y="421.0740740740741" type="line"/>
      <point x="236.88888888888889" y="421.0740740740741" type="line"/>
    </contour>
    <contour>
      <point x="353.91358024691357" y="531.6296296296297" type="line"/>
      <point x="392.2716049382716" y="841.604938271605" type="line"/>
      <point x="668.8271604938271" y="841.604938271605" type="line"/>
      <point x="631.0" y="531.6296296296297" type="line"/>
    </contour>
  </outline>
</glyph>
<glyph name="dollar" format="2">
  <advance width="1012.1481481481482"/>
  <unicode hex="0024"/>
  <outline>
    <contour>
      <point x="455.8888888888889" y="-225.0" type="line"/>
      <point x="572.679012345679" y="-225.0" type="line"/>
      <point x="572.679012345679" y="-19.061728395061728" type="line"/>
      <point x="764.4938271604939" y="5.753086419753085"/>
      <point x="889.1481481481482" y="139.09876543209876"/>
      <point x="889.1481481481482" y="334.0987654320988" type="curve" smooth="yes"/>
      <point x="889.1481481481482" y="778.2962962962963"/>
      <point x="314.0740740740741" y="689.9135802469136"/>
      <point x="314.0740740740741" y="996.9012345679013" type="curve" smooth="yes"/>
      <point x="314.0740740740741" y="1118.679012345679"/>
      <point x="397.0246913580247" y="1200.0493827160494"/>
      <point x="524.8024691358024" y="1200.0493827160494" type="curve" smooth="yes"/>
      <point x="639.0493827160494" y="1200.0493827160494"/>
      <point x="700.3456790123457" y="1169.6296296296296"/>
      <point x="777.1111111111111" y="1095.3333333333333" type="curve"/>
      <point x="861.0246913580247" y="1190.5925925925926" type="line"/>
      <point x="788.0864197530864" y="1266.7654320987654"/>
      <point x="703.679012345679" y="1315.888888888889"/>
      <point x="572.679012345679" y="1328.8271604938273" type="curve"/>
      <point x="572.679012345679" y="1532.2962962962963" type="line"/>
      <point x="455.8888888888889" y="1532.2962962962963" type="line"/>
      <point x="455.8888888888889" y="1327.358024691358" type="line"/>
      <point x="279.5432098765432" y="1300.716049382716"/>
      <point x="160.77777777777777" y="1170.5432098765432"/>
      <point x="160.77777777777777" y="989.7283950617284" type="curve" smooth="yes"/>
      <point x="160.77777777777777" y="588.1851851851852"/>
      <point x="735.0864197530864" y="666.0987654320987"/>
      <point x="735.0864197530864" y="322.9259259259259" type="curve" smooth="yes"/>
      <point x="735.0864197530864" y="192.08641975308643"/>
      <point x="656.074074074074" y="105.48148148148148"/>
      <point x="501.4691358024691" y="105.48148148148148" type="curve" smooth="yes"/>
      <point x="373.4567901234568" y="105.48148148148148"/>
      <point x="268.0987654320988" y="156.25925925925927"/>
      <point x="181.7530864197531" y="230.19753086419752" type="curve"/>
      <point x="108.24691358024691" y="121.12345679012346" type="line"/>
      <point x="193.88888888888889" y="41.95061728395062"/>
      <point x="322.7654320987654" y="-10.296296296296296"/>
      <point x="455.8888888888889" y="-22.765432098765434" type="curve"/>
    </contour>
  </outline>
</glyph>
<glyph name="percent" format="2">
  <advance width="1681.851851851852"/>
  <unicode hex="0025"/>
  <outline>
    <contour>
      <point x="414.34567901234567" y="-25.0" type="line"/>
      <point x="521.2592592592592" y="-25.0" type="line"/>
      <point x="1264.20987654321" y="1368.8271604938273" type="line"/>
      <point x="1157.2962962962963" y="1368.8271604938273" type="line"/>
    </contour>
    <contour>
      <point x="376.17283950617286" y="520.8271604938271" type="curve" smooth="yes"/>
      <point x="557.5802469135803" y="520.8271604938271"/>
      <point x="678.395061728395" y="676.2962962962963"/>
      <point x="678.395061728395" y="946.8271604938271" type="curve" smooth="yes"/>
      <point x="678.395061728395" y="1217.358024691358"/>
      <point x="557.5802469135803" y="1368.8271604938273"/>
      <point x="376.17283950617286" y="1368.8271604938273" type="curve" smooth="yes"/>
      <point x="193.0" y="1368.8271604938273"/>
      <point x="73.41975308641976" y="1217.358024691358"/>
      <point x="73.41975308641976" y="946.8271604938271" type="curve" smooth="yes"/>
      <point x="73.41975308641976" y="676.2962962962963"/>
      <point x="193.0" y="520.8271604938271"/>
    </contour>
    <contour>
      <point x="376.17283950617286" y="619.9753086419753" type="curve" smooth="yes"/>
      <point x="265.8024691358025" y="619.9753086419753"/>
      <point x="193.14814814814815" y="732.1111111111111"/>
      <point x="193.14814814814815" y="946.8271604938271" type="curve" smooth="yes"/>
      <point x="193.14814814814815" y="1164.0740740740741"/>
      <point x="265.8024691358025" y="1271.4444444444443"/>
      <point x="376.17283950617286" y="1271.4444444444443" type="curve" smooth="yes"/>
      <point x="483.77777777777777" y="1271.4444444444443"/>
      <point x="557.4320987654321" y="1164.0740740740741"/>
      <point x="557.4320987654321" y="946.8271604938271" type="curve" smooth="yes"/>
      <point x="557.4320987654321" y="732.1111111111111"/>
      <point x="483.77777777777777" y="619.9753086419753"/>
    </contour>
    <contour>
      <point x="1307.4444444444443" y="-25.0" type="curve" smooth="yes"/>
      <point x="1488.851851851852" y="-25.0"/>
      <point x="1609.6666666666667" y="128.7037037037037"/>
      <point x="1609.6666666666667" y="401.0" type="curve" smooth="yes"/>
      <point x="1609.6666666666667" y="670.5308641975308"/>
      <point x="1488.851851851852" y="823.0"/>
      <point x="1307.4444444444443" y="823.0" type="curve" smooth="yes"/>
      <point x="1124.037037037037" y="823.0"/>
      <point x="1004.4567901234568" y="670.5308641975308"/>
      <point x="1004.4567901234568" y="401.0" type="curve" smooth="yes"/>
      <point x="1004.4567901234568" y="128.7037037037037"/>
      <point x="1124.037037037037" y="-25.0"/>
    </contour>
    <contour>
      <point x="1307.4444444444443" y="74.14814814814815" type="curve" smooth="yes"/>
      <point x="1198.8395061728395" y="74.14814814814815"/>
      <point x="1124.4197530864199" y="185.5185185185185"/>
      <point x="1124.4197530864199" y="401.0" type="curve" smooth="yes"/>
      <point x="1124.4197530864199" y="616.716049382716"/>
      <point x="1198.8395061728395" y="724.8518518518518"/>
      <point x="1307.4444444444443" y="724.8518518518518" type="curve" smooth="yes"/>
      <point x="1415.0493827160494" y="724.8518518518518"/>
      <point x="1488.7037037037037" y="616.716049382716"/>
      <point x="1488.7037037037037" y="401.0" type="curve" smooth="yes"/>
      <point x="1488.7037037037037" y="185.5185185185185"/>
      <point x="1415.0493827160494" y="74.14814814814815"/>
    </contour>
  </outline>
</glyph>
<glyph name="ampersand" format="2">
  <advance width="1236.1234567901236"/>
  <unicode hex="0026"/>
  <outline>
    <contour>
      <point x="1206.4197530864199" y="105.24691358024691" type="line"/>
      <point x="1131.358024691358" y="127.37037037037037"/>
      <point x="1045.2962962962963" y="173.49382716049382"/>
      <point x="953.2345679012345" y="238.679012345679" type="curve"/>
      <point x="1059.530864197531" y="378.679012345679"/>
      <point x="1135.2962962962963" y="544.3333333333334"/>
      <point x="1187.8271604938273" y="722.2222222222222" type="curve"/>
      <point x="1041.7037037037037" y="722.2222222222222" type="line"/>
      <point x="999.8765432098766" y="564.679012345679"/>
      <point x="934.5185185185185" y="427.9012345679012"/>
      <point x="849.0987654320987" y="316.71604938271605" type="curve"/>
      <point x="720.8518518518518" y="423.38271604938274"/>
      <point x="590.9629629629629" y="565.4567901234568"/>
      <point x="505.18518518518516" y="708.7777777777778" type="curve"/>
      <point x="655.0123456790124" y="817.6666666666666"/>
      <point x="808.9012345679013" y="922.1975308641976"/>
      <point x="808.9012345679013" y="1109.432098765432" type="curve" smooth="yes"/>
      <point x="808.9012345679013" y="1264.4197530864199"/>
      <point x="710.4444444444445" y="1368.8271604938273"/>
      <point x="547.283950617284" y="1368.8271604938273" type="curve" smooth="yes"/>
      <point x="364.8888888888889" y="1368.8271604938273"/>
      <point x="244.77777777777777" y="1232.9506172839506"/>
      <point x="244.77777777777777" y="1055.3086419753085" type="curve" smooth="yes"/>
      <point x="244.77777777777777" y="956.1851851851852"/>
      <point x="277.3703703703704" y="846.4197530864197"/>
      <point x="334.95061728395063" y="735.1234567901234" type="curve"/>
      <point x="197.88888888888889" y="638.7654320987655"/>
      <point x="66.88888888888889" y="529.4567901234568"/>
      <point x="66.88888888888889" y="347.17283950617286" type="curve" smooth="yes"/>
      <point x="66.88888888888889" y="129.0493827160494"/>
      <point x="234.01234567901236" y="-25.0"/>
      <point x="473.04938271604937" y="-25.0" type="curve" smooth="yes"/>
      <point x="631.8024691358024" y="-25.0"/>
      <point x="756.5061728395061" y="38.123456790123456"/>
      <point x="857.679012345679" y="132.4814814814815" type="curve"/>
      <point x="966.6172839506173" y="54.123456790123456"/>
      <point x="1069.5555555555557" y="3.0617283950617287"/>
      <point x="1162.6666666666667" y="-25.0" type="curve"/>
    </contour>
    <contour>
      <point x="490.8641975308642" y="101.07407407407408" type="curve" smooth="yes"/>
      <point x="339.32098765432096" y="101.07407407407408"/>
      <point x="218.71604938271605" y="202.6172839506173"/>
      <point x="218.71604938271605" y="356.34567901234567" type="curve" smooth="yes"/>
      <point x="218.71604938271605" y="468.5925925925926"/>
      <point x="297.14814814814815" y="550.7283950617284"/>
      <point x="396.51851851851853" y="628.8024691358024" type="curve"/>
      <point x="489.87654320987656" y="479.8395061728395"/>
      <point x="620.358024691358" y="332.9382716049383"/>
      <point x="753.074074074074" y="215.92592592592592" type="curve"/>
      <point x="677.7654320987655" y="145.85185185185185"/>
      <point x="586.8148148148148" y="101.07407407407408"/>
    </contour>
    <contour>
      <point x="446.44444444444446" y="809.4567901234568" type="curve"/>
      <point x="405.55555555555554" y="893.7037037037037"/>
      <point x="379.7901234567901" y="979.8888888888889"/>
      <point x="379.7901234567901" y="1056.9012345679012" type="curve" smooth="yes"/>
      <point x="379.7901234567901" y="1169.0864197530864"/>
      <point x="442.74074074074076" y="1256.0987654320988"/>
      <point x="546.0493827160494" y="1256.0987654320988" type="curve" smooth="yes"/>
      <point x="638.8271604938271" y="1256.0987654320988"/>
      <point x="680.2962962962963" y="1183.5555555555557"/>
      <point x="680.2962962962963" y="1103.9012345679012" type="curve" smooth="yes"/>
      <point x="680.2962962962963" y="972.1234567901234"/>
      <point x="570.925925925926" y="893.9382716049382"/>
    </contour>
  </outline>
</glyph>
<glyph name="quotesingle" format="2">
  <advance width="500.2469135802469"/>
  <unicode hex="0027"/>
  <outline>
    <contour>
      <point x="200.28395061728395" y="882.0864197530864" type="line"/>
      <point x="297.1975308641975" y="882.0864197530864" type="line"/>
      <point x="327.95061728395063" y="1233.6296296296296" type="line"/>
      <point x="332.12345679012344" y="1413.8271604938273" type="line"/>
      <point x="164.82716049382717" y="1413.8271604938273" type="line"/>
      <point x="170.2962962962963" y="1233.6296296296296" type="line"/>
    </contour>
  </outline>
</glyph>
<glyph name="parenleft" format="2">
  <advance width="612.4320987654321"/>
  <unicode hex="0028"/>
  <outline>
    <contour>
      <point x="537.1481481481482" y="-313.71604938271605" type="line"/>
      <point x="378.32098765432096" y="-53.77777777777778"/>
      <point x="302.1975308641975" y="238.71604938271605"/>
      <point x="302.1975308641975" y="567.4691358024692" type="curve" smooth="yes"/>
      <point x="302.1975308641975" y="897.9876543209876"/>
      <point x="378.32098765432096" y="1192.7777777777778"/>
      <point x="537.1481481481482" y="1452.4814814814815" type="curve"/>
      <point x="439.95061728395063" y="1498.7037037037037" type="line"/>
      <point x="270.71604938271605" y="1225.0"/>
      <point x="169.9506172839506" y="947.4444444444445"/>
      <point x="169.9506172839506" y="567.4691358024692" type="curve" smooth="yes"/>
      <point x="169.9506172839506" y="188.25925925925927"/>
      <point x="270.71604938271605" y="-86.0"/>
      <point x="439.95061728395063" y="-359.9382716049383" type="curve"/>
    </contour>
  </outline>
</glyph>
<glyph name="asterisk" format="2">
  <advance width="848.7283950617284"/>
  <unicode hex="002A"/>
  <outline>
    <contour>
      <point x="354.9382716049383" y="870.3703703703703" type="line"/>
      <point x="485.61728395061726" y="1020.2098765432099" type="line"/>
      <point x="562.2222222222222" y="937.4567901234568" type="line"/>
      <point x="667.4074074074074" y="998.8395061728395" type="line"/>
      <point x="572.2345679012345" y="1169.716049382716" type="line"/>
      <point x="665.0740740740741" y="1216.7530864197531" type="line"/>
      <point x="640.2469135802469" y="1336.2222222222222" type="line"/>
      <point x="455.48148148148147" y="1297.9506172839506" type="line"/>
      <point x="436.5432098765432" y="1404.283950617284" type="line"/>
      <point x="316.8271604938272" y="1417.4197530864199" type="line"/>
      <point x="294.3703703703704" y="1225.111111111111" type="line"/>
      <point x="191.35802469135803" y="1242.8641975308642" type="line"/>
      <point x="141.90123456790124" y="1131.1358024691358" type="line"/>
      <point x="312.61728395061726" y="1054.5432098765432" type="line"/>
      <point x="262.5925925925926" y="955.4444444444445" type="line"/>
    </contour>
  </outline>
</glyph>
<glyph name="plus" format="2">
  <advance width="1012.1481481481482"/>
  <unicode hex="002B"/>
  <outline>
    <contour>
      <point x="443.12345679012344" y="214.9506172839506" type="line"/>
      <point x="568.0246913580247" y="214.9506172839506" type="line"/>
      <point x="568.0246913580247" y="615.9012345679013" type="line"/>
      <point x="942.1481481481482" y="615.9012345679013" type="line"/>
      <point x="942.1481481481482" y="735.0987654320987" type="line"/>
      <point x="568.0246913580247" y="735.0987654320987" type="line"/>
      <point x="568.0246913580247" y="1137.0493827160494" type="line"/>
      <point x="443.12345679012344" y="1137.0493827160494" type="line"/>
      <point x="443.12345679012344" y="735.0987654320987" type="line"/>
      <point x="70.0" y="735.0987654320987" type="line"/>
      <point x="70.0" y="615.9012345679013" type="line"/>
      <point x="443.12345679012344" y="615.9012345679013" type="line"/>
    </contour>
  </outline>
</glyph>
<glyph name="comma" format="2">
  <advance width="500.2469135802469"/>
  <unicode hex="002C"/>
  <outline>
    <contour>
      <point x="135.58024691358025" y="-360.9753086419753" type="line"/>
      <point x="294.3703703703704" y="-292.5061728395062"/>
      <point x="395.12345679012344" y="-140.11111111111111"/>
      <point x="395.12345679012344" y="31.925925925925924" type="curve" smooth="yes"/>
      <point x="395.12345679012344" y="149.90123456790124"/>
      <point x="343.30864197530866" y="221.59259259259258"/>
      <point x="258.5061728395062" y="221.59259259259258" type="curve" smooth="yes"/>
      <point x="195.11111111111111" y="221.59259259259258"/>
      <point x="139.35802469135803" y="179.30864197530863"/>
      <point x="139.35802469135803" y="108.85185185185185" type="curve" smooth="yes"/>
      <point x="139.35802469135803" y="35.925925925925924"/>
      <point x="192.8148148148148" y="-3.1234567901234573"/>
      <point x="255.2716049382716" y="-3.1234567901234573" type="curve" smooth="yes"/>
      <point x="262.037037037037" y="-3.1234567901234573"/>
      <point x="269.5679012345679" y="-3.1234567901234573"/>
      <point x="277.3333333333333" y="-1.1234567901234571" type="curve"/>
      <point x="276.5679012345679" y="-112.41975308641976"/>
      <point x="206.39506172839506" y="-221.41975308641975"/>
      <point x="95.76543209876543" y="-271.8888888888889" type="curve"/>
    </contour>
  </outline>
</glyph>
<glyph name="hyphen" format="2">
  <advance width="633.0987654320987"/>
  <unicode hex="002D"/>
  <outline>
    <contour>
      <point x="83.70370370370371" y="452.60493827160496" type="line"/>
      <point x="551.395061728395" y="452.60493827160496" type="line"/>
      <point x="551.395061728395" y="573.8024691358024" type="line"/>
      <point x="83.70370370370371" y="573.8024691358024" type="line"/>
    </contour>
  </outline>
</glyph>
<glyph name="period" format="2">
  <advance width="500.2469135802469"/>
  <unicode hex="002E"/>
  <outline>
    <contour>
      <point x="250.50617283950618" y="-25.0" type="curve" smooth="yes"/>
      <point x="313.9012345679012" y="-25.0"/>
      <point x="366.41975308641975" y="25.45679012345679"/>
      <point x="366.41975308641975" y="96.91358024691358" type="curve" smooth="yes"/>
      <point x="366.41975308641975" y="171.37037037037038"/>
      <point x="313.9012345679012" y="221.59259259259258"/>
      <point x="250.50617283950618" y="221.59259259259258" type="curve" smooth="yes"/>
      <point x="187.11111111111111" y="221.59259259259258"/>
      <point x="133.82716049382717" y="171.37037037037038"/>
      <point x="133.82716049382717" y="96.91358024691358" type="curve" smooth="yes"/>
      <point x="133.82716049382717" y="25.45679012345679"/>
      <point x="187.11111111111111" y="-25.0"/>
    </contour>
  </outline>
</glyph>
<glyph name="zero" format="2">
  <advance width="1012.1481481481482"/>
  <unicode hex="0030"/>
  <outline>
    <contour>
      <point x="505.69135802469134" y="-25.0" type="curve" smooth="yes"/>
      <point x="770.5061728395061" y="-25.0"/>
      <point x="920.4938271604939" y="240.71604938271605"/>
      <point x="920.4938271604939" y="683.1851851851852" type="curve" smooth="yes"/>
      <point x="920.4938271604939" y="1126.1234567901236"/>
      <point x="770.5061728395061" y="1368.8271604938273"/>
      <point x="505.69135802469134" y="1368.8271604938273" type="curve" smooth="yes"/>
      <point x="239.87654320987653" y="1368.8271604938273"/>
      <point x="91.12345679012346" y="1126.1234567901236"/>
      <point x="91.12345679012346" y="683.1851851851852" type="curve" smooth="yes"/>
      <point x="91.12345679012346" y="240.71604938271605"/>
      <point x="239.87654320987653" y="-25.0"/>
    </contour>
    <contour>
      <point x="505.69135802469134" y="101.30864197530863" type="curve" smooth="yes"/>
      <point x="344.96296296296293" y="101.30864197530863"/>
      <point x="243.48148148148147" y="293.4074074074074"/>
      <point x="243.48148148148147" y="683.1851851851852" type="curve" smooth="yes"/>
      <point x="243.48148148148147" y="1073.1975308641975"/>
      <point x="344.96296296296293" y="1243.5185185185185"/>
      <point x="505.69135802469134" y="1243.5185185185185" type="curve" smooth="yes"/>
      <point x="667.1851851851852" y="1243.5185185185185"/>
      <point x="767.9012345679013" y="1073.1975308641975"/>
      <point x="767.9012345679013" y="683.1851851851852" type="curve" smooth="yes"/>
      <point x="767.9012345679013" y="293.4074074074074"/>
      <point x="667.1851851851852" y="101.30864197530863"/>
    </contour>
  </outline>
</glyph>
<glyph name="one" format="2">
  <advance width="1012.1481481481482"/>
  <unicode hex="0031"/>
  <outline>
    <contour>
      <point x="163.41975308641975" y="0.0" type="line"/>
      <point x="891.5555555555555" y="0.0" type="line"/>
      <point x="891.5555555555555" y="129.07407407407408" type="line"/>
      <point x="619.7777777777778" y="129.07407407407408" type="line"/>
      <point x="619.7777777777778" y="1347.5925925925926" type="line"/>
      <point x="499.4691358024691" y="1347.5925925925926" type="line"/>
      <point x="428.8888888888889" y="1305.716049382716"/>
      <point x="343.41975308641975" y="1274.0123456790122"/>
      <point x="226.1358024691358" y="1253.3086419753085" type="curve"/>
      <point x="226.1358024691358" y="1148.3456790123457" type="line"/>
      <point x="463.30864197530866" y="1162.3456790123457" type="line"/>
      <point x="463.30864197530866" y="129.07407407407408" type="line"/>
      <point x="163.41975308641975" y="129.07407407407408" type="line"/>
    </contour>
  </outline>
</glyph>
<glyph name="two" format="2">
  <advance width="1012.1481481481482"/>
  <unicode hex="0032"/>
  <outline>
    <contour>
      <point x="82.29629629629629" y="0.0" type="line"/>
      <point x="919.6172839506173" y="0.0" type="line"/>
      <point x="919.6172839506173" y="134.9506172839506" type="line"/>
      <point x="529.5061728395061" y="134.9506172839506" type="line"/>
      <point x="461.44444444444446" y="134.9506172839506"/>
      <point x="382.037037037037" y="128.71604938271605"/>
      <point x="310.74074074074076" y="123.24691358024691" type="curve"/>
      <point x="627.9012345679013" y="457.2345679012346"/>
      <point x="853.8518518518518" y="735.716049382716"/>
      <point x="853.8518518518518" y="987.9629629629629" type="curve" smooth="yes"/>
      <point x="853.8518518518518" y="1220.9506172839506"/>
      <point x="707.0987654320987" y="1368.8271604938273"/>
      <point x="464.98765432098764" y="1368.8271604938273" type="curve" smooth="yes"/>
      <point x="296.641975308642" y="1368.8271604938273"/>
      <point x="179.93827160493828" y="1293.469135802469"/>
      <point x="73.12345679012346" y="1176.6543209876543" type="curve"/>
      <point x="163.74074074074073" y="1086.2716049382716" type="line"/>
      <point x="239.5679012345679" y="1176.4567901234568"/>
      <point x="335.51851851851853" y="1242.283950617284"/>
      <point x="446.17283950617286" y="1242.283950617284" type="curve" smooth="yes"/>
      <point x="619.1975308641976" y="1242.283950617284"/>
      <point x="701.7901234567901" y="1132.3827160493827"/>
      <point x="701.7901234567901" y="979.320987654321" type="curve" smooth="yes"/>
      <point x="701.7901234567901" y="765.5432098765432"/>
      <point x="481.14814814814815" y="492.0617283950617"/>
      <point x="82.29629629629629" y="92.55555555555556" type="curve"/>
    </contour>
  </outline>
</glyph>
<glyph name="three" format="2">
  <advance width="1012.1481481481482"/>
  <unicode hex="0033"/>
  <outline>
    <contour>
      <point x="622.3703703703703" y="694.2962962962963" type="line"/>
      <point x="763.9012345679013" y="746.2345679012345"/>
      <point x="861.320987654321" y="869.8888888888889"/>
      <point x="861.320987654321" y="1029.3703703703704" type="curve" smooth="yes"/>
      <point x="861.320987654321" y="1238.9506172839506"/>
      <point x="710.7407407407408" y="1368.8271604938273"/>
      <point x="477.81481481481484" y="1368.8271604938273" type="curve" smooth="yes"/>
      <point x="324.87654320987656" y="1368.8271604938273"/>
      <point x="203.53086419753086" y="1305.469135802469"/>
      <point x="103.95061728395062" y="1212.0617283950617" type="curve"/>
      <point x="188.8641975308642" y="1112.8024691358025" type="line"/>
      <point x="265.5679012345679" y="1191.0987654320988"/>
      <point x="359.51851851851853" y="1242.283950617284"/>
      <point x="470.7037037037037" y="1242.283950617284" type="curve" smooth="yes"/>
      <point x="613.5432098765432" y="1242.283950617284"/>
      <point x="702.0864197530864" y="1160.6913580246915"/>
      <point x="702.0864197530864" y="1018.7283950617284" type="curve" smooth="yes"/>
      <point x="702.0864197530864" y="877.6543209876543"/>
      <point x="608.074074074074" y="745.6913580246913"/>
      <point x="325.7037037037037" y="745.6913580246913" type="curve"/>
      <point x="325.7037037037037" y="624.4938271604939" type="line"/>
      <point x="639.4197530864197" y="624.4938271604939"/>
      <point x="748.8518518518518" y="516.4814814814815"/>
      <point x="748.8518518518518" y="356.58024691358025" type="curve" smooth="yes"/>
      <point x="748.8518518518518" y="200.3827160493827"/>
      <point x="634.7777777777778" y="105.24691358024691"/>
      <point x="474.2345679012346" y="105.24691358024691" type="curve" smooth="yes"/>
      <point x="315.8024691358025" y="105.24691358024691"/>
      <point x="212.5679012345679" y="179.66666666666666"/>
      <point x="134.5679012345679" y="262.7283950617284" type="curve"/>
      <point x="53.82716049382716" y="160.0" type="line"/>
      <point x="141.53086419753086" y="64.88888888888889"/>
      <point x="273.81481481481484" y="-25.0"/>
      <point x="483.04938271604937" y="-25.0" type="curve" smooth="yes"/>
      <point x="725.5679012345679" y="-25.0"/>
      <point x="906.8518518518518" y="122.23456790123457"/>
      <point x="906.8518518518518" y="352.641975308642" type="curve" smooth="yes"/>
      <point x="906.8518518518518" y="533.0"/>
      <point x="780.1975308641976" y="651.8888888888889"/>
      <point x="622.3703703703703" y="686.2962962962963" type="curve"/>
    </contour>
  </outline>
</glyph>
<glyph name="four" format="2">
  <advance width="1012.1481481481482"/>
  <unicode hex="0034"/>
  <outline>
    <contour>
      <point x="624.9506172839506" y="0.0" type="line"/>
      <point x="772.7777777777778" y="0.0" type="line"/>
      <point x="772.7777777777778" y="365.4938271604938" type="line"/>
      <point x="953.5555555555555" y="365.4938271604938" type="line"/>
      <point x="953.5555555555555" y="491.5679012345679" type="line"/>
      <point x="772.7777777777778" y="491.5679012345679" type="line"/>
      <point x="772.7777777777778" y="1348.358024691358" type="line"/>
      <point x="601.2716049382716" y="1348.358024691358" type="line"/>
      <point x="34.7037037037037" y="466.8024691358025" type="line"/>
      <point x="34.7037037037037" y="365.4938271604938" type="line"/>
      <point x="624.9506172839506" y="365.4938271604938" type="line"/>
    </contour>
    <contour>
      <point x="201.12345679012344" y="491.5679012345679" type="line"/>
      <point x="519.4197530864197" y="990.8888888888889" type="line"/>
      <point x="556.4197530864197" y="1054.2962962962963"/>
      <point x="593.4197530864197" y="1112.9259259259259"/>
      <point x="626.4197530864197" y="1175.0987654320988" type="curve"/>
      <point x="634.4197530864197" y="1175.0987654320988" type="line"/>
      <point x="630.4197530864197" y="1107.2222222222222"/>
      <point x="624.9506172839506" y="992.2962962962963"/>
      <point x="624.9506172839506" y="924.1851851851852" type="curve" smooth="yes"/>
      <point x="624.9506172839506" y="491.5679012345679" type="line"/>
    </contour>
  </outline>
</glyph>
<glyph name="five" format="2">
  <advance width="1012.1481481481482"/>
  <unicode hex="0035"/>
  <outline>
    <contour>
      <point x="339.0740740740741" y="1213.4074074074074" type="line"/>
      <point x="847.320987654321" y="1213.4074074074074" type="line"/>
      <point x="847.320987654321" y="1348.358024691358" type="line"/>
      <point x="201.88888888888889" y="1348.358024691358" type="line"/>
      <point x="158.82716049382717" y="711.2469135802469" type="line"/>
      <point x="244.39506172839506" y="657.7901234567901" type="line"/>
      <point x="322.39506172839504" y="709.5555555555555"/>
      <point x="379.04938271604937" y="738.679012345679"/>
      <point x="470.7037037037037" y="738.679012345679" type="curve" smooth="yes"/>
      <point x="650.7777777777778" y="738.679012345679"/>
      <point x="756.1481481481482" y="610.1358024691358"/>
      <point x="756.1481481481482" y="424.4074074074074" type="curve" smooth="yes"/>
      <point x="756.1481481481482" y="231.44444444444446"/>
      <point x="625.2469135802469" y="105.24691358024691"/>
      <point x="463.0" y="105.24691358024691" type="curve" smooth="yes"/>
      <point x="305.0987654320988" y="105.24691358024691"/>
      <point x="212.44444444444446" y="174.90123456790124"/>
      <point x="134.44444444444446" y="252.96296296296296" type="curve"/>
      <point x="57.7037037037037" y="150.46913580246914" type="line"/>
      <point x="146.58024691358025" y="60.592592592592595"/>
      <point x="267.51851851851853" y="-25.0"/>
      <point x="476.75308641975306" y="-25.0" type="curve" smooth="yes"/>
      <point x="701.7407407407408" y="-25.0"/>
      <point x="914.1481481481482" y="140.7037037037037"/>
      <point x="914.1481481481482" y="428.87654320987656" type="curve" smooth="yes"/>
      <point x="914.1481481481482" y="714.283950617284"/>
      <point x="735.6172839506173" y="858.1111111111111"/>
      <point x="508.9753086419753" y="858.1111111111111" type="curve" smooth="yes"/>
      <point x="426.7283950617284" y="858.1111111111111"/>
      <point x="365.30864197530866" y="836.7530864197531"/>
      <point x="302.95061728395063" y="802.395061728395" type="curve"/>
    </contour>
  </outline>
</glyph>
<glyph name="six" format="2">
  <advance width="1012.1481481481482"/>
  <unicode hex="0036"/>
  <outline>
    <contour>
      <point x="902.5555555555555" y="1241.4197530864199" type="line"/>
      <point x="830.3827160493827" y="1320.1234567901236"/>
      <point x="732.5679012345679" y="1368.8271604938273"/>
      <point x="594.8765432098766" y="1368.8271604938273" type="curve" smooth="yes"/>
      <point x="336.0" y="1368.8271604938273"/>
      <point x="99.12345679012346" y="1166.9506172839506"/>
      <point x="99.12345679012346" y="632.0493827160494" type="curve" smooth="yes"/>
      <point x="99.12345679012346" y="209.4814814814815"/>
      <point x="288.9259259259259" y="-25.0"/>
      <point x="546.7530864197531" y="-25.0" type="curve" smooth="yes"/>
      <point x="754.5061728395061" y="-25.0"/>
      <point x="928.5555555555555" y="150.35802469135803"/>
      <point x="928.5555555555555" y="399.34567901234567" type="curve" smooth="yes"/>
      <point x="928.5555555555555" y="687.5185185185185"/>
      <point x="783.7407407407408" y="831.283950617284"/>
      <point x="557.4444444444445" y="831.283950617284" type="curve" smooth="yes"/>
      <point x="449.1975308641975" y="831.283950617284"/>
      <point x="331.9012345679012" y="770.3333333333334"/>
      <point x="248.77777777777777" y="667.679012345679" type="curve"/>
      <point x="255.48148148148147" y="1099.2592592592594"/>
      <point x="413.61728395061726" y="1237.8148148148148"/>
      <point x="599.7530864197531" y="1237.8148148148148" type="curve" smooth="yes"/>
      <point x="682.0493827160494" y="1237.8148148148148"/>
      <point x="762.0493827160494" y="1207.5802469135801"/>
      <point x="815.8765432098766" y="1142.4567901234568" type="curve"/>
    </contour>
    <contour>
      <point x="547.0493827160494" y="99.60493827160494" type="curve" smooth="yes"/>
      <point x="373.30864197530866" y="99.60493827160494"/>
      <point x="269.8395061728395" y="273.0"/>
      <point x="252.2469135802469" y="540.1234567901234" type="curve"/>
      <point x="343.0246913580247" y="666.6666666666666"/>
      <point x="448.5679012345679" y="711.8518518518518"/>
      <point x="532.2222222222222" y="711.8518518518518" type="curve" smooth="yes"/>
      <point x="699.8395061728395" y="711.8518518518518"/>
      <point x="779.9012345679013" y="592.8888888888889"/>
      <point x="779.9012345679013" y="399.34567901234567" type="curve" smooth="yes"/>
      <point x="779.9012345679013" y="224.16049382716048"/>
      <point x="679.4197530864197" y="99.60493827160494"/>
    </contour>
  </outline>
</glyph>
<glyph name="seven" format="2">
  <advance width="1012.1481481481482"/>
  <unicode hex="0037"/>
  <outline>
    <contour>
      <point x="528.3703703703703" y="0.0" type="line"/>
      <point x="546.3703703703703" y="510.5308641975309"/>
      <point x="616.320987654321" y="853.320987654321"/>
      <point x="926.1481481481482" y="1252.3950617283951" type="curve"/>
      <point x="926.1481481481482" y="1348.358024691358" type="line"/>
      <point x="90.0" y="1348.358024691358" type="line"/>
      <point x="90.0" y="1213.4074074074074" type="line"/>
      <point x="747.1481481481482" y="1213.4074074074074" type="line"/>
      <point x="488.7901234567901" y="853.2222222222222"/>
      <point x="383.8395061728395" y="498.08641975308643"/>
      <point x="365.60493827160496" y="0.0" type="curve"/>
    </contour>
  </outline>
</glyph>
<glyph name="eight" format="2">
  <advance width="1012.1481481481482"/>
  <unicode hex="0038"/>
  <outline>
    <contour>
      <point x="700.0864197530864" y="689.4074074074074" type="line"/>
      <point x="779.2592592592592" y="750.1728395061729"/>
      <point x="881.4444444444445" y="882.2345679012345"/>
      <point x="881.4444444444445" y="1019.5925925925926" type="curve" smooth="yes"/>
      <point x="881.4444444444445" y="1222.2345679012346"/>
      <point x="744.8641975308642" y="1368.8271604938273"/>
      <point x="517.925925925926" y="1368.8271604938273" type="curve" smooth="yes"/>
      <point x="298.7654320987654" y="1368.8271604938273"/>
      <point x="148.88888888888889" y="1229.2962962962963"/>
      <point x="148.88888888888889" y="1030.2469135802469" type="curve" smooth="yes"/>
      <point x="148.88888888888889" y="892.4814814814815"/>
      <point x="232.1851851851852" y="786.5432098765432"/>
      <point x="329.41975308641975" y="719.3703703703703" type="curve"/>
      <point x="329.41975308641975" y="711.3703703703703" type="line"/>
      <point x="204.77777777777777" y="646.3703703703703"/>
      <point x="83.46913580246914" y="513.358024691358"/>
      <point x="83.46913580246914" y="343.0" type="curve" smooth="yes"/>
      <point x="83.46913580246914" y="135.76543209876544"/>
      <point x="264.87654320987656" y="-25.0"/>
      <point x="509.75308641975306" y="-25.0" type="curve" smooth="yes"/>
      <point x="772.5061728395061" y="-25.0"/>
      <point x="927.6172839506173" y="136.0"/>
      <point x="927.6172839506173" y="330.4074074074074" type="curve" smooth="yes"/>
      <point x="927.6172839506173" y="505.9382716049383"/>
      <point x="816.0246913580247" y="613.4074074074074"/>
      <point x="700.0864197530864" y="680.4074074074074" type="curve"/>
    </contour>
    <contour>
      <point x="513.2222222222222" y="92.19753086419753" type="curve" smooth="yes"/>
      <point x="348.7283950617284" y="92.19753086419753"/>
      <point x="225.71604938271605" y="208.33333333333334"/>
      <point x="225.71604938271605" y="356.1111111111111" type="curve" smooth="yes"/>
      <point x="225.71604938271605" y="479.01234567901236"/>
      <point x="302.7283950617284" y="592.4938271604939"/>
      <point x="412.69135802469134" y="663.1481481481482" type="curve"/>
      <point x="603.1728395061729" y="586.320987654321"/>
      <point x="777.2592592592592" y="509.1358024691358"/>
      <point x="777.2592592592592" y="335.1111111111111" type="curve" smooth="yes"/>
      <point x="777.2592592592592" y="198.8641975308642"/>
      <point x="682.716049382716" y="92.19753086419753"/>
    </contour>
    <contour>
      <point x="602.3456790123457" y="731.6296296296297" type="curve"/>
      <point x="436.74074074074076" y="793.2222222222222"/>
      <point x="293.8395061728395" y="869.5185185185185"/>
      <point x="293.8395061728395" y="1030.2469135802469" type="curve" smooth="yes"/>
      <point x="293.8395061728395" y="1159.4938271604938"/>
      <point x="378.08641975308643" y="1252.3950617283951"/>
      <point x="515.2222222222222" y="1252.3950617283951" type="curve" smooth="yes"/>
      <point x="662.6543209876543" y="1252.3950617283951"/>
      <point x="744.9012345679013" y="1144.7283950617284"/>
      <point x="744.9012345679013" y="1012.716049382716" type="curve" smooth="yes"/>
      <point x="744.9012345679013" y="913.9382716049382"/>
      <point x="693.9506172839506" y="811.8148148148148"/>
    </contour>
  </outline>
</glyph>
<glyph name="nine" format="2">
  <advance width="1012.1481481481482"/>
  <unicode hex="0039"/>
  <outline>
    <contour>
      <point x="146.82716049382717" y="106.58024691358024" type="line"/>
      <point x="229.7037037037037" y="22.876543209876544"/>
      <point x="324.1111111111111" y="-25.0"/>
      <point x="460.8024691358025" y="-25.0" type="curve" smooth="yes"/>
      <point x="726.2098765432099" y="-25.0"/>
      <point x="910.2592592592592" y="193.34567901234567"/>
      <point x="910.2592592592592" y="709.4814814814815" type="curve" smooth="yes"/>
      <point x="910.2592592592592" y="1169.2222222222222"/>
      <point x="736.283950617284" y="1369.2962962962963"/>
      <point x="471.98765432098764" y="1369.2962962962963" type="curve" smooth="yes"/>
      <point x="265.2345679012346" y="1369.2962962962963"/>
      <point x="82.35802469135803" y="1188.5925925925926"/>
      <point x="82.35802469135803" y="941.3086419753087" type="curve" smooth="yes"/>
      <point x="82.35802469135803" y="673.604938271605"/>
      <point x="226.17283950617283" y="507.8888888888889"/>
      <point x="452.7037037037037" y="507.8888888888889" type="curve" smooth="yes"/>
      <point x="562.716049382716" y="507.8888888888889"/>
      <point x="686.0123456790124" y="566.074074074074"/>
      <point x="763.1358024691358" y="669.9629629629629" type="curve"/>
      <point x="758.3703703703703" y="254.14814814814815"/>
      <point x="643.2962962962963" y="105.24691358024691"/>
      <point x="455.69135802469134" y="105.24691358024691" type="curve" smooth="yes"/>
      <point x="372.8641975308642" y="105.24691358024691"/>
      <point x="274.3333333333333" y="146.71604938271605"/>
      <point x="228.50617283950618" y="205.37037037037038" type="curve"/>
    </contour>
    <contour>
      <point x="478.69135802469134" y="626.5555555555555" type="curve" smooth="yes"/>
      <point x="310.30864197530866" y="626.5555555555555"/>
      <point x="230.2469135802469" y="767.4691358024692"/>
      <point x="230.2469135802469" y="941.3086419753087" type="curve" smooth="yes"/>
      <point x="230.2469135802469" y="1115.79012345679"/>
      <point x="338.7901234567901" y="1245.6913580246915"/>
      <point x="472.9259259259259" y="1245.6913580246915" type="curve" smooth="yes"/>
      <point x="652.9012345679013" y="1245.6913580246915"/>
      <point x="759.6666666666666" y="1083.4197530864199"/>
      <point x="759.6666666666666" y="797.0493827160494" type="curve"/>
      <point x="668.1234567901234" y="669.5061728395061"/>
      <point x="563.3456790123457" y="626.5555555555555"/>
    </contour>
  </outline>
</glyph>
<glyph name="less" format="2">
  <advance width="1012.1481481481482"/>
  <unicode hex="003C"/>
  <outline>
    <contour>
      <point x="942.1481481481482" y="273.0246913580247" type="line"/>
      <point x="942.1481481481482" y="409.8024691358025" type="line"/>
      <point x="229.46913580246914" y="676.0" type="line"/>
      <point x="229.46913580246914" y="684.0" type="line"/>
      <point x="942.1481481481482" y="950.1975308641976" type="line"/>
      <point x="942.1481481481482" y="1086.9753086419753" type="line"/>
      <point x="70.0" y="744.395061728395" type="line"/>
      <point x="70.0" y="615.604938271605" type="line"/>
    </contour>
  </outline>
</glyph>
<glyph name="equal" format="2">
  <advance width="1012.1481481481482"/>
  <unicode hex="003D"/>
  <outline>
    <contour>
      <point x="70.0" y="833.716049382716" type="line"/>
      <point x="942.1481481481482" y="833.716049382716" type="line"/>
      <point x="942.1481481481482" y="952.9135802469136" type="line"/>
      <point x="70.0" y="952.9135802469136" type="line"/>
    </contour>
    <contour>
      <point x="70.0" y="398.320987654321" type="line"/>
      <point x="942.1481481481482" y="398.320987654321" type="line"/>
      <point x="942.1481481481482" y="517.5185185185185" type="line"/>
      <point x="70.0" y="517.5185185185185" type="line"/>
    </contour>
  </outline>
</glyph>
<glyph name="question" format="2">
  <advance width="862.4938271604939"/>
  <unicode hex="003F"/>
  <outline>
    <contour>
      <point x="466.01234567901236" y="399.85185185185185" type="line"/>
      <point x="425.30864197530866" y="697.3456790123457"/>
      <point x="763.9012345679013" y="774.2469135802469"/>
      <point x="763.9012345679013" y="1073.8271604938273" type="curve" smooth="yes"/>
      <point x="763.9012345679013" y="1286.6913580246915"/>
      <point x="635.6172839506173" y="1397.0"/>
      <point x="418.8024691358025" y="1397.0" type="curve" smooth="yes"/>
      <point x="277.51851851851853" y="1397.0"/>
      <point x="157.87654320987653" y="1332.469135802469"/>
      <point x="72.70370370370371" y="1236.358024691358" type="curve"/>
      <point x="162.79012345679013" y="1148.20987654321" type="line"/>
      <point x="226.85185185185185" y="1222.6296296296296"/>
      <point x="307.22222222222223" y="1264.7530864197531"/>
      <point x="404.75308641975306" y="1264.7530864197531" type="curve" smooth="yes"/>
      <point x="545.4814814814815" y="1264.7530864197531"/>
      <point x="611.074074074074" y="1192.4938271604938"/>
      <point x="611.074074074074" y="1065.4814814814815" type="curve" smooth="yes"/>
      <point x="611.074074074074" y="811.9382716049382"/>
      <point x="278.3703703703704" y="734.3456790123457"/>
      <point x="328.358024691358" y="399.85185185185185" type="curve"/>
    </contour>
    <contour>
      <point x="402.8024691358025" y="-25.0" type="curve" smooth="yes"/>
      <point x="466.4320987654321" y="-25.0"/>
      <point x="519.716049382716" y="25.45679012345679"/>
      <point x="519.716049382716" y="96.91358024691358" type="curve" smooth="yes"/>
      <point x="519.716049382716" y="171.37037037037038"/>
      <point x="466.4320987654321" y="221.59259259259258"/>
      <point x="402.8024691358025" y="221.59259259259258" type="curve" smooth="yes"/>
      <point x="338.641975308642" y="221.59259259259258"/>
      <point x="287.358024691358" y="171.37037037037038"/>
      <point x="287.358024691358" y="96.91358024691358" type="curve" smooth="yes"/>
      <point x="287.358024691358" y="25.45679012345679"/>
      <point x="338.641975308642" y="-25.0"/>
    </contour>
  </outline>
</glyph>
<glyph name="at" format="2">
  <advance width="1723.888888888889"/>
  <unicode hex="0040"/>
  <outline>
    <contour>
      <point x="1165.0987654320988" y="-66.33333333333333" type="line"/>
      <point x="1072.037037037037" y="-120.92592592592592"/>
      <point x="958.3333333333334" y="-159.69135802469137"/>
      <point x="831.9135802469136" y="-159.69135802469137" type="curve" smooth="yes"/>
      <point x="477.25925925925924" y="-159.69135802469137"/>
      <point x="218.14814814814815" y="72.49382716049382"/>
      <point x="218.14814814814815" y="472.4938271604938" type="curve" smooth="yes"/>
      <point x="218.14814814814815" y="952.1481481481482"/>
      <point x="571.679012345679" y="1265.3827160493827"/>
      <point x="939.4444444444445" y="1265.3827160493827" type="curve" smooth="yes"/>
      <point x="1309.6666666666667" y="1265.3827160493827"/>
      <point x="1508.20987654321" y="1022.925925925926"/>
      <point x="1508.20987654321" y="689.320987654321" type="curve" smooth="yes"/>
      <point x="1508.20987654321" y="419.95061728395063"/>
      <point x="1364.5555555555557" y="261.0617283950617"/>
      <point x="1235.2592592592594" y="261.0617283950617" type="curve" smooth="yes"/>
      <point x="1120.3086419753085" y="261.0617283950617"/>
      <point x="1079.716049382716" y="341.01234567901236"/>
      <point x="1122.0740740740741" y="506.67901234567904" type="curve"/>
      <point x="1200.9506172839506" y="912.5432098765432" type="line"/>
      <point x="1096.1604938271605" y="912.5432098765432" type="line"/>
      <point x="1074.2222222222222" y="830.3086419753087" type="line"/>
      <point x="1070.2222222222222" y="830.3086419753087" type="line"/>
      <point x="1031.6913580246915" y="898.0123456790124"/>
      <point x="975.925925925926" y="928.7777777777778"/>
      <point x="904.6296296296297" y="928.7777777777778" type="curve" smooth="yes"/>
      <point x="665.0987654320987" y="928.7777777777778"/>
      <point x="513.5802469135803" y="673.8271604938271"/>
      <point x="513.5802469135803" y="456.7901234567901" type="curve" smooth="yes"/>
      <point x="513.5802469135803" y="269.55555555555554"/>
      <point x="619.8148148148148" y="169.20987654320987"/>
      <point x="757.8641975308642" y="169.20987654320987" type="curve" smooth="yes"/>
      <point x="852.9135802469136" y="169.20987654320987"/>
      <point x="939.0370370370371" y="228.74074074074073"/>
      <point x="1007.395061728395" y="308.5061728395062" type="curve"/>
      <point x="1011.6296296296297" y="308.5061728395062" type="line"/>
      <point x="1024.8024691358025" y="206.20987654320987"/>
      <point x="1110.20987654321" y="153.50617283950618"/>
      <point x="1220.9135802469136" y="153.50617283950618" type="curve" smooth="yes"/>
      <point x="1404.1358024691358" y="153.50617283950618"/>
      <point x="1619.888888888889" y="338.9753086419753"/>
      <point x="1619.888888888889" y="695.320987654321" type="curve" smooth="yes"/>
      <point x="1619.888888888889" y="1097.0740740740741"/>
      <point x="1362.8395061728395" y="1368.8271604938273"/>
      <point x="951.6172839506173" y="1368.8271604938273" type="curve" smooth="yes"/>
      <point x="498.04938271604937" y="1368.8271604938273"/>
      <point x="104.29629629629629" y="1013.0123456790124"/>
      <point x="104.29629629629629" y="466.4938271604938" type="curve" smooth="yes"/>
      <point x="104.29629629629629" y="-7.074074074074071"/>
      <point x="420.0987654320988" y="-263.9012345679012"/>
      <point x="820.5061728395061" y="-263.9012345679012" type="curve" smooth="yes"/>
      <point x="961.2098765432099" y="-263.9012345679012"/>
      <point x="1090.4444444444443" y="-230.60493827160494"/>
      <point x="1208.148148148148" y="-158.30864197530863" type="curve"/>
    </contour>
    <contour>
      <point x="980.5802469135803" y="400.5432098765432" type="line"/>
      <point x="911.2098765432099" y="315.82716049382714"/>
      <point x="845.4444444444445" y="276.7654320987654"/>
      <point x="786.5555555555555" y="276.7654320987654" type="curve" smooth="yes"/>
      <point x="702.9012345679013" y="276.7654320987654"/>
      <point x="639.9506172839506" y="329.18518518518516"/>
      <point x="639.9506172839506" y="465.962962962963" type="curve" smooth="yes"/>
      <point x="639.9506172839506" y="623.9135802469136"/>
      <point x="740.4320987654321" y="818.7530864197531"/>
      <point x="906.5679012345679" y="818.7530864197531" type="curve" smooth="yes"/>
      <point x="962.6913580246913" y="818.7530864197531"/>
      <point x="999.9876543209876" y="795.9876543209876"/>
      <point x="1040.4074074074074" y="730.5061728395061" type="curve"/>
    </contour>
  </outline>
</glyph>
<glyph name="A" format="2">
  <advance width="1095.851851851852"/>
  <unicode hex="0041"/>
  <anchor x="547.925925925926" y="-276.5432098765432" name="btm"/>
  <anchor x="547.925925925926" y="1404.6913580246915" name="top"/>
  <outline>
    <contour>
      <point x="1.1234567901234571" y="0.0" type="line"/>
      <point x="162.35802469135803" y="0.0" type="line"/>
      <point x="296.32098765432096" y="418.6296296296296" type="line"/>
      <point x="793.8271604938271" y="418.6296296296296" type="line"/>
      <point x="927.0246913580247" y="0.0" type="line"/>
      <point x="1094.962962962963" y="0.0" type="line"/>
      <point x="636.8888888888889" y="1344.5925925925926" type="line"/>
      <point x="459.7283950617284" y="1344.5925925925926" type="line"/>
    </contour>
    <contour>
      <point x="336.3703703703704" y="545.9382716049382" type="line"/>
      <point x="406.44444444444446" y="758.9753086419753" type="line"/>
      <point x="454.8024691358025" y="909.6296296296297"/>
      <point x="498.8641975308642" y="1056.037037037037"/>
      <point x="541.4567901234568" y="1213.6913580246915" type="curve"/>
      <point x="550.2222222222222" y="1213.6913580246915" type="line"/>
      <point x="593.283950617284" y="1056.2716049382716"/>
      <point x="637.8765432098766" y="909.6296296296297"/>
      <point x="685.7037037037037" y="758.9753086419753" type="curve" smooth="yes"/>
      <point x="753.7777777777778" y="545.9382716049382" type="line"/>
    </contour>
  </outline>
</glyph>
<glyph name="B" format="2">
  <advance width="1190.0987654320988"/>
  <unicode hex="0042"/>
  <anchor x="595.0493827160494" y="0.0" name="bottom"/>
  <anchor x="582.0370370370371" y="1344.5925925925926" name="top"/>
  <outline>
    <contour>
      <point x="180.71604938271605" y="0.0" type="line"/>
      <point x="609.0370370370371" y="0.0" type="line"/>
      <point x="908.8641975308642" y="0.0"/>
      <point x="1110.9753086419753" y="129.35802469135803"/>
      <point x="1110.9753086419753" y="395.4691358024691" type="curve" smooth="yes"/>
      <point x="1110.9753086419753" y="582.5308641975308"/>
      <point x="995.0864197530864" y="695.5308641975308"/>
      <point x="798.0246913580247" y="715.8271604938271" type="curve"/>
      <point x="798.0246913580247" y="723.8271604938271" type="line"/>
      <point x="966.5555555555555" y="760.8271604938271"/>
      <point x="1033.6172839506173" y="883.7037037037037"/>
      <point x="1033.6172839506173" y="1019.8271604938271" type="curve" smooth="yes"/>
      <point x="1033.6172839506173" y="1256.8765432098764"/>
      <point x="853.7407407407408" y="1344.5925925925926"/>
      <point x="580.8641975308642" y="1344.5925925925926" type="curve" smooth="yes"/>
      <point x="180.71604938271605" y="1344.5925925925926" type="line"/>
    </contour>
    <contour>
      <point x="339.95061728395063" y="126.07407407407408" type="line"/>
      <point x="339.95061728395063" y="649.0864197530864" type="line"/>
      <point x="585.2098765432099" y="649.0864197530864" type="line"/>
      <point x="827.1234567901234" y="649.0864197530864"/>
      <point x="955.4444444444445" y="574.3086419753087"/>
      <point x="955.4444444444445" y="402.58024691358025" type="curve" smooth="yes"/>
      <point x="955.4444444444445" y="212.320987654321"/>
      <point x="819.6543209876543" y="126.07407407407408"/>
      <point x="584.2716049382716" y="126.07407407407408" type="curve" smooth="yes"/>
    </contour>
    <contour>
      <point x="339.95061728395063" y="767.7530864197531" type="line"/>
      <point x="339.95061728395063" y="1218.5185185185185" type="line"/>
      <point x="559.4444444444445" y="1218.5185185185185" type="line"/>
      <point x="773.358024691358" y="1218.5185185185185"/>
      <point x="877.320987654321" y="1159.567901234568"/>
      <point x="877.320987654321" y="1007.3703703703703" type="curve" smooth="yes"/>
      <point x="877.320987654321" y="851.4074074074074"/>
      <point x="784.2469135802469" y="767.7530864197531"/>
      <point x="548.2098765432099" y="767.7530864197531" type="curve" smooth="yes"/>
    </contour>
  </outline>
</glyph>
<glyph name="C" format="2">
  <advance width="1156.2222222222222"/>
  <unicode hex="0043"/>
  <anchor x="668.6296296296297" y="0.0" name="bottom"/>
  <anchor x="684.8641975308642" y="1531.358024691358" name="top"/>
  <outline>
    <contour>
      <point x="1001.0123456790124" y="264.7283950617284" type="line"/>
      <point x="912.8271604938271" y="166.2469135802469"/>
      <point x="816.1728395061729" y="114.95061728395062"/>
      <point x="686.7530864197531" y="114.95061728395062" type="curve" smooth="yes"/>
      <point x="425.4320987654321" y="114.95061728395062"/>
      <point x="264.2962962962963" y="325.9753086419753"/>
      <point x="264.2962962962963" y="677.2962962962963" type="curve" smooth="yes"/>
      <point x="264.2962962962963" y="1024.9135802469136"/>
      <point x="432.8395061728395" y="1229.8765432098764"/>
      <point x="694.7530864197531" y="1229.8765432098764" type="curve" smooth="yes"/>
      <point x="807.9382716049382" y="1229.8765432098764"/>
      <point x="899.8271604938271" y="1181.5185185185185"/>
      <point x="971.358024691358" y="1105.3950617283951" type="curve"/>
      <point x="1061.4444444444443" y="1205.888888888889" type="line"/>
      <point x="982.8024691358024" y="1292.8271604938273"/>
      <point x="852.9876543209876" y="1368.8271604938273"/>
      <point x="693.283950617284" y="1368.8271604938273" type="curve" smooth="yes"/>
      <point x="349.28395061728395" y="1368.8271604938273"/>
      <point x="100.82716049382717" y="1114.469135802469"/>
      <point x="100.82716049382717" y="672.358024691358" type="curve" smooth="yes"/>
      <point x="100.82716049382717" y="226.77777777777777"/>
      <point x="345.58024691358025" y="-25.0"/>
      <point x="682.7530864197531" y="-25.0" type="curve" smooth="yes"/>
      <point x="853.8148148148148" y="-25.0"/>
      <point x="986.395061728395" y="45.53086419753087"/>
      <point x="1091.0987654320988" y="167.46913580246914" type="curve"/>
    </contour>
  </outline>
</glyph>
<glyph name="D" format="2">
  <advance width="1248.567901234568"/>
  <unicode hex="0044"/>
  <anchor x="624.283950617284" y="0.0" name="bottom"/>
  <anchor x="624.283950617284" y="672.2962962962963" name="center"/>
  <anchor x="624.283950617284" y="1344.5925925925926" name="top"/>
  <outline>
    <contour>
      <point x="180.71604938271605" y="0.0" type="line"/>
      <point x="523.1604938271605" y="0.0" type="line"/>
      <point x="930.8148148148148" y="0.0"/>
      <point x="1143.7407407407406" y="248.01234567901236"/>
      <point x="1143.7407407407406" y="678.7654320987655" type="curve" smooth="yes"/>
      <point x="1143.7407407407406" y="1109.3950617283951"/>
      <point x="937.7530864197531" y="1344.5925925925926"/>
      <point x="522.5185185185185" y="1344.5925925925926" type="curve" smooth="yes"/>
      <point x="180.71604938271605" y="1344.5925925925926" type="line"/>
    </contour>
    <contour>
      <point x="339.95061728395063" y="130.01234567901236" type="line"/>
      <point x="339.95061728395063" y="1214.5802469135801" type="line"/>
      <point x="510.81481481481484" y="1214.5802469135801" type="line"/>
      <point x="834.0864197530864" y="1214.5802469135801"/>
      <point x="980.5061728395061" y="1025.6543209876543"/>
      <point x="980.5061728395061" y="678.7654320987655" type="curve" smooth="yes"/>
      <point x="980.5061728395061" y="332.58024691358025"/>
      <point x="827.9135802469136" y="130.01234567901236"/>
      <point x="504.81481481481484" y="130.01234567901236" type="curve" smooth="yes"/>
    </contour>
  </outline>
</glyph>
<glyph name="E" format="2">
  <advance width="1063.5061728395062"/>
  <unicode hex="0045"/>
  <anchor x="575.1728395061729" y="-276.5432098765432" name="btm"/>
  <anchor x="571.1851851851852" y="1404.6913580246915" name="top"/>
  <outline>
    <contour>
      <point x="180.71604938271605" y="0.0" type="line"/>
      <point x="969.8641975308642" y="0.0" type="line"/>
      <point x="969.8641975308642" y="134.9506172839506" type="line"/>
      <point x="339.95061728395063" y="134.9506172839506" type="line"/>
      <point x="339.95061728395063" y="640.4444444444445" type="line"/>
      <point x="852.9753086419753" y="640.4444444444445" type="line"/>
      <point x="852.9753086419753" y="774.925925925926" type="line"/>
      <point x="339.95061728395063" y="774.925925925926" type="line"/>
      <point x="339.95061728395063" y="1210.8765432098764" type="line"/>
      <point x="948.8641975308642" y="1210.8765432098764" type="line"/>
      <point x="948.8641975308642" y="1344.5925925925926" type="line"/>
      <point x="180.71604938271605" y="1344.5925925925926" type="line"/>
    </contour>
  </outline>
</glyph>
<glyph name="F" format="2">
  <advance width="995.0864197530864"/>
  <unicode hex="0046"/>
  <anchor x="497.9259259259259" y="0.0" name="bottom"/>
  <anchor x="573.7037037037037" y="1344.5925925925926" name="top"/>
  <outline>
    <contour>
      <point x="180.71604938271605" y="0.0" type="line"/>
      <point x="339.95061728395063" y="0.0" type="line"/>
      <point x="339.95061728395063" y="609.0370370370371" type="line"/>
      <point x="856.4444444444445" y="609.0370370370371" type="line"/>
      <point x="856.4444444444445" y="742.7530864197531" type="line"/>
      <point x="339.95061728395063" y="742.7530864197531" type="line"/>
      <point x="339.95061728395063" y="1210.8765432098764" type="line"/>
      <point x="949.5679012345679" y="1210.8765432098764" type="line"/>
      <point x="949.5679012345679" y="1344.5925925925926" type="line"/>
      <point x="180.71604938271605" y="1344.5925925925926" type="line"/>
    </contour>
  </outline>
</glyph>
<glyph name="G" format="2">
  <advance width="1248.2716049382716"/>
  <unicode hex="0047"/>
  <anchor x="647.2716049382716" y="0.0" name="bottom"/>
  <anchor x="693.4938271604939" y="1350.4567901234568" name="top"/>
  <outline>
    <contour>
      <point x="1115.6172839506173" y="690.9753086419753" type="line"/>
      <point x="685.5802469135803" y="690.9753086419753" type="line"/>
      <point x="685.5802469135803" y="559.7283950617284" type="line"/>
      <point x="971.1975308641976" y="559.7283950617284" type="line"/>
      <point x="971.1975308641976" y="198.320987654321" type="line"/>
      <point x="915.2469135802469" y="146.07407407407408"/>
      <point x="818.1728395061729" y="114.95061728395062"/>
      <point x="717.7407407407408" y="114.95061728395062" type="curve" smooth="yes"/>
      <point x="427.4320987654321" y="114.95061728395062"/>
      <point x="265.0617283950617" y="322.5061728395062"/>
      <point x="265.0617283950617" y="674.0617283950618" type="curve" smooth="yes"/>
      <point x="265.0617283950617" y="1031.148148148148"/>
      <point x="440.8395061728395" y="1229.8765432098764"/>
      <point x="718.6913580246913" y="1229.8765432098764" type="curve" smooth="yes"/>
      <point x="855.1728395061729" y="1229.8765432098764"/>
      <point x="940.8271604938271" y="1180.7530864197531"/>
      <point x="1008.8271604938271" y="1109.1604938271605" type="curve"/>
      <point x="1099.9135802469136" y="1209.6543209876543" type="line"/>
      <point x="1021.2716049382716" y="1290.8271604938273"/>
      <point x="900.4567901234568" y="1368.8271604938273"/>
      <point x="717.2222222222222" y="1368.8271604938273" type="curve" smooth="yes"/>
      <point x="357.28395061728395" y="1368.8271604938273"/>
      <point x="100.82716049382717" y="1124.9382716049383"/>
      <point x="100.82716049382717" y="671.1234567901234" type="curve" smooth="yes"/>
      <point x="100.82716049382717" y="222.30864197530863"/>
      <point x="349.28395061728395" y="-25.0"/>
      <point x="700.925925925926" y="-25.0" type="curve" smooth="yes"/>
      <point x="880.8641975308642" y="-25.0"/>
      <point x="1028.4444444444443" y="44.17283950617284"/>
      <point x="1115.6172839506173" y="130.7037037037037" type="curve"/>
    </contour>
  </outline>
</glyph>
<glyph name="H" format="2">
  <advance width="1319.5061728395062"/>
  <unicode hex="0048"/>
  <anchor x="659.7530864197531" y="0.0" name="bottom"/>
  <anchor x="659.7530864197531" y="672.2962962962963" name="center"/>
  <anchor x="659.7530864197531" y="1344.5925925925926" name="top"/>
  <outline>
    <contour>
      <point x="180.71604938271605" y="0.0" type="line"/>
      <point x="339.95061728395063" y="0.0" type="line"/>
      <point x="339.95061728395063" y="639.9753086419753" type="line"/>
      <point x="980.7901234567901" y="639.9753086419753" type="line"/>
      <point x="980.7901234567901" y="0.0" type="line"/>
      <point x="1138.0246913580247" y="0.0" type="line"/>
      <point x="1138.0246913580247" y="1344.5925925925926" type="line"/>
      <point x="980.7901234567901" y="1344.5925925925926" type="line"/>
      <point x="980.7901234567901" y="776.8641975308642" type="line"/>
      <point x="339.95061728395063" y="776.8641975308642" type="line"/>
      <point x="339.95061728395063" y="1344.5925925925926" type="line"/>
      <point x="180.71604938271605" y="1344.5925925925926" type="line"/>
    </contour>
  </outline>
</glyph>
<glyph name="I" format="2">
  <advance width="519.6666666666666"/>
  <unicode hex="0049"/>
  <anchor x="260.3333333333333" y="0.0" name="bottom"/>
  <anchor x="467.4938271604938" y="10.0" name="ogonek"/>
  <anchor x="260.3333333333333" y="1344.5925925925926" name="top"/>
  <outline>
    <contour>
      <point x="180.71604938271605" y="0.0" type="line"/>
      <point x="339.95061728395063" y="0.0" type="line"/>
      <point x="339.95061728395063" y="1344.5925925925926" type="line"/>
      <point x="180.71604938271605" y="1344.5925925925926" type="line"/>
    </contour>
  </outline>
</glyph>
<glyph name="J" format="2">
  <advance width="964.8518518518518"/>
  <unicode hex="004A"/>
  <anchor x="482.9259259259259" y="0.0" name="bottom"/>
  <anchor x="482.9259259259259" y="1344.5925925925926" name="top"/>
  <outline>
    <contour>
      <point x="790.3703703703703" y="1344.5925925925926" type="line"/>
      <point x="632.1358024691358" y="1344.5925925925926" type="line"/>
      <point x="632.1358024691358" y="399.9753086419753" type="line"/>
      <point x="632.1358024691358" y="192.7283950617284"/>
      <point x="561.2469135802469" y="114.95061728395062"/>
      <point x="414.4074074074074" y="114.95061728395062" type="curve" smooth="yes"/>
      <point x="315.39506172839504" y="114.95061728395062"/>
      <point x="237.5679012345679" y="159.9506172839506"/>
      <point x="174.20987654320987" y="266.60493827160496" type="curve"/>
      <point x="61.77777777777778" y="186.98765432098764" type="line"/>
      <point x="138.12345679012347" y="48.7037037037037"/>
      <point x="260.0" y="-25.0"/>
      <point x="426.9259259259259" y="-25.0" type="curve" smooth="yes"/>
      <point x="687.6172839506173" y="-25.0"/>
      <point x="790.3703703703703" y="155.0493827160494"/>
      <point x="790.3703703703703" y="384.5679012345679" type="curve" smooth="yes"/>
    </contour>
  </outline>
</glyph>
<glyph name="K" format="2">
  <advance width="1167.7283950617284"/>
  <unicode hex="004B"/>
  <anchor x="583.8641975308642" y="0.0" name="bottom"/>
  <anchor x="583.8641975308642" y="1344.5925925925926" name="top"/>
  <outline>
    <contour>
      <point x="180.71604938271605" y="0.0" type="line"/>
      <point x="339.95061728395063" y="0.0" type="line"/>
      <point x="339.95061728395063" y="432.14814814814815" type="line"/>
      <point x="576.925925925926" y="711.0617283950618" type="line"/>
      <point x="984.9012345679013" y="0.0" type="line"/>
      <point x="1162.3086419753085" y="0.0" type="line"/>
      <point x="676.2469135802469" y="834.5432098765432" type="line"/>
      <point x="1098.9012345679012" y="1344.5925925925926" type="line"/>
      <point x="918.4938271604939" y="1344.5925925925926" type="line"/>
      <point x="343.95061728395063" y="657.4197530864197" type="line"/>
      <point x="339.95061728395063" y="657.4197530864197" type="line"/>
      <point x="339.95061728395063" y="1344.5925925925926" type="line"/>
      <point x="180.71604938271605" y="1344.5925925925926" type="line"/>
    </contour>
  </outline>
</glyph>
<glyph name="L" format="2">
  <advance width="977.5555555555555"/>
  <unicode hex="004C"/>
  <anchor x="516.8395061728395" y="-276.5432098765432" name="btm"/>
  <anchor x="718.0123456790124" y="1009.0987654320987" name="car"/>
  <anchor x="688.1358024691358" y="772.9382716049382" name="dot"/>
  <anchor x="264.2716049382716" y="1404.6913580246915" name="top"/>
  <outline>
    <contour>
      <point x="180.71604938271605" y="0.0" type="line"/>
      <point x="931.2716049382716" y="0.0" type="line"/>
      <point x="931.2716049382716" y="134.9506172839506" type="line"/>
      <point x="339.95061728395063" y="134.9506172839506" type="line"/>
      <point x="339.95061728395063" y="1344.5925925925926" type="line"/>
      <point x="180.71604938271605" y="1344.5925925925926" type="line"/>
    </contour>
  </outline>
</glyph>
<glyph name="M" format="2">
  <advance width="1471.7283950617284"/>
  <unicode hex="004D"/>
  <anchor x="735.8641975308642" y="0.0" name="bottom"/>
  <anchor x="735.8641975308642" y="1344.5925925925926" name="top"/>
  <outline>
    <contour>
      <point x="173.77777777777777" y="0.0" type="line"/>
      <point x="320.1358024691358" y="0.0" type="line"/>
      <point x="320.1358024691358" y="763.4074074074074" type="line"/>
      <point x="320.1358024691358" y="880.5185185185185"/>
      <point x="315.6666666666667" y="1038.20987654321"/>
      <point x="307.7283950617284" y="1155.6172839506173" type="curve"/>
      <point x="315.7283950617284" y="1155.6172839506173" type="line"/>
      <point x="422.7283950617284" y="856.679012345679" type="line"/>
      <point x="685.7530864197531" y="137.1851851851852" type="line"/>
      <point x="781.2716049382716" y="137.1851851851852" type="line"/>
      <point x="1043.530864197531" y="856.679012345679" type="line"/>
      <point x="1150.0" y="1155.6172839506173" type="line"/>
      <point x="1158.0" y="1155.6172839506173" type="line"/>
      <point x="1150.0617283950617" y="1038.20987654321"/>
      <point x="1144.358024691358" y="880.5185185185185"/>
      <point x="1144.358024691358" y="763.4074074074074" type="curve" smooth="yes"/>
      <point x="1146.358024691358" y="0.0" type="line"/>
      <point x="1296.1851851851852" y="0.0" type="line"/>
      <point x="1281.0740740740741" y="1344.5925925925926" type="line"/>
      <point x="1097.888888888889" y="1344.5925925925926" type="line"/>
      <point x="837.7530864197531" y="612.4197530864197" type="line"/>
      <point x="741.0987654320987" y="333.51851851851853" type="line"/>
      <point x="733.0987654320987" y="333.51851851851853" type="line"/>
      <point x="635.4444444444445" y="612.4197530864197" type="line"/>
      <point x="371.8395061728395" y="1344.5925925925926" type="line"/>
      <point x="187.65432098765433" y="1344.5925925925926" type="line"/>
    </contour>
  </outline>
</glyph>
<glyph name="N" format="2">
  <advance width="1310.567901234568"/>
  <unicode hex="004E"/>
  <anchor x="655.283950617284" y="0.0" name="bottom"/>
  <anchor x="655.283950617284" y="1344.5925925925926" name="top"/>
  <outline>
    <contour>
      <point x="180.71604938271605" y="0.0" type="line"/>
      <point x="331.01234567901236" y="0.0" type="line"/>
      <point x="331.01234567901236" y="724.4567901234568" type="line"/>
      <point x="331.01234567901236" y="864.0370370370371"/>
      <point x="319.3703703703704" y="1003.9629629629629"/>
      <point x="310.6666666666667" y="1138.6049382716049" type="curve"/>
      <point x="319.6666666666667" y="1138.6049382716049" type="line"/>
      <point x="465.55555555555554" y="862.7283950617284" type="line"/>
      <point x="964.3827160493827" y="0.0" type="line"/>
      <point x="1128.851851851852" y="0.0" type="line"/>
      <point x="1128.851851851852" y="1344.5925925925926" type="line"/>
      <point x="978.5555555555555" y="1344.5925925925926" type="line"/>
      <point x="978.5555555555555" y="628.4320987654321" type="line"/>
      <point x="978.5555555555555" y="489.08641975308643"/>
      <point x="991.1975308641976" y="340.69135802469134"/>
      <point x="998.9012345679013" y="205.98765432098764" type="curve"/>
      <point x="990.9012345679013" y="205.98765432098764" type="line"/>
      <point x="844.7777777777778" y="483.3333333333333" type="line"/>
      <point x="343.95061728395063" y="1344.5925925925926" type="line"/>
      <point x="180.71604938271605" y="1344.5925925925926" type="line"/>
    </contour>
  </outline>
</glyph>
<glyph name="O" format="2">
  <advance width="1345.2716049382716"/>
  <unicode hex="004F"/>
  <anchor x="671.5185185185185" y="-276.5432098765432" name="btm"/>
  <anchor x="671.5185185185185" y="1404.6913580246915" name="top"/>
  <outline>
    <contour>
      <point x="671.5185185185185" y="-25.0" type="curve" smooth="yes"/>
      <point x="1014.7407407407408" y="-25.0"/>
      <point x="1243.20987654321" y="235.65432098765433"/>
      <point x="1243.20987654321" y="675.7654320987655" type="curve" smooth="yes"/>
      <point x="1243.20987654321" y="1113.4074074074074"/>
      <point x="1014.7407407407408" y="1368.8271604938273"/>
      <point x="671.5185185185185" y="1368.8271604938273" type="curve" smooth="yes"/>
      <point x="327.5308641975309" y="1368.8271604938273"/>
      <point x="100.82716049382717" y="1114.641975308642"/>
      <point x="100.82716049382717" y="675.7654320987655" type="curve" smooth="yes"/>
      <point x="100.82716049382717" y="235.65432098765433"/>
      <point x="327.5308641975309" y="-25.0"/>
    </contour>
    <contour>
      <point x="671.5185185185185" y="114.95061728395062" type="curve" smooth="yes"/>
      <point x="418.4938271604938" y="114.95061728395062"/>
      <point x="264.2962962962963" y="326.679012345679"/>
      <point x="264.2962962962963" y="675.7654320987655" type="curve" smooth="yes"/>
      <point x="264.2962962962963" y="1023.3827160493827"/>
      <point x="418.4938271604938" y="1229.8765432098764"/>
      <point x="671.5185185185185" y="1229.8765432098764" type="curve" smooth="yes"/>
      <point x="922.5432098765432" y="1229.8765432098764"/>
      <point x="1079.7407407407406" y="1023.3827160493827"/>
      <point x="1079.7407407407406" y="675.7654320987655" type="curve" smooth="yes"/>
      <point x="1079.7407407407406" y="326.679012345679"/>
      <point x="922.5432098765432" y="114.95061728395062"/>
    </contour>
  </outline>
</glyph>
<glyph name="P" format="2">
  <advance width="1162.320987654321"/>
  <unicode hex="0050"/>
  <anchor x="581.1604938271605" y="0.0" name="bottom"/>
  <anchor x="581.1604938271605" y="1344.5925925925926" name="top"/>
  <outline>
    <contour>
      <point x="180.71604938271605" y="0.0" type="line"/>
      <point x="339.95061728395063" y="0.0" type="line"/>
      <point x="339.95061728395063" y="527.0987654320987" type="line"/>
      <point x="595.4444444444445" y="527.0987654320987" type="line"/>
      <point x="895.5061728395061" y="527.0987654320987"/>
      <point x="1079.4938271604938" y="667.9753086419753"/>
      <point x="1079.4938271604938" y="947.1975308641976" type="curve" smooth="yes"/>
      <point x="1079.4938271604938" y="1239.6543209876543"/>
      <point x="898.9135802469136" y="1344.5925925925926"/>
      <point x="593.4444444444445" y="1344.5925925925926" type="curve" smooth="yes"/>
      <point x="180.71604938271605" y="1344.5925925925926" type="line"/>
    </contour>
    <contour>
      <point x="339.95061728395063" y="656.8765432098766" type="line"/>
      <point x="339.95061728395063" y="1216.0493827160494" type="line"/>
      <point x="571.8518518518518" y="1216.0493827160494" type="line"/>
      <point x="816.5308641975308" y="1216.0493827160494"/>
      <point x="922.1975308641976" y="1147.2222222222222"/>
      <point x="922.1975308641976" y="947.1975308641976" type="curve" smooth="yes"/>
      <point x="922.1975308641976" y="751.9382716049382"/>
      <point x="821.0617283950618" y="656.8765432098766"/>
      <point x="572.9135802469136" y="656.8765432098766" type="curve" smooth="yes"/>
    </contour>
  </outline>
</glyph>
<glyph name="Q" format="2">
  <advance width="1345.2716049382716"/>
  <unicode hex="0051"/>
  <anchor x="672.7530864197531" y="0.0" name="bottom"/>
  <anchor x="672.7530864197531" y="1344.5925925925926" name="top"/>
  <outline>
    <contour>
      <point x="1235.5555555555557" y="-178.679012345679" type="line"/>
      <point x="1199.320987654321" y="-188.91358024691357"/>
      <point x="1148.679012345679" y="-199.14814814814815"/>
      <point x="1088.9135802469136" y="-199.14814814814815" type="curve" smooth="yes"/>
      <point x="939.074074074074" y="-199.14814814814815"/>
      <point x="809.6666666666666" y="-138.1358024691358"/>
      <point x="762.0123456790124" y="-16.88888888888889" type="curve"/>
      <point x="1049.2592592592594" y="28.333333333333332"/>
      <point x="1242.2716049382716" y="280.58024691358025"/>
      <point x="1242.2716049382716" y="678.2962962962963" type="curve" smooth="yes"/>
      <point x="1242.2716049382716" y="1113.1728395061727"/>
      <point x="1013.0370370370371" y="1368.8271604938273"/>
      <point x="669.0493827160494" y="1368.8271604938273" type="curve" smooth="yes"/>
      <point x="326.0617283950617" y="1368.8271604938273"/>
      <point x="98.35802469135803" y="1115.1728395061727"/>
      <point x="98.35802469135803" y="678.2962962962963" type="curve" smooth="yes"/>
      <point x="98.35802469135803" y="274.9382716049383"/>
      <point x="298.01234567901236" y="19.987654320987655"/>
      <point x="590.3086419753087" y="-18.82716049382716" type="curve"/>
      <point x="658.5432098765432" y="-202.5185185185185"/>
      <point x="827.4074074074074" y="-332.4567901234568"/>
      <point x="1072.3333333333333" y="-332.4567901234568" type="curve" smooth="yes"/>
      <point x="1149.851851851852" y="-332.4567901234568"/>
      <point x="1227.1975308641975" y="-316.75308641975306"/>
      <point x="1266.6049382716049" y="-303.34567901234567" type="curve"/>
    </contour>
    <contour>
      <point x="669.0493827160494" y="114.95061728395062" type="curve" smooth="yes"/>
      <point x="418.25925925925924" y="114.95061728395062"/>
      <point x="262.5925925925926" y="330.44444444444446"/>
      <point x="262.5925925925926" y="678.2962962962963" type="curve" smooth="yes"/>
      <point x="262.5925925925926" y="1024.148148148148"/>
      <point x="418.25925925925924" y="1229.8765432098764"/>
      <point x="669.0493827160494" y="1229.8765432098764" type="curve" smooth="yes"/>
      <point x="919.8395061728395" y="1229.8765432098764"/>
      <point x="1076.2716049382716" y="1024.148148148148"/>
      <point x="1076.2716049382716" y="678.2962962962963" type="curve" smooth="yes"/>
      <point x="1076.2716049382716" y="330.44444444444446"/>
      <point x="919.8395061728395" y="114.95061728395062"/>
    </contour>
  </outline>
</glyph>
<glyph name="R" format="2">
  <advance width="1172.7283950617284"/>
  <unicode hex="0052"/>
  <anchor x="586.8641975308642" y="0.0" name="bottom"/>
  <anchor x="586.8641975308642" y="1344.5925925925926" name="top"/>
  <outline>
    <contour>
      <point x="180.71604938271605" y="0.0" type="line"/>
      <point x="339.95061728395063" y="0.0" type="line"/>
      <point x="339.95061728395063" y="576.0987654320987" type="line"/>
      <point x="595.395061728395" y="576.0987654320987" type="line"/>
      <point x="918.604938271605" y="0.0" type="line"/>
      <point x="1099.716049382716" y="0.0" type="line"/>
      <point x="758.9876543209876" y="594.5555555555555" type="line"/>
      <point x="946.4197530864197" y="636.8395061728395"/>
      <point x="1061.962962962963" y="751.3086419753087"/>
      <point x="1061.962962962963" y="972.6666666666666" type="curve" smooth="yes"/>
      <point x="1061.962962962963" y="1254.2962962962963"/>
      <point x="878.4444444444445" y="1344.5925925925926"/>
      <point x="607.0370370370371" y="1344.5925925925926" type="curve" smooth="yes"/>
      <point x="180.71604938271605" y="1344.5925925925926" type="line"/>
    </contour>
    <contour>
      <point x="339.95061728395063" y="705.1111111111111" type="line"/>
      <point x="339.95061728395063" y="1216.0493827160494" type="line"/>
      <point x="582.0370370370371" y="1216.0493827160494" type="line"/>
      <point x="796.2962962962963" y="1216.0493827160494"/>
      <point x="902.9012345679013" y="1159.0987654320988"/>
      <point x="902.9012345679013" y="972.6666666666666" type="curve" smooth="yes"/>
      <point x="902.9012345679013" y="783.5308641975308"/>
      <point x="795.5925925925926" y="705.1111111111111"/>
      <point x="581.0987654320987" y="705.1111111111111" type="curve" smooth="yes"/>
    </contour>
  </outline>
</glyph>
<glyph name="S" format="2">
  <advance width="1078.5061728395062"/>
  <unicode hex="0053"/>
  <anchor x="539.7530864197531" y="0.0" name="bottom"/>
  <anchor x="539.7530864197531" y="1344.5925925925926" name="top"/>
  <outline>
    <contour>
      <point x="527.3703703703703" y="797.0493827160494" type="line"/>
      <point x="423.7283950617284" y="842.283950617284"/>
      <point x="304.95061728395063" y="899.4074074074074"/>
      <point x="304.95061728395063" y="1032.6049382716049" type="curve" smooth="yes"/>
      <point x="304.95061728395063" y="1158.037037037037"/>
      <point x="410.55555555555554" y="1229.8765432098764"/>
      <point x="565.7530864197531" y="1229.8765432098764" type="curve" smooth="yes"/>
      <point x="691.641975308642" y="1229.8765432098764"/>
      <point x="790.5308641975308" y="1185.5185185185185"/>
      <point x="871.4691358024692" y="1107.1604938271605" type="curve"/>
      <point x="956.3827160493827" y="1209.6543209876543" type="line"/>
      <point x="864.0987654320987" y="1306.2345679012346"/>
      <point x="726.7530864197531" y="1368.8271604938273"/>
      <point x="566.2222222222222" y="1368.8271604938273" type="curve" smooth="yes"/>
      <point x="325.5925925925926" y="1368.8271604938273"/>
      <point x="145.4814814814815" y="1226.5432098765432"/>
      <point x="145.4814814814815" y="1023.1975308641976" type="curve" smooth="yes"/>
      <point x="145.4814814814815" y="825.4320987654321"/>
      <point x="291.3703703703704" y="725.3827160493827"/>
      <point x="415.48148148148147" y="672.9135802469136" type="curve" smooth="yes"/>
      <point x="609.4320987654321" y="586.7901234567901" type="line"/>
      <point x="737.7901234567901" y="529.4938271604939"/>
      <point x="842.7407407407408" y="482.30864197530866"/>
      <point x="842.7407407407408" y="340.04938271604937" type="curve" smooth="yes"/>
      <point x="842.7407407407408" y="204.55555555555554"/>
      <point x="734.7777777777778" y="114.95061728395062"/>
      <point x="553.1111111111111" y="114.95061728395062" type="curve" smooth="yes"/>
      <point x="409.0987654320988" y="114.95061728395062"/>
      <point x="277.44444444444446" y="176.30864197530863"/>
      <point x="179.91358024691357" y="278.4938271604938" type="curve"/>
      <point x="85.35802469135803" y="168.35802469135803" type="line"/>
      <point x="201.17283950617283" y="47.65432098765432"/>
      <point x="358.75308641975306" y="-25.0"/>
      <point x="549.8765432098766" y="-25.0" type="curve" smooth="yes"/>
      <point x="829.7407407407408" y="-25.0"/>
      <point x="1004.4444444444445" y="140.5185185185185"/>
      <point x="1004.4444444444445" y="352.69135802469134" type="curve" smooth="yes"/>
      <point x="1004.4444444444445" y="553.0493827160494"/>
      <point x="876.2592592592592" y="646.1604938271605"/>
      <point x="721.320987654321" y="713.1604938271605" type="curve" smooth="yes"/>
    </contour>
  </outline>
</glyph>
<glyph name="T" format="2">
  <advance width="1083.037037037037"/>
  <unicode hex="0054"/>
  <anchor x="541.5185185185185" y="0.0" name="bottom"/>
  <anchor x="541.5185185185185" y="672.2962962962963" name="center"/>
  <anchor x="541.5185185185185" y="1344.5925925925926" name="top"/>
  <outline>
    <contour>
      <point x="462.9012345679012" y="0.0" type="line"/>
      <point x="620.9012345679013" y="0.0" type="line"/>
      <point x="620.9012345679013" y="1210.8765432098764" type="line"/>
      <point x="1031.2716049382716" y="1210.8765432098764" type="line"/>
      <point x="1031.2716049382716" y="1344.5925925925926" type="line"/>
      <point x="51.53086419753087" y="1344.5925925925926" type="line"/>
      <point x="51.53086419753087" y="1210.8765432098764" type="line"/>
      <point x="462.9012345679012" y="1210.8765432098764" type="line"/>
    </contour>
  </outline>
</glyph>
<glyph name="U" format="2">
  <advance width="1306.8024691358025"/>
  <unicode hex="0055"/>
  <anchor x="653.5185185185185" y="0.0" name="bottom"/>
  <anchor x="1176.0987654320988" y="10.0" name="ogonek"/>
  <anchor x="653.5185185185185" y="1344.5925925925926" name="top"/>
  <anchor x="1286.8024691358025" y="1344.5925925925926" name="topright"/>
  <outline>
    <contour>
      <point x="1132.320987654321" y="1344.5925925925926" type="line"/>
      <point x="980.7901234567901" y="1344.5925925925926" type="line"/>
      <point x="980.7901234567901" y="540.925925925926" type="line"/>
      <point x="980.7901234567901" y="212.8395061728395"/>
      <point x="834.5308641975308" y="114.95061728395062"/>
      <point x="652.7530864197531" y="114.95061728395062" type="curve" smooth="yes"/>
      <point x="476.2716049382716" y="114.95061728395062"/>
      <point x="333.71604938271605" y="213.8395061728395"/>
      <point x="333.71604938271605" y="540.925925925926" type="curve" smooth="yes"/>
      <point x="333.71604938271605" y="1344.5925925925926" type="line"/>
      <point x="174.71604938271605" y="1344.5925925925926" type="line"/>
      <point x="174.71604938271605" y="542.679012345679" type="line"/>
      <point x="174.71604938271605" y="116.09876543209876"/>
      <point x="385.4320987654321" y="-25.0"/>
      <point x="652.7530864197531" y="-25.0" type="curve" smooth="yes"/>
      <point x="920.3086419753087" y="-25.0"/>
      <point x="1132.320987654321" y="114.09876543209876"/>
      <point x="1132.320987654321" y="542.679012345679" type="curve" smooth="yes"/>
    </contour>
  </outline>
</glyph>
<glyph name="V" format="2">
  <advance width="1035.3703703703704"/>
  <unicode hex="0056"/>
  <anchor x="517.8024691358024" y="0.0" name="bottom"/>
  <anchor x="517.8024691358024" y="1344.5925925925926" name="top"/>
  <outline>
    <contour>
      <point x="427.60493827160496" y="0.0" type="line"/>
      <point x="611.2962962962963" y="0.0" type="line"/>
      <point x="1039.2469135802469" y="1344.5925925925926" type="line"/>
      <point x="878.3086419753087" y="1344.5925925925926" type="line"/>
      <point x="656.7530864197531" y="608.8395061728395" type="line"/>
      <point x="610.925925925926" y="449.48148148148147"/>
      <point x="576.8641975308642" y="321.77777777777777"/>
      <point x="526.0370370370371" y="163.1851851851852" type="curve"/>
      <point x="518.0370370370371" y="163.1851851851852" type="line"/>
      <point x="467.44444444444446" y="321.77777777777777"/>
      <point x="434.14814814814815" y="449.48148148148147"/>
      <point x="386.32098765432096" y="608.8395061728395" type="curve" smooth="yes"/>
      <point x="164.2962962962963" y="1344.5925925925926" type="line"/>
      <point x="-3.641975308641975" y="1344.5925925925926" type="line"/>
    </contour>
  </outline>
</glyph>
<glyph name="W" format="2">
  <advance width="1593.148148148148"/>
  <unicode hex="0057"/>
  <anchor x="796.6913580246913" y="0.0" name="bottom"/>
  <anchor x="796.6913580246913" y="1344.5925925925926" name="top"/>
  <outline>
    <contour>
      <point x="330.4938271604938" y="0.0" type="line"/>
      <point x="517.8888888888889" y="0.0" type="line"/>
      <point x="724.5679012345679" y="827.679012345679" type="line"/>
      <point x="748.0987654320987" y="932.2098765432099"/>
      <point x="771.1604938271605" y="1028.6172839506173"/>
      <point x="792.6913580246913" y="1132.9135802469136" type="curve"/>
      <point x="800.925925925926" y="1132.9135802469136" type="line"/>
      <point x="820.7530864197531" y="1028.6172839506173"/>
      <point x="843.283950617284" y="932.2098765432099"/>
      <point x="866.0493827160494" y="827.679012345679" type="curve"/>
      <point x="1076.4938271604938" y="0.0" type="line"/>
      <point x="1265.8271604938273" y="0.0" type="line"/>
      <point x="1548.7283950617284" y="1344.5925925925926" type="line"/>
      <point x="1394.9012345679012" y="1344.5925925925926" type="line"/>
      <point x="1248.7037037037037" y="603.3086419753087" type="line"/>
      <point x="1223.8765432098764" y="459.2469135802469"/>
      <point x="1197.8148148148148" y="314.48148148148147"/>
      <point x="1171.2222222222222" y="167.9506172839506" type="curve"/>
      <point x="1162.2222222222222" y="167.9506172839506" type="line"/>
      <point x="1129.9259259259259" y="314.48148148148147"/>
      <point x="1096.8641975308642" y="460.48148148148147"/>
      <point x="1064.567901234568" y="603.3086419753087" type="curve"/>
      <point x="873.9012345679013" y="1344.5925925925926" type="line"/>
      <point x="728.1234567901234" y="1344.5925925925926" type="line"/>
      <point x="537.4567901234568" y="603.3086419753087" type="line"/>
      <point x="504.1604938271605" y="459.01234567901236"/>
      <point x="471.0987654320988" y="313.48148148148147"/>
      <point x="441.8024691358025" y="167.9506172839506" type="curve"/>
      <point x="433.5679012345679" y="167.9506172839506" type="line"/>
      <point x="406.74074074074076" y="313.48148148148147"/>
      <point x="379.679012345679" y="458.01234567901236"/>
      <point x="351.32098765432096" y="603.3086419753087" type="curve"/>
      <point x="206.88888888888889" y="1344.5925925925926" type="line"/>
      <point x="42.123456790123456" y="1344.5925925925926" type="line"/>
    </contour>
  </outline>
</glyph>
<glyph name="X" format="2">
  <advance width="1029.888888888889"/>
  <unicode hex="0058"/>
  <anchor x="515.4444444444445" y="0.0" name="bottom"/>
  <anchor x="515.4444444444445" y="1344.5925925925926" name="top"/>
  <outline>
    <contour>
      <point x="27.296296296296298" y="0.0" type="line"/>
      <point x="192.17283950617283" y="0.0" type="line"/>
      <point x="392.32098765432096" y="370.0987654320988" type="line"/>
      <point x="427.61728395061726" y="437.0987654320988"/>
      <point x="461.679012345679" y="504.3333333333333"/>
      <point x="500.9753086419753" y="586.3333333333334" type="curve"/>
      <point x="508.9753086419753" y="586.3333333333334" type="line"/>
      <point x="552.8024691358024" y="504.3333333333333"/>
      <point x="590.0987654320987" y="437.0987654320988"/>
      <point x="625.8641975308642" y="370.0987654320988" type="curve" smooth="yes"/>
      <point x="829.2469135802469" y="0.0" type="line"/>
      <point x="1003.8271604938271" y="0.0" type="line"/>
      <point x="611.1111111111111" y="687.1234567901234" type="line"/>
      <point x="977.2962962962963" y="1344.5925925925926" type="line"/>
      <point x="810.6543209876543" y="1344.5925925925926" type="line"/>
      <point x="625.2098765432099" y="991.9629629629629" type="line"/>
      <point x="592.679012345679" y="930.9629629629629"/>
      <point x="566.9135802469136" y="876.0864197530864"/>
      <point x="530.6172839506173" y="799.1481481481482" type="curve"/>
      <point x="521.6172839506173" y="799.1481481481482" type="line"/>
      <point x="478.32098765432096" y="876.0864197530864"/>
      <point x="450.08641975308643" y="930.9629629629629"/>
      <point x="416.55555555555554" y="991.9629629629629" type="curve" smooth="yes"/>
      <point x="226.64197530864197" y="1344.5925925925926" type="line"/>
      <point x="51.82716049382716" y="1344.5925925925926" type="line"/>
      <point x="420.24691358024694" y="694.8271604938271" type="line"/>
    </contour>
  </outline>
</glyph>
<glyph name="Y" format="2">
  <advance width="954.716049382716"/>
  <unicode hex="0059"/>
  <anchor x="477.74074074074076" y="0.0" name="bottom"/>
  <anchor x="477.74074074074076" y="1344.5925925925926" name="top"/>
  <outline>
    <contour>
      <point x="397.358024691358" y="0.0" type="line"/>
      <point x="556.1234567901234" y="0.0" type="line"/>
      <point x="556.1234567901234" y="524.4320987654321" type="line"/>
      <point x="960.1234567901234" y="1344.5925925925926" type="line"/>
      <point x="796.9506172839506" y="1344.5925925925926" type="line"/>
      <point x="617.925925925926" y="959.1481481481482" type="line"/>
      <point x="576.6296296296297" y="860.1481481481482"/>
      <point x="527.8024691358024" y="766.1481481481482"/>
      <point x="481.9753086419753" y="666.679012345679" type="curve"/>
      <point x="473.2098765432099" y="666.679012345679" type="line"/>
      <point x="426.14814814814815" y="766.1481481481482"/>
      <point x="384.32098765432096" y="860.1481481481482"/>
      <point x="341.25925925925924" y="959.1481481481482" type="curve" smooth="yes"/>
      <point x="163.0" y="1344.5925925925926" type="line"/>
      <point x="-7.172839506172839" y="1344.5925925925926" type="line"/>
      <point x="397.358024691358" y="524.4320987654321" type="line"/>
    </contour>
  </outline>
</glyph>
<glyph name="Z" format="2">
  <advance width="1092.8765432098764"/>
  <unicode hex="005A"/>
  <anchor x="546.9382716049382" y="0.0" name="bottom"/>
  <anchor x="546.9382716049382" y="1344.5925925925926" name="top"/>
  <outline>
    <contour>
      <point x="87.12345679012346" y="0.0" type="line"/>
      <point x="1009.7530864197531" y="0.0" type="line"/>
      <point x="1009.7530864197531" y="134.9506172839506" type="line"/>
      <point x="284.1111111111111" y="134.9506172839506" type="line"/>
      <point x="1003.2222222222222" y="1251.0987654320988" type="line"/>
      <point x="1003.2222222222222" y="1344.5925925925926" type="line"/>
      <point x="152.4814814814815" y="1344.5925925925926" type="line"/>
      <point x="152.4814814814815" y="1210.8765432098764" type="line"/>
      <point x="807.5308641975308" y="1210.8765432098764" type="line"/>
      <point x="87.12345679012346" y="94.72839506172839" type="line"/>
    </contour>
  </outline>
</glyph>
<glyph name="bracketleft" format="2">
  <advance width="612.4320987654321"/>
  <unicode hex="005B"/>
  <outline>
    <contour>
      <point x="193.88888888888889" y="-311.0" type="line"/>
      <point x="553.5061728395061" y="-311.0" type="line"/>
      <point x="553.5061728395061" y="-220.85185185185185" type="line"/>
      <point x="311.96296296296293" y="-220.85185185185185" type="line"/>
      <point x="311.96296296296293" y="1357.0864197530864" type="line"/>
      <point x="553.5061728395061" y="1357.0864197530864" type="line"/>
      <point x="553.5061728395061" y="1450.0" type="line"/>
      <point x="193.88888888888889" y="1450.0" type="line"/>
    </contour>
  </outline>
</glyph>
<glyph name="backslash" format="2">
  <advance width="719.4814814814815"/>
  <unicode hex="005C"/>
  <outline>
    <contour>
      <point x="582.7530864197531" y="-328.0" type="line"/>
      <point x="699.5432098765432" y="-328.0" type="line"/>
      <point x="140.2469135802469" y="1454.0" type="line"/>
      <point x="25.45679012345679" y="1454.0" type="line"/>
    </contour>
  </outline>
</glyph>
<glyph name="asciicircum" format="2">
  <advance width="1012.1481481481482"/>
  <unicode hex="005E"/>
  <outline>
    <contour>
      <point x="124.95061728395062" y="583.9506172839506" type="line"/>
      <point x="262.7283950617284" y="583.9506172839506" type="line"/>
      <point x="399.8641975308642" y="952.8765432098766" type="line"/>
      <point x="501.9259259259259" y="1225.111111111111" type="line"/>
      <point x="510.69135802469134" y="1225.111111111111" type="line"/>
      <point x="611.5185185185185" y="952.8765432098766" type="line"/>
      <point x="749.6543209876543" y="583.9506172839506" type="line"/>
      <point x="887.1975308641976" y="583.9506172839506" type="line"/>
      <point x="576.4938271604939" y="1372.0" type="line"/>
      <point x="435.12345679012344" y="1372.0" type="line"/>
    </contour>
  </outline>
</glyph>
<glyph name="underscore" format="2">
  <advance width="1024.0"/>
  <unicode hex="005F"/>
  <outline>
    <contour>
      <point x="17.962962962962965" y="-255.22222222222223" type="line"/>
      <point x="1008.3827160493827" y="-255.22222222222223" type="line"/>
      <point x="1008.3827160493827" y="-147.77777777777777" type="line"/>
      <point x="17.962962962962965" y="-147.77777777777777" type="line"/>
    </contour>
  </outline>
</glyph>
<glyph name="grave" format="2">
  <advance width="1107.7530864197531"/>
  <unicode hex="0060"/>
  <anchor x="624.4074074074074" y="991.3580246913581" name="_top"/>
  <outline>
    <contour>
      <point x="562.9012345679013" y="1173.469135802469" type="line"/>
      <point x="683.8024691358024" y="1173.469135802469" type="line"/>
      <point x="498.5061728395062" y="1460.0493827160494" type="line"/>
      <point x="334.38271604938274" y="1460.0493827160494" type="line"/>
    </contour>
  </outline>
</glyph>
<glyph name="a" format="2">
  <advance width="1044.567901234568"/>
  <unicode hex="0061"/>
  <anchor x="511.2098765432099" y="-276.5432098765432" name="btm"/>
  <anchor x="511.2098765432099" y="991.3580246913581" name="top"/>
  <outline>
    <contour>
      <point x="749.4320987654321" y="119.88888888888889" type="line"/>
      <point x="763.604938271605" y="0.0" type="line"/>
      <point x="892.320987654321" y="0.0" type="line"/>
      <point x="892.320987654321" y="613.5432098765432" type="line"/>
      <point x="892.320987654321" y="863.925925925926"/>
      <point x="793.395061728395" y="1018.0493827160494"/>
      <point x="550.8765432098766" y="1018.0493827160494" type="curve" smooth="yes"/>
      <point x="390.87654320987656" y="1018.0493827160494"/>
      <point x="247.7037037037037" y="957.6296296296297"/>
      <point x="159.30864197530863" y="900.8148148148148" type="curve"/>
      <point x="222.17283950617283" y="791.8518518518518" type="line"/>
      <point x="298.22222222222223" y="844.5555555555555"/>
      <point x="406.641975308642" y="888.2716049382716"/>
      <point x="526.1851851851852" y="888.2716049382716" type="curve" smooth="yes"/>
      <point x="693.3827160493827" y="888.2716049382716"/>
      <point x="738.3827160493827" y="775.9382716049382"/>
      <point x="736.8518518518518" y="627.1111111111111" type="curve"/>
      <point x="307.6666666666667" y="598.6296296296297"/>
      <point x="121.48148148148148" y="474.28395061728395"/>
      <point x="121.48148148148148" y="257.75308641975306" type="curve" smooth="yes"/>
      <point x="121.48148148148148" y="77.92592592592592"/>
      <point x="247.30864197530863" y="-25.0"/>
      <point x="419.82716049382714" y="-25.0" type="curve" smooth="yes"/>
      <point x="555.8888888888889" y="-25.0"/>
      <point x="648.604938271605" y="41.358024691358025"/>
      <point x="745.1975308641976" y="119.88888888888889" type="curve"/>
    </contour>
    <contour>
      <point x="736.8518518518518" y="238.50617283950618" type="line"/>
      <point x="637.8888888888889" y="150.19753086419752"/>
      <point x="560.1111111111111" y="101.30864197530863"/>
      <point x="461.0987654320988" y="101.30864197530863" type="curve" smooth="yes"/>
      <point x="353.85185185185185" y="101.30864197530863"/>
      <point x="275.30864197530866" y="150.19753086419752"/>
      <point x="275.30864197530866" y="267.39506172839504" type="curve" smooth="yes"/>
      <point x="275.30864197530866" y="399.12345679012344"/>
      <point x="387.8641975308642" y="501.18518518518516"/>
      <point x="736.8518518518518" y="523.9629629629629" type="curve"/>
    </contour>
  </outline>
</glyph>
<glyph name="b" format="2">
  <advance width="1133.3950617283951"/>
  <unicode hex="0062"/>
  <anchor x="602.4074074074074" y="-276.5432098765432" name="btm"/>
  <anchor x="721.7530864197531" y="991.3580246913581" name="top"/>
  <outline>
    <contour>
      <point x="327.0740740740741" y="1058.283950617284" type="line"/>
      <point x="327.0740740740741" y="1460.716049382716" type="line"/>
      <point x="171.07407407407408" y="1460.716049382716" type="line"/>
      <point x="171.07407407407408" y="0.0" type="line"/>
      <point x="296.61728395061726" y="0.0" type="line"/>
      <point x="310.0246913580247" y="97.17283950617283" type="line"/>
      <point x="317.0246913580247" y="97.17283950617283" type="line"/>
      <point x="405.08641975308643" y="20.0"/>
      <point x="509.2098765432099" y="-25.0"/>
      <point x="604.2098765432099" y="-25.0" type="curve" smooth="yes"/>
      <point x="838.2716049382716" y="-25.0"/>
      <point x="1033.7407407407406" y="164.59259259259258"/>
      <point x="1033.7407407407406" y="510.87654320987656" type="curve" smooth="yes"/>
      <point x="1033.7407407407406" y="824.2222222222222"/>
      <point x="906.8641975308642" y="1018.0493827160494"/>
      <point x="641.0370370370371" y="1018.0493827160494" type="curve" smooth="yes"/>
      <point x="526.1481481481482" y="1018.0493827160494"/>
      <point x="414.7283950617284" y="957.395061728395"/>
      <point x="322.0740740740741" y="876.8024691358024" type="curve"/>
    </contour>
    <contour>
      <point x="327.0740740740741" y="746.1358024691358" type="line"/>
      <point x="424.91358024691357" y="837.3827160493827"/>
      <point x="514.5185185185185" y="886.8024691358024"/>
      <point x="604.0" y="886.8024691358024" type="curve" smooth="yes"/>
      <point x="802.0864197530864" y="886.8024691358024"/>
      <point x="871.2716049382716" y="736.2469135802469"/>
      <point x="871.2716049382716" y="509.4074074074074" type="curve" smooth="yes"/>
      <point x="871.2716049382716" y="256.0987654320988"/>
      <point x="752.1975308641976" y="107.24691358024691"/>
      <point x="578.8765432098766" y="107.24691358024691" type="curve" smooth="yes"/>
      <point x="509.98765432098764" y="107.24691358024691"/>
      <point x="418.14814814814815" y="135.60493827160494"/>
      <point x="327.0740740740741" y="214.6172839506173" type="curve"/>
    </contour>
  </outline>
</glyph>
<glyph name="c" format="2">
  <advance width="931.283950617284"/>
  <unicode hex="0063"/>
  <anchor x="541.679012345679" y="-276.5432098765432" name="btm"/>
  <anchor x="570.9382716049382" y="991.3580246913581" name="top"/>
  <outline>
    <contour>
      <point x="804.4197530864197" y="200.79012345679013" type="line"/>
      <point x="743.8271604938271" y="146.1358024691358"/>
      <point x="666.641975308642" y="105.24691358024691"/>
      <point x="570.4567901234568" y="105.24691358024691" type="curve" smooth="yes"/>
      <point x="382.1975308641975" y="105.24691358024691"/>
      <point x="256.41975308641975" y="257.91358024691357"/>
      <point x="256.41975308641975" y="496.87654320987656" type="curve" smooth="yes"/>
      <point x="256.41975308641975" y="738.3703703703703"/>
      <point x="390.55555555555554" y="888.0370370370371"/>
      <point x="574.395061728395" y="888.0370370370371" type="curve" smooth="yes"/>
      <point x="655.9382716049382" y="888.0370370370371"/>
      <point x="721.8271604938271" y="852.6172839506173"/>
      <point x="782.1851851851852" y="799.4938271604939" type="curve"/>
      <point x="860.925925925926" y="900.7530864197531" type="line"/>
      <point x="793.925925925926" y="964.4567901234568"/>
      <point x="700.0493827160494" y="1018.0493827160494"/>
      <point x="567.9876543209876" y="1018.0493827160494" type="curve" smooth="yes"/>
      <point x="314.4691358024691" y="1018.0493827160494"/>
      <point x="95.95061728395062" y="839.283950617284"/>
      <point x="95.95061728395062" y="496.87654320987656" type="curve" smooth="yes"/>
      <point x="95.95061728395062" y="159.0"/>
      <point x="295.0617283950617" y="-25.0"/>
      <point x="557.641975308642" y="-25.0" type="curve" smooth="yes"/>
      <point x="677.4691358024692" y="-25.0"/>
      <point x="786.5802469135803" y="19.88888888888889"/>
      <point x="874.9876543209876" y="98.06172839506173" type="curve"/>
    </contour>
  </outline>
</glyph>
<glyph name="d" format="2">
  <advance width="1133.3950617283951"/>
  <unicode hex="0064"/>
  <anchor x="529.2222222222222" y="-276.5432098765432" name="btm"/>
  <anchor x="1147.4938271604938" y="1008.8641975308642" name="car"/>
  <anchor x="345.4320987654321" y="991.3580246913581" name="top"/>
  <outline>
    <contour>
      <point x="818.9012345679013" y="118.65432098765432" type="line"/>
      <point x="832.074074074074" y="0.0" type="line"/>
      <point x="961.5555555555555" y="0.0" type="line"/>
      <point x="961.5555555555555" y="1460.716049382716" type="line"/>
      <point x="805.0864197530864" y="1460.716049382716" type="line"/>
      <point x="805.0864197530864" y="1074.111111111111" type="line"/>
      <point x="812.7901234567901" y="902.2222222222222" type="line"/>
      <point x="722.604938271605" y="974.283950617284"/>
      <point x="646.5432098765432" y="1018.0493827160494"/>
      <point x="530.2469135802469" y="1018.0493827160494" type="curve" smooth="yes"/>
      <point x="295.8888888888889" y="1018.0493827160494"/>
      <point x="97.65432098765432" y="827.0493827160494"/>
      <point x="97.65432098765432" y="495.87654320987656" type="curve" smooth="yes"/>
      <point x="97.65432098765432" y="155.64197530864197"/>
      <point x="261.12345679012344" y="-25.0"/>
      <point x="508.358024691358" y="-25.0" type="curve" smooth="yes"/>
      <point x="628.3086419753087" y="-25.0"/>
      <point x="734.604938271605" y="41.358024691358025"/>
      <point x="812.9012345679013" y="118.65432098765432" type="curve"/>
    </contour>
    <contour>
      <point x="805.0864197530864" y="247.91358024691357" type="line"/>
      <point x="719.2469135802469" y="154.19753086419752"/>
      <point x="636.4691358024692" y="107.24691358024691"/>
      <point x="541.4567901234568" y="107.24691358024691" type="curve" smooth="yes"/>
      <point x="355.9012345679012" y="107.24691358024691"/>
      <point x="258.12345679012344" y="250.50617283950618"/>
      <point x="258.12345679012344" y="497.34567901234567" type="curve" smooth="yes"/>
      <point x="258.12345679012344" y="734.1851851851852"/>
      <point x="384.25925925925924" y="886.8024691358024"/>
      <point x="555.8765432098766" y="886.8024691358024" type="curve" smooth="yes"/>
      <point x="639.358024691358" y="886.8024691358024"/>
      <point x="717.7777777777778" y="857.4444444444445"/>
      <point x="805.0864197530864" y="778.4320987654321" type="curve"/>
    </contour>
  </outline>
</glyph>
<glyph name="e" format="2">
  <advance width="1011.5679012345679"/>
  <unicode hex="0065"/>
  <anchor x="514.1111111111111" y="-276.5432098765432" name="btm"/>
  <anchor x="540.9012345679013" y="991.3580246913581" name="top"/>
  <outline>
    <contour>
      <point x="837.4074074074074" y="174.96296296296296" type="line"/>
      <point x="763.4074074074074" y="126.66666666666666"/>
      <point x="684.5802469135803" y="101.07407407407408"/>
      <point x="588.395061728395" y="101.07407407407408" type="curve" smooth="yes"/>
      <point x="392.3703703703704" y="101.07407407407408"/>
      <point x="260.41975308641975" y="238.7530864197531"/>
      <point x="250.2469135802469" y="463.30864197530866" type="curve"/>
      <point x="928.0987654320987" y="463.30864197530866" type="line"/>
      <point x="932.0987654320987" y="488.0740740740741"/>
      <point x="933.8024691358024" y="519.4197530864197"/>
      <point x="933.8024691358024" y="553.0" type="curve" smooth="yes"/>
      <point x="933.8024691358024" y="844.8271604938271"/>
      <point x="799.8024691358024" y="1018.8148148148148"/>
      <point x="538.641975308642" y="1018.8148148148148" type="curve" smooth="yes"/>
      <point x="302.2962962962963" y="1018.8148148148148"/>
      <point x="95.18518518518519" y="826.5185185185185"/>
      <point x="95.18518518518519" y="495.641975308642" type="curve" smooth="yes"/>
      <point x="95.18518518518519" y="163.46913580246914"/>
      <point x="305.82716049382714" y="-25.0"/>
      <point x="569.3456790123457" y="-25.0" type="curve" smooth="yes"/>
      <point x="706.4691358024692" y="-25.0"/>
      <point x="808.6913580246913" y="18.296296296296298"/>
      <point x="893.0370370370371" y="71.64197530864197" type="curve"/>
    </contour>
    <contour>
      <point x="249.01234567901236" y="567.8641975308642" type="line"/>
      <point x="268.01234567901236" y="776.6543209876543"/>
      <point x="392.679012345679" y="893.9753086419753"/>
      <point x="542.8765432098766" y="893.9753086419753" type="curve" smooth="yes"/>
      <point x="706.9506172839506" y="893.9753086419753"/>
      <point x="796.0864197530864" y="784.4320987654321"/>
      <point x="796.0864197530864" y="567.8641975308642" type="curve"/>
    </contour>
  </outline>
</glyph>
<glyph name="f" format="2">
  <advance width="588.5432098765432"/>
  <unicode hex="0066"/>
  <anchor x="290.8024691358025" y="-276.5432098765432" name="btm"/>
  <anchor x="192.12345679012344" y="1264.5802469135801" name="top"/>
  <outline>
    <contour>
      <point x="197.35802469135803" y="0.0" type="line"/>
      <point x="352.82716049382714" y="0.0" type="line"/>
      <point x="352.82716049382714" y="865.5061728395061" type="line"/>
      <point x="565.604938271605" y="865.5061728395061" type="line"/>
      <point x="565.604938271605" y="993.0493827160494" type="line"/>
      <point x="352.82716049382714" y="993.0493827160494" type="line"/>
      <point x="352.82716049382714" y="1161.9753086419753" type="line"/>
      <point x="352.82716049382714" y="1291.6913580246915"/>
      <point x="399.12345679012344" y="1357.9382716049383"/>
      <point x="494.30864197530866" y="1357.9382716049383" type="curve" smooth="yes"/>
      <point x="531.074074074074" y="1357.9382716049383"/>
      <point x="570.604938271605" y="1348.9382716049383"/>
      <point x="608.1358024691358" y="1332.641975308642" type="curve"/>
      <point x="642.9506172839506" y="1452.2469135802469" type="line"/>
      <point x="597.9506172839506" y="1470.7777777777778"/>
      <point x="539.8395061728395" y="1485.4814814814815"/>
      <point x="480.32098765432096" y="1485.4814814814815" type="curve" smooth="yes"/>
      <point x="289.2962962962963" y="1485.4814814814815"/>
      <point x="197.35802469135803" y="1364.679012345679"/>
      <point x="197.35802469135803" y="1162.8024691358025" type="curve" smooth="yes"/>
      <point x="197.35802469135803" y="992.8148148148148" type="line"/>
      <point x="62.123456790123456" y="983.5802469135803" type="line"/>
      <point x="62.123456790123456" y="865.5061728395061" type="line"/>
      <point x="197.35802469135803" y="865.5061728395061" type="line"/>
    </contour>
  </outline>
</glyph>
<glyph name="g" format="2">
  <advance width="1026.9135802469136"/>
  <unicode hex="0067"/>
  <anchor x="513.9012345679013" y="-276.5432098765432" name="btm"/>
  <anchor x="548.3456790123457" y="991.3580246913581" name="top"/>
  <outline>
    <contour>
      <point x="462.5679012345679" y="125.79012345679013" type="line"/>
      <point x="325.85185185185185" y="125.79012345679013"/>
      <point x="284.85185185185185" y="172.74074074074073"/>
      <point x="284.85185185185185" y="237.09876543209876" type="curve" smooth="yes"/>
      <point x="284.85185185185185" y="294.28395061728395"/>
      <point x="314.2716049382716" y="319.9382716049383"/>
      <point x="350.8641975308642" y="351.7654320987654" type="curve"/>
      <point x="395.8641975308642" y="328.9382716049383"/>
      <point x="449.75308641975306" y="315.87654320987656"/>
      <point x="502.87654320987656" y="315.87654320987656" type="curve" smooth="yes"/>
      <point x="709.925925925926" y="315.87654320987656"/>
      <point x="864.2716049382716" y="443.12345679012344"/>
      <point x="864.2716049382716" y="661.4074074074074" type="curve" smooth="yes"/>
      <point x="864.2716049382716" y="764.1975308641976"/>
      <point x="827.0864197530864" y="832.2592592592592"/>
      <point x="777.074074074074" y="874.320987654321" type="curve"/>
      <point x="985.2098765432099" y="874.320987654321" type="line"/>
      <point x="985.2098765432099" y="993.0493827160494" type="line"/>
      <point x="641.6913580246913" y="993.0493827160494" type="line"/>
      <point x="605.5185185185185" y="1007.283950617284"/>
      <point x="563.3456790123457" y="1018.0493827160494"/>
      <point x="502.87654320987656" y="1018.0493827160494" type="curve" smooth="yes"/>
      <point x="295.5308641975309" y="1018.0493827160494"/>
      <point x="132.30864197530863" y="897.5185185185185"/>
      <point x="132.30864197530863" y="666.1111111111111" type="curve" smooth="yes"/>
      <point x="132.30864197530863" y="542.1111111111111"/>
      <point x="195.77777777777777" y="450.34567901234567"/>
      <point x="260.71604938271605" y="397.58024691358025" type="curve"/>
      <point x="260.71604938271605" y="389.58024691358025" type="line"/>
      <point x="210.60493827160494" y="354.4074074074074"/>
      <point x="152.77777777777777" y="297.7037037037037"/>
      <point x="152.77777777777777" y="213.87654320987653" type="curve" smooth="yes"/>
      <point x="152.77777777777777" y="135.93827160493828"/>
      <point x="190.2469135802469" y="84.81481481481481"/>
      <point x="240.4814814814815" y="54.111111111111114" type="curve"/>
      <point x="240.4814814814815" y="46.111111111111114" type="line"/>
      <point x="149.2469135802469" y="-13.71604938271605"/>
      <point x="94.71604938271605" y="-104.65432098765432"/>
      <point x="94.71604938271605" y="-192.41975308641975" type="curve" smooth="yes"/>
      <point x="94.71604938271605" y="-362.82716049382714"/>
      <point x="235.93827160493828" y="-461.24691358024694"/>
      <point x="503.82716049382714" y="-461.24691358024694" type="curve" smooth="yes"/>
      <point x="817.6913580246913" y="-461.24691358024694"/>
      <point x="1002.2098765432099" y="-300.95061728395063"/>
      <point x="1002.2098765432099" y="-119.19753086419753" type="curve" smooth="yes"/>
      <point x="1002.2098765432099" y="45.148148148148145"/>
      <point x="905.7530864197531" y="125.79012345679013"/>
      <point x="671.3456790123457" y="125.79012345679013" type="curve" smooth="yes"/>
    </contour>
    <contour>
      <point x="644.9506172839506" y="0.0" type="line"/>
      <point x="782.0864197530864" y="0.0"/>
      <point x="850.1481481481482" y="-45.93827160493827"/>
      <point x="850.1481481481482" y="-140.9506172839506" type="curve" smooth="yes"/>
      <point x="850.1481481481482" y="-248.25925925925927"/>
      <point x="727.3703703703703" y="-349.69135802469134"/>
      <point x="527.1111111111111" y="-349.69135802469134" type="curve" smooth="yes"/>
      <point x="331.32098765432096" y="-349.69135802469134"/>
      <point x="233.49382716049382" y="-280.67901234567904"/>
      <point x="233.49382716049382" y="-171.90123456790124" type="curve" smooth="yes"/>
      <point x="233.49382716049382" y="-106.96296296296296"/>
      <point x="263.61728395061726" y="-36.65432098765432"/>
      <point x="338.69135802469134" y="15.530864197530864" type="curve"/>
      <point x="383.04938271604937" y="4.0"/>
      <point x="430.87654320987656" y="0.0"/>
      <point x="466.5679012345679" y="0.0" type="curve" smooth="yes"/>
    </contour>
    <contour>
      <point x="502.87654320987656" y="421.96296296296293" type="curve" smooth="yes"/>
      <point x="383.5061728395062" y="421.96296296296293"/>
      <point x="283.6666666666667" y="510.8024691358025"/>
      <point x="283.6666666666667" y="666.1111111111111" type="curve" smooth="yes"/>
      <point x="283.6666666666667" y="826.074074074074"/>
      <point x="375.5061728395062" y="903.0864197530864"/>
      <point x="502.87654320987656" y="903.0864197530864" type="curve" smooth="yes"/>
      <point x="629.4814814814815" y="903.0864197530864"/>
      <point x="720.5555555555555" y="828.1358024691358"/>
      <point x="720.5555555555555" y="666.1111111111111" type="curve" smooth="yes"/>
      <point x="720.5555555555555" y="508.8024691358025"/>
      <point x="619.9506172839506" y="421.96296296296293"/>
    </contour>
  </outline>
</glyph>
<glyph name="h" format="2">
  <advance width="1108.20987654321"/>
  <unicode hex="0068"/>
  <anchor x="563.7530864197531" y="-276.5432098765432" name="btm"/>
  <anchor x="244.39506172839506" y="1142.320987654321" name="top"/>
  <outline>
    <contour>
      <point x="171.07407407407408" y="0.0" type="line"/>
      <point x="327.0740740740741" y="0.0" type="line"/>
      <point x="327.0740740740741" y="724.074074074074" type="line"/>
      <point x="430.14814814814815" y="828.4444444444445"/>
      <point x="502.8641975308642" y="882.0987654320987"/>
      <point x="607.1111111111111" y="882.0987654320987" type="curve" smooth="yes"/>
      <point x="746.3086419753087" y="882.0987654320987"/>
      <point x="800.9629629629629" y="802.0246913580247"/>
      <point x="800.9629629629629" y="611.6543209876543" type="curve" smooth="yes"/>
      <point x="800.9629629629629" y="0.0" type="line"/>
      <point x="956.4320987654321" y="0.0" type="line"/>
      <point x="956.4320987654321" y="633.0" type="line"/>
      <point x="956.4320987654321" y="887.0"/>
      <point x="866.1975308641976" y="1018.0493827160494"/>
      <point x="654.5555555555555" y="1018.0493827160494" type="curve" smooth="yes"/>
      <point x="517.320987654321" y="1018.0493827160494"/>
      <point x="416.55555555555554" y="943.5185185185185"/>
      <point x="321.9012345679012" y="851.5679012345679" type="curve"/>
      <point x="327.0740740740741" y="1058.283950617284" type="line"/>
      <point x="327.0740740740741" y="1460.716049382716" type="line"/>
      <point x="171.07407407407408" y="1460.716049382716" type="line"/>
    </contour>
  </outline>
</glyph>
<glyph name="j" format="2">
  <advance width="500.14814814814815"/>
  <unicode hex="006A"/>
  <anchor x="141.69135802469137" y="-276.5432098765432" name="btm"/>
  <anchor x="226.65432098765433" y="991.3580246913581" name="top"/>
  <outline>
    <contour>
      <point x="329.0740740740741" y="993.0493827160494" type="line"/>
      <point x="172.30864197530863" y="993.0493827160494" type="line"/>
      <point x="172.30864197530863" y="-126.04938271604938" type="line"/>
      <point x="172.30864197530863" y="-247.11111111111111"/>
      <point x="148.60493827160494" y="-320.358024691358"/>
      <point x="48.41975308641975" y="-320.358024691358" type="curve" smooth="yes"/>
      <point x="12.358024691358025" y="-320.358024691358"/>
      <point x="-22.469135802469136" y="-311.82716049382714"/>
      <point x="-46.7037037037037" y="-303.82716049382714" type="curve"/>
      <point x="-79.28395061728395" y="-422.4320987654321" type="line"/>
      <point x="-45.34567901234568" y="-435.9012345679012"/>
      <point x="5.123456790123457" y="-447.9012345679012"/>
      <point x="64.4074074074074" y="-447.9012345679012" type="curve" smooth="yes"/>
      <point x="254.90123456790124" y="-447.9012345679012"/>
      <point x="329.0740740740741" y="-328.4567901234568"/>
      <point x="329.0740740740741" y="-127.64197530864197" type="curve" smooth="yes"/>
    </contour>
    <contour>
      <point x="252.69135802469137" y="1203.8395061728395" type="curve" smooth="yes"/>
      <point x="312.85185185185185" y="1203.8395061728395"/>
      <point x="362.9012345679012" y="1246.1234567901236"/>
      <point x="362.9012345679012" y="1307.111111111111" type="curve" smooth="yes"/>
      <point x="362.9012345679012" y="1370.8641975308642"/>
      <point x="312.85185185185185" y="1411.9135802469136"/>
      <point x="252.69135802469137" y="1411.9135802469136" type="curve" smooth="yes"/>
      <point x="190.2962962962963" y="1411.9135802469136"/>
      <point x="141.2469135802469" y="1370.8641975308642"/>
      <point x="141.2469135802469" y="1307.111111111111" type="curve" smooth="yes"/>
      <point x="141.2469135802469" y="1246.1234567901236"/>
      <point x="190.2962962962963" y="1203.8395061728395"/>
    </contour>
  </outline>
</glyph>
<glyph name="k" format="2">
  <advance width="1003.716049382716"/>
  <unicode hex="006B"/>
  <anchor x="558.7283950617284" y="-276.5432098765432" name="btm"/>
  <anchor x="329.8641975308642" y="1112.2962962962963" name="top"/>
  <outline>
    <contour>
      <point x="171.07407407407408" y="0.0" type="line"/>
      <point x="324.60493827160496" y="0.0" type="line"/>
      <point x="324.60493827160496" y="262.358024691358" type="line"/>
      <point x="516.925925925926" y="486.03703703703707" type="line"/>
      <point x="813.2469135802469" y="0.0" type="line"/>
      <point x="983.8888888888889" y="0.0" type="line"/>
      <point x="605.9506172839506" y="595.4691358024692" type="line"/>
      <point x="937.4691358024692" y="993.0493827160494" type="line"/>
      <point x="764.8271604938271" y="993.0493827160494" type="line"/>
      <point x="330.8395061728395" y="457.641975308642" type="line"/>
      <point x="324.60493827160496" y="457.641975308642" type="line"/>
      <point x="324.60493827160496" y="1460.716049382716" type="line"/>
      <point x="171.07407407407408" y="1460.716049382716" type="line"/>
    </contour>
  </outline>
</glyph>
<glyph name="l" format="2">
  <advance width="516.1481481481482"/>
  <unicode hex="006C"/>
  <anchor x="258.4567901234568" y="0.0" name="bottom"/>
  <anchor x="258.4567901234568" y="496.641975308642" name="center"/>
  <anchor x="258.4567901234568" y="993.0493827160494" name="top"/>
  <anchor x="496.14814814814815" y="993.0493827160494" name="topright"/>
  <outline>
    <contour>
      <point x="410.2469135802469" y="109.24691358024691" type="line"/>
      <point x="390.71604938271605" y="105.24691358024691"/>
      <point x="382.71604938271605" y="105.24691358024691"/>
      <point x="373.2469135802469" y="105.24691358024691" type="curve" smooth="yes"/>
      <point x="348.2469135802469" y="105.24691358024691"/>
      <point x="327.0740740740741" y="126.01234567901234"/>
      <point x="327.0740740740741" y="176.88888888888889" type="curve" smooth="yes"/>
      <point x="327.0740740740741" y="1460.716049382716" type="line"/>
      <point x="171.07407407407408" y="1460.716049382716" type="line"/>
      <point x="171.07407407407408" y="189.12345679012344" type="line"/>
      <point x="171.07407407407408" y="50.74074074074074"/>
      <point x="220.65432098765433" y="-25.0"/>
      <point x="340.14814814814815" y="-25.0" type="curve" smooth="yes"/>
      <point x="381.9012345679012" y="-25.0"/>
      <point x="409.71604938271605" y="-18.296296296296298"/>
      <point x="431.8888888888889" y="-8.827160493827162" type="curve"/>
    </contour>
  </outline>
</glyph>
<glyph name="m" format="2">
  <advance width="1692.4444444444443"/>
  <unicode hex="006D"/>
  <anchor x="857.1481481481482" y="-276.5432098765432" name="btm"/>
  <anchor x="851.9876543209876" y="991.3580246913581" name="top"/>
  <outline>
    <contour>
      <point x="171.07407407407408" y="0.0" type="line"/>
      <point x="327.0740740740741" y="0.0" type="line"/>
      <point x="327.0740740740741" y="724.074074074074" type="line"/>
      <point x="421.32098765432096" y="829.679012345679"/>
      <point x="507.5679012345679" y="882.0987654320987"/>
      <point x="584.0493827160494" y="882.0987654320987" type="curve" smooth="yes"/>
      <point x="720.9506172839506" y="882.0987654320987"/>
      <point x="775.1358024691358" y="803.9629629629629"/>
      <point x="775.1358024691358" y="613.5925925925926" type="curve" smooth="yes"/>
      <point x="775.1358024691358" y="0.0" type="line"/>
      <point x="930.604938271605" y="0.0" type="line"/>
      <point x="930.604938271605" y="727.074074074074" type="line"/>
      <point x="1025.6172839506173" y="832.679012345679"/>
      <point x="1108.0987654320988" y="882.0987654320987"/>
      <point x="1188.3456790123457" y="882.0987654320987" type="curve" smooth="yes"/>
      <point x="1323.4814814814815" y="882.0987654320987"/>
      <point x="1377.9012345679012" y="803.0246913580247"/>
      <point x="1377.9012345679012" y="612.6543209876543" type="curve" smooth="yes"/>
      <point x="1377.9012345679012" y="0.0" type="line"/>
      <point x="1533.9012345679012" y="0.0" type="line"/>
      <point x="1533.9012345679012" y="634.0" type="line"/>
      <point x="1533.9012345679012" y="888.0"/>
      <point x="1442.1358024691358" y="1018.0493827160494"/>
      <point x="1232.0246913580247" y="1018.0493827160494" type="curve" smooth="yes"/>
      <point x="1112.9135802469136" y="1018.0493827160494"/>
      <point x="1009.0864197530864" y="943.0493827160494"/>
      <point x="903.1975308641976" y="828.8641975308642" type="curve"/>
      <point x="863.4938271604939" y="949.0987654320987"/>
      <point x="788.0246913580247" y="1018.0493827160494"/>
      <point x="629.9629629629629" y="1018.0493827160494" type="curve" smooth="yes"/>
      <point x="512.8518518518518" y="1018.0493827160494"/>
      <point x="407.25925925925924" y="943.5185185185185"/>
      <point x="320.7283950617284" y="848.1604938271605" type="curve"/>
      <point x="313.4938271604938" y="848.1604938271605" type="line"/>
      <point x="300.32098765432096" y="993.0493827160494" type="line"/>
      <point x="171.07407407407408" y="993.0493827160494" type="line"/>
    </contour>
  </outline>
</glyph>
<glyph name="n" format="2">
  <advance width="1115.2716049382716"/>
  <unicode hex="006E"/>
  <anchor x="568.679012345679" y="-276.5432098765432" name="btm"/>
  <anchor x="597.0" y="991.3580246913581" name="top"/>
  <outline>
    <contour>
      <point x="171.07407407407408" y="0.0" type="line"/>
      <point x="327.0740740740741" y="0.0" type="line"/>
      <point x="327.0740740740741" y="724.074074074074" type="line"/>
      <point x="430.14814814814815" y="828.4444444444445"/>
      <point x="502.8641975308642" y="882.0987654320987"/>
      <point x="607.1111111111111" y="882.0987654320987" type="curve" smooth="yes"/>
      <point x="749.3086419753087" y="882.0987654320987"/>
      <point x="800.9629629629629" y="803.0246913580247"/>
      <point x="800.9629629629629" y="612.6543209876543" type="curve" smooth="yes"/>
      <point x="800.9629629629629" y="0.0" type="line"/>
      <point x="956.4320987654321" y="0.0" type="line"/>
      <point x="956.4320987654321" y="634.0" type="line"/>
      <point x="956.4320987654321" y="888.0"/>
      <point x="868.1975308641976" y="1018.0493827160494"/>
      <point x="654.5555555555555" y="1018.0493827160494" type="curve" smooth="yes"/>
      <point x="517.320987654321" y="1018.0493827160494"/>
      <point x="415.32098765432096" y="943.5185185185185"/>
      <point x="320.7283950617284" y="848.1604938271605" type="curve"/>
      <point x="313.4938271604938" y="848.1604938271605" type="line"/>
      <point x="300.32098765432096" y="993.0493827160494" type="line"/>
      <point x="171.07407407407408" y="993.0493827160494" type="line"/>
    </contour>
  </outline>
</glyph>
<glyph name="o" format="2">
  <advance width="1107.7530864197531"/>
  <unicode hex="006F"/>
  <anchor x="553.8765432098766" y="-276.5432098765432" name="btm"/>
  <anchor x="553.8765432098766" y="991.3580246913581" name="top"/>
  <outline>
    <contour>
      <point x="553.1111111111111" y="-25.0" type="curve" smooth="yes"/>
      <point x="800.7530864197531" y="-25.0"/>
      <point x="1011.8024691358024" y="162.46913580246914"/>
      <point x="1011.8024691358024" y="495.87654320987656" type="curve" smooth="yes"/>
      <point x="1011.8024691358024" y="833.5802469135803"/>
      <point x="800.7530864197531" y="1018.0493827160494"/>
      <point x="553.1111111111111" y="1018.0493827160494" type="curve" smooth="yes"/>
      <point x="306.0" y="1018.0493827160494"/>
      <point x="96.95061728395062" y="833.5802469135803"/>
      <point x="96.95061728395062" y="495.87654320987656" type="curve" smooth="yes"/>
      <point x="96.95061728395062" y="162.46913580246914"/>
      <point x="306.0" y="-25.0"/>
    </contour>
    <contour>
      <point x="553.1111111111111" y="105.24691358024691" type="curve" smooth="yes"/>
      <point x="374.91358024691357" y="105.24691358024691"/>
      <point x="257.8888888888889" y="260.38271604938274"/>
      <point x="257.8888888888889" y="495.87654320987656" type="curve" smooth="yes"/>
      <point x="257.8888888888889" y="733.1358024691358"/>
      <point x="374.91358024691357" y="888.0370370370371"/>
      <point x="553.1111111111111" y="888.0370370370371" type="curve" smooth="yes"/>
      <point x="732.3086419753087" y="888.0370370370371"/>
      <point x="851.0987654320987" y="733.1358024691358"/>
      <point x="851.0987654320987" y="495.87654320987656" type="curve" smooth="yes"/>
      <point x="851.0987654320987" y="260.38271604938274"/>
      <point x="732.3086419753087" y="105.24691358024691"/>
    </contour>
  </outline>
</glyph>
<glyph name="p" format="2">
  <advance width="1133.3950617283951"/>
  <unicode hex="0070"/>
  <anchor x="521.0123456790124" y="-276.5432098765432" name="btm"/>
  <anchor x="602.4074074074074" y="991.3580246913581" name="top"/>
  <outline>
    <contour>
      <point x="171.07407407407408" y="-423.9012345679012" type="line"/>
      <point x="327.0740740740741" y="-423.9012345679012" type="line"/>
      <point x="327.0740740740741" y="-84.29629629629629" type="line"/>
      <point x="323.3703703703704" y="90.82716049382717" type="line"/>
      <point x="416.55555555555554" y="18.296296296296298"/>
      <point x="507.91358024691357" y="-25.0"/>
      <point x="601.679012345679" y="-25.0" type="curve" smooth="yes"/>
      <point x="833.5061728395061" y="-25.0"/>
      <point x="1033.7407407407406" y="167.46913580246914"/>
      <point x="1033.7407407407406" y="509.641975308642" type="curve" smooth="yes"/>
      <point x="1033.7407407407406" y="822.5802469135803"/>
      <point x="901.0987654320987" y="1018.0493827160494"/>
      <point x="639.5061728395061" y="1018.0493827160494" type="curve" smooth="yes"/>
      <point x="520.679012345679" y="1018.0493827160494"/>
      <point x="411.08641975308643" y="952.6913580246913"/>
      <point x="320.7283950617284" y="877.1604938271605" type="curve"/>
      <point x="313.4938271604938" y="877.1604938271605" type="line"/>
      <point x="300.32098765432096" y="993.0493827160494" type="line"/>
      <point x="171.07407407407408" y="993.0493827160494" type="line"/>
    </contour>
    <contour>
      <point x="327.0740740740741" y="746.1358024691358" type="line"/>
      <point x="427.91358024691357" y="837.3827160493827"/>
      <point x="513.2222222222222" y="886.8024691358024"/>
      <point x="600.7037037037037" y="886.8024691358024" type="curve" smooth="yes"/>
      <point x="798.320987654321" y="886.8024691358024"/>
      <point x="871.2716049382716" y="736.7777777777778"/>
      <point x="871.2716049382716" y="509.4074074074074" type="curve" smooth="yes"/>
      <point x="871.2716049382716" y="257.5679012345679"/>
      <point x="747.9012345679013" y="107.24691358024691"/>
      <point x="576.3456790123457" y="107.24691358024691" type="curve" smooth="yes"/>
      <point x="507.69135802469134" y="107.24691358024691"/>
      <point x="420.679012345679" y="135.60493827160494"/>
      <point x="327.0740740740741" y="214.6172839506173" type="curve"/>
    </contour>
  </outline>
</glyph>
<glyph name="q" format="2">
  <advance width="1121.567901234568"/>
  <unicode hex="0071"/>
  <anchor x="529.2222222222222" y="-276.5432098765432" name="btm"/>
  <anchor x="529.2222222222222" y="991.3580246913581" name="top"/>
  <outline>
    <contour>
      <point x="805.0864197530864" y="-423.9012345679012" type="line"/>
      <point x="961.5555555555555" y="-423.9012345679012" type="line"/>
      <point x="961.5555555555555" y="993.0493827160494" type="line"/>
      <point x="836.7777777777778" y="993.0493827160494" type="line"/>
      <point x="820.604938271605" y="899.8765432098766" type="line"/>
      <point x="816.1358024691358" y="899.8765432098766" type="line"/>
      <point x="726.3086419753087" y="976.283950617284"/>
      <point x="649.5432098765432" y="1018.0493827160494"/>
      <point x="531.2469135802469" y="1018.0493827160494" type="curve" smooth="yes"/>
      <point x="298.8888888888889" y="1018.0493827160494"/>
      <point x="97.65432098765432" y="822.0493827160494"/>
      <point x="97.65432098765432" y="493.641975308642" type="curve" smooth="yes"/>
      <point x="97.65432098765432" y="155.64197530864197"/>
      <point x="254.88888888888889" y="-25.0"/>
      <point x="509.358024691358" y="-25.0" type="curve" smooth="yes"/>
      <point x="629.8395061728395" y="-25.0"/>
      <point x="730.9012345679013" y="38.123456790123456"/>
      <point x="812.7901234567901" y="113.48148148148148" type="curve"/>
      <point x="805.0864197530864" y="-66.23456790123457" type="line"/>
    </contour>
    <contour>
      <point x="805.0864197530864" y="247.91358024691357" type="line"/>
      <point x="719.2469135802469" y="154.19753086419752"/>
      <point x="640.2345679012345" y="107.24691358024691"/>
      <point x="543.4567901234568" y="107.24691358024691" type="curve" smooth="yes"/>
      <point x="358.9012345679012" y="107.24691358024691"/>
      <point x="259.8888888888889" y="248.50617283950618"/>
      <point x="259.8888888888889" y="495.1111111111111" type="curve" smooth="yes"/>
      <point x="259.8888888888889" y="729.9506172839506"/>
      <point x="388.25925925925924" y="886.8024691358024"/>
      <point x="557.1111111111111" y="886.8024691358024" type="curve" smooth="yes"/>
      <point x="643.358024691358" y="886.8024691358024"/>
      <point x="717.7777777777778" y="857.4444444444445"/>
      <point x="805.0864197530864" y="778.4320987654321" type="curve"/>
    </contour>
  </outline>
</glyph>
<glyph name="r" format="2">
  <advance width="701.2469135802469"/>
  <unicode hex="0072"/>
  <anchor x="292.6666666666667" y="-276.5432098765432" name="btm"/>
  <anchor x="438.9259259259259" y="991.3580246913581" name="top"/>
  <outline>
    <contour>
      <point x="171.07407407407408" y="0.0" type="line"/>
      <point x="327.0740740740741" y="0.0" type="line"/>
      <point x="327.0740740740741" y="644.4938271604939" type="line"/>
      <point x="395.1975308641975" y="814.2716049382716"/>
      <point x="497.25925925925924" y="876.6296296296297"/>
      <point x="581.0864197530864" y="876.6296296296297" type="curve" smooth="yes"/>
      <point x="621.5555555555555" y="876.6296296296297"/>
      <point x="643.7283950617284" y="871.395061728395"/>
      <point x="676.9629629629629" y="860.6296296296297" type="curve"/>
      <point x="706.7777777777778" y="997.0493827160494" type="line"/>
      <point x="675.0123456790124" y="1012.5802469135803"/>
      <point x="644.5432098765432" y="1018.0493827160494"/>
      <point x="601.6666666666666" y="1018.0493827160494" type="curve" smooth="yes"/>
      <point x="488.8395061728395" y="1018.0493827160494"/>
      <point x="387.4320987654321" y="937.6913580246913"/>
      <point x="320.7283950617284" y="812.5185185185185" type="curve"/>
      <point x="313.4938271604938" y="812.5185185185185" type="line"/>
      <point x="300.32098765432096" y="993.0493827160494" type="line"/>
      <point x="171.07407407407408" y="993.0493827160494" type="line"/>
    </contour>
  </outline>
</glyph>
<glyph name="s" format="2">
  <advance width="853.2716049382716"/>
  <unicode hex="0073"/>
  <anchor x="429.91358024691357" y="-276.5432098765432" name="btm"/>
  <anchor x="428.9753086419753" y="991.3580246913581" name="top"/>
  <outline>
    <contour>
      <point x="750.9629629629629" y="909.4691358024692" type="line"/>
      <point x="674.5555555555555" y="971.1728395061729"/>
      <point x="566.6172839506173" y="1018.0493827160494"/>
      <point x="445.9259259259259" y="1018.0493827160494" type="curve" smooth="yes"/>
      <point x="232.11111111111111" y="1018.0493827160494"/>
      <point x="107.12345679012346" y="897.1111111111111"/>
      <point x="107.12345679012346" y="740.1234567901234" type="curve" smooth="yes"/>
      <point x="107.12345679012346" y="572.1234567901234"/>
      <point x="264.71604938271605" y="502.5432098765432"/>
      <point x="406.1358024691358" y="451.24691358024694" type="curve" smooth="yes"/>
      <point x="516.4320987654321" y="410.24691358024694"/>
      <point x="636.0864197530864" y="363.358024691358"/>
      <point x="636.0864197530864" y="257.28395061728395" type="curve" smooth="yes"/>
      <point x="636.0864197530864" y="168.20987654320987"/>
      <point x="569.5432098765432" y="97.37037037037037"/>
      <point x="433.7037037037037" y="97.37037037037037" type="curve" smooth="yes"/>
      <point x="310.8641975308642" y="97.37037037037037"/>
      <point x="226.33333333333334" y="148.7283950617284"/>
      <point x="140.39506172839506" y="217.7283950617284" type="curve"/>
      <point x="61.888888888888886" y="112.70370370370371" type="line"/>
      <point x="155.06172839506172" y="35.53086419753087"/>
      <point x="286.641975308642" y="-25.0"/>
      <point x="427.7037037037037" y="-25.0" type="curve" smooth="yes"/>
      <point x="660.0987654320987" y="-25.0"/>
      <point x="787.4444444444445" y="107.4074074074074"/>
      <point x="787.4444444444445" y="265.69135802469134" type="curve" smooth="yes"/>
      <point x="787.4444444444445" y="455.98765432098764"/>
      <point x="625.5555555555555" y="516.0987654320987"/>
      <point x="479.9012345679012" y="569.925925925926" type="curve" smooth="yes"/>
      <point x="367.0740740740741" y="612.6913580246913"/>
      <point x="257.95061728395063" y="656.8148148148148"/>
      <point x="257.95061728395063" y="752.2962962962963" type="curve" smooth="yes"/>
      <point x="257.95061728395063" y="831.0123456790124"/>
      <point x="317.1975308641975" y="895.679012345679"/>
      <point x="446.6296296296296" y="895.679012345679" type="curve" smooth="yes"/>
      <point x="538.925925925926" y="895.679012345679"/>
      <point x="607.5185185185185" y="860.3827160493827"/>
      <point x="675.2222222222222" y="809.9135802469136" type="curve"/>
    </contour>
  </outline>
</glyph>
<glyph name="t" format="2">
  <advance width="683.3703703703703"/>
  <unicode hex="0074"/>
  <anchor x="377.8888888888889" y="-276.5432098765432" name="btm"/>
  <anchor x="660.2098765432099" y="1009.0987654320987" name="car"/>
  <anchor x="284.2716049382716" y="1180.5555555555557" name="top"/>
  <outline>
    <contour>
      <point x="626.0864197530864" y="130.37037037037038" type="line"/>
      <point x="593.0246913580247" y="117.8395061728395"/>
      <point x="547.1975308641976" y="103.30864197530863"/>
      <point x="511.6666666666667" y="103.30864197530863" type="curve" smooth="yes"/>
      <point x="393.82716049382714" y="103.30864197530863"/>
      <point x="356.71604938271605" y="175.02469135802468"/>
      <point x="356.71604938271605" y="298.08641975308643" type="curve" smooth="yes"/>
      <point x="356.71604938271605" y="865.5061728395061" type="line"/>
      <point x="627.9629629629629" y="865.5061728395061" type="line"/>
      <point x="627.9629629629629" y="993.0493827160494" type="line"/>
      <point x="356.71604938271605" y="993.0493827160494" type="line"/>
      <point x="356.71604938271605" y="1273.641975308642" type="line"/>
      <point x="225.0" y="1273.641975308642" type="line"/>
      <point x="205.88888888888889" y="993.0493827160494" type="line"/>
      <point x="50.123456790123456" y="983.5802469135803" type="line"/>
      <point x="50.123456790123456" y="865.5061728395061" type="line"/>
      <point x="199.4814814814815" y="865.5061728395061" type="line"/>
      <point x="199.4814814814815" y="301.91358024691357" type="line"/>
      <point x="199.4814814814815" y="108.28395061728395"/>
      <point x="267.7037037037037" y="-25.0"/>
      <point x="477.0987654320988" y="-25.0" type="curve" smooth="yes"/>
      <point x="536.4938271604939" y="-25.0"/>
      <point x="601.6666666666666" y="-6.530864197530864"/>
      <point x="657.4320987654321" y="12.0" type="curve"/>
    </contour>
  </outline>
</glyph>
<glyph name="u" format="2">
  <advance width="1108.5061728395062"/>
  <unicode hex="0075"/>
  <anchor x="546.9876543209876" y="-276.5432098765432" name="btm"/>
  <anchor x="546.9876543209876" y="991.3580246913581" name="top"/>
  <outline>
    <contour>
      <point x="795.7777777777778" y="156.88888888888889" type="line"/>
      <point x="808.9506172839506" y="0.0" type="line"/>
      <point x="937.6666666666666" y="0.0" type="line"/>
      <point x="937.6666666666666" y="993.0493827160494" type="line"/>
      <point x="782.1975308641976" y="993.0493827160494" type="line"/>
      <point x="782.1975308641976" y="283.9753086419753" type="line"/>
      <point x="684.358024691358" y="163.37037037037038"/>
      <point x="617.1111111111111" y="110.95061728395062"/>
      <point x="506.8641975308642" y="110.95061728395062" type="curve" smooth="yes"/>
      <point x="365.1975308641975" y="110.95061728395062"/>
      <point x="313.77777777777777" y="191.25925925925927"/>
      <point x="313.77777777777777" y="381.39506172839504" type="curve" smooth="yes"/>
      <point x="313.77777777777777" y="993.0493827160494" type="line"/>
      <point x="157.30864197530863" y="993.0493827160494" type="line"/>
      <point x="157.30864197530863" y="360.04938271604937" type="line"/>
      <point x="157.30864197530863" y="106.04938271604938"/>
      <point x="245.30864197530863" y="-25.0"/>
      <point x="460.95061728395063" y="-25.0" type="curve" smooth="yes"/>
      <point x="603.4197530864197" y="-25.0"/>
      <point x="696.716049382716" y="47.82716049382716"/>
      <point x="789.5432098765432" y="156.88888888888889" type="curve"/>
    </contour>
  </outline>
</glyph>
<glyph name="v" format="2">
  <advance width="945.6543209876543"/>
  <unicode hex="0076"/>
  <anchor x="472.44444444444446" y="-276.5432098765432" name="btm"/>
  <anchor x="472.44444444444446" y="991.3580246913581" name="top"/>
  <outline>
    <contour>
      <point x="384.65432098765433" y="0.0" type="line"/>
      <point x="566.9382716049382" y="0.0" type="line"/>
      <point x="920.8888888888889" y="993.0493827160494" type="line"/>
      <point x="766.8271604938271" y="993.0493827160494" type="line"/>
      <point x="573.8024691358024" y="419.71604938271605" type="line"/>
      <point x="543.5061728395061" y="322.2469135802469"/>
      <point x="510.2098765432099" y="222.30864197530863"/>
      <point x="480.91358024691357" y="127.90123456790123" type="curve"/>
      <point x="472.91358024691357" y="127.90123456790123" type="line"/>
      <point x="443.14814814814815" y="222.30864197530863"/>
      <point x="409.08641975308643" y="322.2469135802469"/>
      <point x="379.55555555555554" y="419.71604938271605" type="curve"/>
      <point x="186.76543209876542" y="993.0493827160494" type="line"/>
      <point x="25.0" y="993.0493827160494" type="line"/>
    </contour>
  </outline>
</glyph>
<glyph name="w" format="2">
  <advance width="1459.888888888889"/>
  <unicode hex="0077"/>
  <anchor x="729.4444444444445" y="-276.5432098765432" name="btm"/>
  <anchor x="729.4444444444445" y="991.3580246913581" name="top"/>
  <outline>
    <contour>
      <point x="328.48148148148147" y="0.0" type="line"/>
      <point x="510.2962962962963" y="0.0" type="line"/>
      <point x="655.0246913580247" y="543.7037037037037" type="line"/>
      <point x="681.8518518518518" y="638.7037037037037"/>
      <point x="703.679012345679" y="732.7037037037037"/>
      <point x="725.4444444444445" y="832.641975308642" type="curve"/>
      <point x="733.4444444444445" y="832.641975308642" type="line"/>
      <point x="758.5061728395061" y="732.7037037037037"/>
      <point x="777.2716049382716" y="641.2345679012345"/>
      <point x="802.5679012345679" y="547.2345679012345" type="curve" smooth="yes"/>
      <point x="950.2962962962963" y="0.0" type="line"/>
      <point x="1141.641975308642" y="0.0" type="line"/>
      <point x="1410.888888888889" y="993.0493827160494" type="line"/>
      <point x="1262.0" y="993.0493827160494" type="line"/>
      <point x="1111.2716049382716" y="408.2962962962963" type="line"/>
      <point x="1090.5061728395062" y="314.358024691358"/>
      <point x="1070.9135802469136" y="225.9506172839506"/>
      <point x="1049.148148148148" y="133.77777777777777" type="curve"/>
      <point x="1041.148148148148" y="133.77777777777777" type="line"/>
      <point x="1017.6172839506173" y="225.9506172839506"/>
      <point x="995.0864197530864" y="314.358024691358"/>
      <point x="970.320987654321" y="408.2962962962963" type="curve" smooth="yes"/>
      <point x="810.9506172839506" y="993.0493827160494" type="line"/>
      <point x="656.1111111111111" y="993.0493827160494" type="line"/>
      <point x="498.2098765432099" y="408.2962962962963" type="line"/>
      <point x="473.2098765432099" y="315.82716049382714"/>
      <point x="452.91358024691357" y="225.9506172839506"/>
      <point x="430.14814814814815" y="133.77777777777777" type="curve"/>
      <point x="422.14814814814815" y="133.77777777777777" type="line"/>
      <point x="403.61728395061726" y="225.9506172839506"/>
      <point x="383.55555555555554" y="314.358024691358"/>
      <point x="362.0246913580247" y="408.2962962962963" type="curve"/>
      <point x="209.2962962962963" y="993.0493827160494" type="line"/>
      <point x="49.0" y="993.0493827160494" type="line"/>
    </contour>
  </outline>
</glyph>
<glyph name="x" format="2">
  <advance width="900.9382716049382"/>
  <unicode hex="0078"/>
  <anchor x="450.08641975308643" y="-276.5432098765432" name="btm"/>
  <anchor x="450.08641975308643" y="991.3580246913581" name="top"/>
  <outline>
    <contour>
      <point x="29.0" y="0.0" type="line"/>
      <point x="191.93827160493828" y="0.0" type="line"/>
      <point x="332.7283950617284" y="236.85185185185185" type="line"/>
      <point x="366.32098765432096" y="298.61728395061726"/>
      <point x="399.85185185185185" y="358.38271604938274"/>
      <point x="434.44444444444446" y="416.38271604938274" type="curve"/>
      <point x="443.44444444444446" y="416.38271604938274" type="line"/>
      <point x="480.74074074074076" y="358.38271604938274"/>
      <point x="517.8024691358024" y="297.38271604938274"/>
      <point x="552.5679012345679" y="236.85185185185185" type="curve"/>
      <point x="702.5308641975308" y="0.0" type="line"/>
      <point x="872.1728395061729" y="0.0" type="line"/>
      <point x="546.0493827160494" y="502.82716049382714" type="line"/>
      <point x="848.1111111111111" y="993.0493827160494" type="line"/>
      <point x="685.1728395061729" y="993.0493827160494" type="line"/>
      <point x="558.9135802469136" y="769.0246913580247" type="line"/>
      <point x="528.0864197530864" y="715.5555555555555"/>
      <point x="497.32098765432096" y="659.0864197530864"/>
      <point x="467.7283950617284" y="603.8518518518518" type="curve"/>
      <point x="459.7283950617284" y="603.8518518518518" type="line"/>
      <point x="424.4320987654321" y="659.0864197530864"/>
      <point x="390.9012345679012" y="715.5555555555555"/>
      <point x="360.3703703703704" y="769.0246913580247" type="curve" smooth="yes"/>
      <point x="222.93827160493828" y="993.0493827160494" type="line"/>
      <point x="53.2962962962963" y="993.0493827160494" type="line"/>
      <point x="355.12345679012344" y="519.1728395061729" type="line"/>
    </contour>
  </outline>
</glyph>
<glyph name="y" format="2">
  <advance width="945.9506172839506"/>
  <unicode hex="0079"/>
  <anchor x="714.9506172839506" y="-296.48148148148147" name="btm"/>
  <anchor x="472.9753086419753" y="991.3580246913581" name="top"/>
  <outline>
    <contour>
      <point x="921.9506172839506" y="993.0493827160494" type="line"/>
      <point x="766.8888888888889" y="993.0493827160494" type="line"/>
      <point x="584.8641975308642" y="431.7037037037037" type="line"/>
      <point x="558.0987654320987" y="344.2962962962963"/>
      <point x="530.2716049382716" y="241.46913580246914"/>
      <point x="500.9753086419753" y="152.2962962962963" type="curve"/>
      <point x="492.9753086419753" y="152.2962962962963" type="line"/>
      <point x="460.91358024691357" y="242.93827160493828"/>
      <point x="425.32098765432096" y="345.7654320987654"/>
      <point x="394.32098765432096" y="431.7037037037037" type="curve" smooth="yes"/>
      <point x="186.76543209876542" y="993.0493827160494" type="line"/>
      <point x="25.0" y="993.0493827160494" type="line"/>
      <point x="424.82716049382714" y="-4.777777777777779" type="line"/>
      <point x="401.0" y="-79.96296296296296" type="line"/>
      <point x="359.1111111111111" y="-208.39506172839506"/>
      <point x="285.9259259259259" y="-301.2345679012346"/>
      <point x="171.80246913580248" y="-301.2345679012346" type="curve" smooth="yes"/>
      <point x="146.50617283950618" y="-301.2345679012346"/>
      <point x="115.74074074074073" y="-293.2345679012346"/>
      <point x="95.74074074074073" y="-285.7037037037037" type="curve"/>
      <point x="64.92592592592592" y="-411.30864197530866" type="line"/>
      <point x="96.09876543209876" y="-423.30864197530866"/>
      <point x="134.5679012345679" y="-432.0740740740741"/>
      <point x="178.91358024691357" y="-432.0740740740741" type="curve" smooth="yes"/>
      <point x="375.5432098765432" y="-432.0740740740741"/>
      <point x="476.71604938271605" y="-280.12345679012344"/>
      <point x="544.4691358024692" y="-88.67901234567901" type="curve" smooth="yes"/>
    </contour>
  </outline>
</glyph>
<glyph name="z" format="2">
  <advance width="862.5555555555555"/>
  <unicode hex="007A"/>
  <anchor x="440.4938271604938" y="-276.5432098765432" name="btm"/>
  <anchor x="435.5679012345679" y="991.3580246913581" name="top"/>
  <outline>
    <contour>
      <point x="62.111111111111114" y="0.0" type="line"/>
      <point x="810.0246913580247" y="0.0" type="line"/>
      <point x="810.0246913580247" y="128.30864197530863" type="line"/>
      <point x="259.8024691358025" y="128.30864197530863" type="line"/>
      <point x="793.4938271604939" y="910.4938271604939" type="line"/>
      <point x="793.4938271604939" y="993.0493827160494" type="line"/>
      <point x="120.70370370370371" y="993.0493827160494" type="line"/>
      <point x="120.70370370370371" y="865.5061728395061" type="line"/>
      <point x="595.8024691358024" y="865.5061728395061" type="line"/>
      <point x="62.111111111111114" y="83.32098765432099" type="line"/>
    </contour>
  </outline>
</glyph>
<glyph name="braceleft" format="2">
  <advance width="612.4320987654321"/>
  <unicode hex="007B"/>
  <outline>
    <contour>
      <point x="553.5061728395061" y="-311.0" type="line"/>
      <point x="553.5061728395061" y="-220.85185185185185" type="line"/>
      <point x="495.08641975308643" y="-220.85185185185185" type="line"/>
      <point x="384.60493827160496" y="-220.85185185185185"/>
      <point x="355.30864197530866" y="-165.1358024691358"/>
      <point x="355.30864197530866" y="-30.950617283950617" type="curve" smooth="yes"/>
      <point x="355.30864197530866" y="94.93827160493827"/>
      <point x="367.0740740740741" y="203.53086419753086"/>
      <point x="367.0740740740741" y="343.65432098765433" type="curve" smooth="yes"/>
      <point x="367.0740740740741" y="472.17283950617286"/>
      <point x="335.4938271604938" y="541.0"/>
      <point x="247.6172839506173" y="565.0" type="curve"/>
      <point x="247.6172839506173" y="573.0" type="line"/>
      <point x="335.4938271604938" y="598.0"/>
      <point x="367.0740740740741" y="664.0617283950618"/>
      <point x="367.0740740740741" y="794.5802469135803" type="curve" smooth="yes"/>
      <point x="367.0740740740741" y="920.8765432098766"/>
      <point x="355.30864197530866" y="1049.5925925925926"/>
      <point x="355.30864197530866" y="1168.9506172839506" type="curve" smooth="yes"/>
      <point x="355.30864197530866" y="1303.3703703703704"/>
      <point x="384.60493827160496" y="1357.0864197530864"/>
      <point x="495.08641975308643" y="1357.0864197530864" type="curve" smooth="yes"/>
      <point x="553.5061728395061" y="1357.0864197530864" type="line"/>
      <point x="553.5061728395061" y="1450.0" type="line"/>
      <point x="463.34567901234567" y="1450.0" type="line"/>
      <point x="305.2962962962963" y="1450.0"/>
      <point x="227.82716049382717" y="1386.8271604938273"/>
      <point x="227.82716049382717" y="1179.4197530864199" type="curve" smooth="yes"/>
      <point x="227.82716049382717" y="1037.9506172839506"/>
      <point x="246.2962962962963" y="906.7530864197531"/>
      <point x="246.2962962962963" y="777.2222222222222" type="curve" smooth="yes"/>
      <point x="246.2962962962963" y="699.6913580246913"/>
      <point x="209.35802469135803" y="621.395061728395"/>
      <point x="70.06172839506173" y="619.1604938271605" type="curve"/>
      <point x="70.06172839506173" y="519.8395061728395" type="line"/>
      <point x="209.35802469135803" y="517.604938271605"/>
      <point x="246.2962962962963" y="439.0740740740741"/>
      <point x="246.2962962962963" y="358.24691358024694" type="curve" smooth="yes"/>
      <point x="246.2962962962963" y="220.41975308641975"/>
      <point x="227.82716049382717" y="109.11111111111111"/>
      <point x="227.82716049382717" y="-40.41975308641975" type="curve" smooth="yes"/>
      <point x="227.82716049382717" y="-250.82716049382717"/>
      <point x="305.2962962962963" y="-311.0"/>
      <point x="463.34567901234567" y="-311.0" type="curve" smooth="yes"/>
    </contour>
  </outline>
</glyph>
<glyph name="bar" format="2">
  <advance width="488.9753086419753"/>
  <unicode hex="007C"/>
  <outline>
    <contour>
      <point x="189.12345679012347" y="-512.0" type="line"/>
      <point x="300.61728395061726" y="-512.0" type="line"/>
      <point x="300.61728395061726" y="1536.0" type="line"/>
      <point x="189.12345679012347" y="1536.0" type="line"/>
    </contour>
  </outline>
</glyph>
<glyph name="asciitilde" format="2">
  <advance width="1012.1481481481482"/>
  <unicode hex="007E"/>
  <outline>
    <contour>
      <point x="848.3456790123457" y="773.5679012345679" type="line"/>
      <point x="804.9876543209876" y="684.2098765432099"/>
      <point x="752.925925925926" y="648.5061728395061"/>
      <point x="690.9876543209876" y="648.5061728395061" type="curve" smooth="yes"/>
      <point x="575.4567901234568" y="648.5061728395061"/>
      <point x="484.5061728395062" y="822.6913580246913"/>
      <point x="323.3333333333333" y="822.6913580246913" type="curve" smooth="yes"/>
      <point x="232.7037037037037" y="822.6913580246913"/>
      <point x="138.53086419753086" y="773.6913580246913"/>
      <point x="74.88888888888889" y="640.1728395061729" type="curve"/>
      <point x="163.80246913580248" y="577.4320987654321" type="line"/>
      <point x="210.39506172839506" y="673.5555555555555"/>
      <point x="259.4567901234568" y="703.4938271604939"/>
      <point x="320.6296296296296" y="703.4938271604939" type="curve" smooth="yes"/>
      <point x="435.9259259259259" y="703.4938271604939"/>
      <point x="527.283950617284" y="529.074074074074"/>
      <point x="688.4567901234568" y="529.074074074074" type="curve" smooth="yes"/>
      <point x="783.5679012345679" y="529.074074074074"/>
      <point x="868.320987654321" y="583.3086419753087"/>
      <point x="936.4938271604939" y="709.0617283950618" type="curve"/>
    </contour>
  </outline>
</glyph>
<glyph name="cent" format="2">
  <advance width="1012.1481481481482"/>
  <unicode hex="00A2"/>
  <outline>
    <contour>
      <point x="534.7530864197531" y="-65.58024691358024" type="line"/>
      <point x="634.6666666666666" y="-65.58024691358024" type="line"/>
      <point x="634.6666666666666" y="147.07407407407408" type="line"/>
      <point x="744.0864197530864" y="154.77777777777777"/>
      <point x="844.0864197530864" y="203.83950617283952"/>
      <point x="923.8518518518518" y="275.1358024691358" type="curve"/>
      <point x="854.0493827160494" y="375.0987654320988" type="line"/>
      <point x="797.1604938271605" y="324.679012345679"/>
      <point x="722.679012345679" y="282.32098765432096"/>
      <point x="634.6666666666666" y="276.85185185185185" type="curve"/>
      <point x="634.6666666666666" y="993.5061728395061" type="line"/>
      <point x="709.7407407407408" y="989.5061728395061"/>
      <point x="771.4567901234568" y="955.6172839506173"/>
      <point x="827.3456790123457" y="906.4938271604939" type="curve"/>
      <point x="903.5555555555555" y="1004.4567901234568" type="line"/>
      <point x="841.0246913580247" y="1064.4567901234568"/>
      <point x="755.5555555555555" y="1118.0493827160494"/>
      <point x="634.6666666666666" y="1123.7530864197531" type="curve"/>
      <point x="634.6666666666666" y="1336.7037037037037" type="line"/>
      <point x="534.7530864197531" y="1336.7037037037037" type="line"/>
      <point x="534.7530864197531" y="1118.283950617284" type="line"/>
      <point x="304.7037037037037" y="1087.4074074074074"/>
      <point x="125.53086419753086" y="918.7654320987655"/>
      <point x="125.53086419753086" y="635.2962962962963" type="curve" smooth="yes"/>
      <point x="125.53086419753086" y="347.8888888888889"/>
      <point x="292.7037037037037" y="176.01234567901236"/>
      <point x="534.7530864197531" y="148.83950617283952" type="curve"/>
    </contour>
    <contour>
      <point x="534.7530864197531" y="284.4938271604938" type="line"/>
      <point x="375.96296296296293" y="317.9012345679012"/>
      <point x="281.0617283950617" y="448.5061728395062"/>
      <point x="281.0617283950617" y="635.2962962962963" type="curve" smooth="yes"/>
      <point x="281.0617283950617" y="820.8518518518518"/>
      <point x="381.0246913580247" y="950.6913580246913"/>
      <point x="534.7530864197531" y="984.8641975308642" type="curve"/>
    </contour>
  </outline>
</glyph>
<glyph name="sterling" format="2">
  <advance width="1012.1481481481482"/>
  <unicode hex="00A3"/>
  <outline>
    <contour>
      <point x="110.88888888888889" y="0.0" type="line"/>
      <point x="938.3703703703703" y="0.0" type="line"/>
      <point x="938.3703703703703" y="134.9506172839506" type="line"/>
      <point x="338.2345679012346" y="134.9506172839506" type="line"/>
      <point x="338.2345679012346" y="143.71604938271605" type="line"/>
      <point x="423.41975308641975" y="228.30864197530863"/>
      <point x="469.0740740740741" y="318.7901234567901"/>
      <point x="469.0740740740741" y="466.22222222222223" type="curve" smooth="yes"/>
      <point x="469.0740740740741" y="508.9382716049383"/>
      <point x="464.5432098765432" y="547.5925925925926"/>
      <point x="457.2469135802469" y="586.7777777777778" type="curve"/>
      <point x="740.9753086419753" y="586.7777777777778" type="line"/>
      <point x="740.9753086419753" y="694.0987654320987" type="line"/>
      <point x="432.3703703703704" y="694.0987654320987" type="line"/>
      <point x="407.77777777777777" y="783.1728395061729"/>
      <point x="381.12345679012344" y="865.716049382716"/>
      <point x="381.12345679012344" y="955.320987654321" type="curve" smooth="yes"/>
      <point x="381.12345679012344" y="1101.320987654321"/>
      <point x="463.41975308641975" y="1200.0493827160494"/>
      <point x="614.0246913580247" y="1200.0493827160494" type="curve" smooth="yes"/>
      <point x="709.0370370370371" y="1200.0493827160494"/>
      <point x="772.2222222222222" y="1161.037037037037"/>
      <point x="824.283950617284" y="1096.7407407407406" type="curve"/>
      <point x="916.9012345679013" y="1188.469135802469" type="line"/>
      <point x="846.0864197530864" y="1275.283950617284"/>
      <point x="748.2098765432099" y="1331.2962962962963"/>
      <point x="603.2716049382716" y="1331.2962962962963" type="curve" smooth="yes"/>
      <point x="376.98765432098764" y="1331.2962962962963"/>
      <point x="227.06172839506172" y="1192.0"/>
      <point x="227.06172839506172" y="959.4938271604939" type="curve" smooth="yes"/>
      <point x="227.06172839506172" y="870.4197530864197"/>
      <point x="257.18518518518516" y="782.8765432098766"/>
      <point x="284.01234567901236" y="694.0987654320987" type="curve"/>
      <point x="245.53086419753086" y="694.0987654320987" type="line"/>
      <point x="110.70370370370371" y="686.8641975308642" type="line"/>
      <point x="110.70370370370371" y="586.7777777777778" type="line"/>
      <point x="313.0617283950617" y="586.7777777777778" type="line"/>
      <point x="322.12345679012344" y="547.5925925925926"/>
      <point x="327.8888888888889" y="509.17283950617286"/>
      <point x="327.8888888888889" y="468.22222222222223" type="curve" smooth="yes"/>
      <point x="327.8888888888889" y="313.39506172839504"/>
      <point x="252.30864197530863" y="172.14814814814815"/>
      <point x="110.88888888888889" y="94.96296296296296" type="curve"/>
    </contour>
  </outline>
</glyph>
<glyph name="currency" format="2">
  <advance width="1012.1481481481482"/>
  <unicode hex="00A4"/>
  <outline>
    <contour>
      <point x="138.80246913580248" y="214.1358024691358" type="line"/>
      <point x="277.5061728395062" y="355.60493827160496" type="line"/>
      <point x="341.2716049382716" y="303.18518518518516"/>
      <point x="422.0987654320988" y="275.5925925925926"/>
      <point x="505.9259259259259" y="275.5925925925926" type="curve" smooth="yes"/>
      <point x="588.0493827160494" y="275.5925925925926"/>
      <point x="670.8765432098766" y="303.18518518518516"/>
      <point x="733.8765432098766" y="355.60493827160496" type="curve"/>
      <point x="872.3456790123457" y="214.1358024691358" type="line"/>
      <point x="957.2592592592592" y="300.81481481481484" type="line"/>
      <point x="823.9629629629629" y="434.87654320987656" type="line"/>
      <point x="870.7283950617284" y="499.4074074074074"/>
      <point x="899.4938271604939" y="579.7037037037037"/>
      <point x="899.4938271604939" y="673.4691358024692" type="curve" smooth="yes"/>
      <point x="899.4938271604939" y="768.2962962962963"/>
      <point x="870.9629629629629" y="850.5925925925926"/>
      <point x="823.1975308641976" y="914.8888888888889" type="curve"/>
      <point x="957.2592592592592" y="1050.716049382716" type="line"/>
      <point x="872.3456790123457" y="1137.3950617283951" type="line"/>
      <point x="734.1111111111111" y="994.1604938271605" type="line"/>
      <point x="670.8765432098766" y="1045.0493827160494"/>
      <point x="588.0493827160494" y="1072.641975308642"/>
      <point x="505.9259259259259" y="1072.641975308642" type="curve" smooth="yes"/>
      <point x="422.0987654320988" y="1072.641975308642"/>
      <point x="340.5061728395062" y="1045.0493827160494"/>
      <point x="277.5061728395062" y="994.1604938271605" type="curve"/>
      <point x="138.80246913580248" y="1137.3950617283951" type="line"/>
      <point x="54.123456790123456" y="1050.716049382716" type="line"/>
      <point x="185.9506172839506" y="914.8888888888889" type="line"/>
      <point x="138.65432098765433" y="850.5925925925926"/>
      <point x="111.88888888888889" y="768.2962962962963"/>
      <point x="111.88888888888889" y="673.4691358024692" type="curve" smooth="yes"/>
      <point x="111.88888888888889" y="579.7037037037037"/>
      <point x="138.65432098765433" y="499.4074074074074"/>
      <point x="186.1851851851852" y="434.87654320987656" type="curve"/>
      <point x="54.123456790123456" y="300.81481481481484" type="line"/>
    </contour>
    <contour>
      <point x="505.9259259259259" y="392.0246913580247" type="curve" smooth="yes"/>
      <point x="370.61728395061726" y="392.0246913580247"/>
      <point x="257.30864197530866" y="506.0987654320988"/>
      <point x="257.30864197530866" y="673.4691358024692" type="curve" smooth="yes"/>
      <point x="257.30864197530866" y="841.1358024691358"/>
      <point x="370.61728395061726" y="955.4444444444445"/>
      <point x="505.9259259259259" y="955.4444444444445" type="curve" smooth="yes"/>
      <point x="641.5308641975308" y="955.4444444444445"/>
      <point x="754.3086419753087" y="841.1358024691358"/>
      <point x="754.3086419753087" y="673.4691358024692" type="curve" smooth="yes"/>
      <point x="754.3086419753087" y="506.0987654320988"/>
      <point x="641.5308641975308" y="392.0246913580247"/>
    </contour>
  </outline>
</glyph>
<glyph name="yen" format="2">
  <advance width="1012.1481481481482"/>
  <unicode hex="00A5"/>
  <outline>
    <contour>
      <point x="426.30864197530866" y="0.0" type="line"/>
      <point x="583.074074074074" y="0.0" type="line"/>
      <point x="583.074074074074" y="326.48148148148147" type="line"/>
      <point x="918.7283950617284" y="326.48148148148147" type="line"/>
      <point x="918.7283950617284" y="419.28395061728395" type="line"/>
      <point x="583.074074074074" y="419.28395061728395" type="line"/>
      <point x="583.074074074074" y="554.4691358024692" type="line"/>
      <point x="918.7283950617284" y="554.4691358024692" type="line"/>
      <point x="918.7283950617284" y="646.2716049382716" type="line"/>
      <point x="622.8271604938271" y="646.2716049382716" type="line"/>
      <point x="962.6666666666666" y="1307.0617283950617" type="line"/>
      <point x="803.4320987654321" y="1307.0617283950617" type="line"/>
      <point x="638.641975308642" y="948.5555555555555" type="line"/>
      <point x="595.8148148148148" y="858.7901234567901"/>
      <point x="557.5185185185185" y="768.7901234567901"/>
      <point x="511.69135802469134" y="672.7283950617284" type="curve"/>
      <point x="502.9259259259259" y="672.7283950617284" type="line"/>
      <point x="459.0987654320988" y="768.5555555555555"/>
      <point x="419.037037037037" y="858.5555555555555"/>
      <point x="377.9753086419753" y="948.5555555555555" type="curve" smooth="yes"/>
      <point x="212.9506172839506" y="1307.0617283950617" type="line"/>
      <point x="49.71604938271605" y="1307.0617283950617" type="line"/>
      <point x="386.7901234567901" y="646.2716049382716" type="line"/>
      <point x="93.65432098765432" y="646.2716049382716" type="line"/>
      <point x="93.65432098765432" y="554.4691358024692" type="line"/>
      <point x="426.30864197530866" y="554.4691358024692" type="line"/>
      <point x="426.30864197530866" y="419.28395061728395" type="line"/>
      <point x="93.65432098765432" y="419.28395061728395" type="line"/>
      <point x="93.65432098765432" y="326.48148148148147" type="line"/>
      <point x="426.30864197530866" y="326.48148148148147" type="line"/>
    </contour>
  </outline>
</glyph>
<glyph name="section" format="2">
  <advance width="1012.1481481481482"/>
  <unicode hex="00A7"/>
  <outline>
    <contour>
      <point x="821.1975308641976" y="1284.2962962962963" type="line"/>
      <point x="744.2592592592592" y="1347.7654320987654"/>
      <point x="636.9135802469136" y="1400.641975308642"/>
      <point x="510.69135802469134" y="1400.641975308642" type="curve" smooth="yes"/>
      <point x="307.9382716049383" y="1400.641975308642"/>
      <point x="205.4814814814815" y="1275.1728395061727"/>
      <point x="205.4814814814815" y="1138.0740740740741" type="curve" smooth="yes"/>
      <point x="205.4814814814815" y="1066.0740740740741"/>
      <point x="230.2469135802469" y="1012.8395061728395"/>
      <point x="270.77777777777777" y="970.604938271605" type="curve"/>
      <point x="169.01234567901236" y="912.9012345679013"/>
      <point x="93.65432098765432" y="826.4938271604939"/>
      <point x="93.65432098765432" y="705.074074074074" type="curve" smooth="yes"/>
      <point x="93.65432098765432" y="327.9012345679012"/>
      <point x="660.9012345679013" y="382.5061728395062"/>
      <point x="660.9012345679013" y="141.2962962962963" type="curve" smooth="yes"/>
      <point x="660.9012345679013" y="60.51851851851852"/>
      <point x="593.6543209876543" y="-5.4938271604938285"/>
      <point x="482.17283950617286" y="-5.4938271604938285" type="curve" smooth="yes"/>
      <point x="371.39506172839504" y="-5.4938271604938285"/>
      <point x="295.9259259259259" y="36.5679012345679"/>
      <point x="227.39506172839506" y="101.80246913580247" type="curve"/>
      <point x="131.30864197530863" y="15.88888888888889" type="line"/>
      <point x="215.2469135802469" y="-72.8641975308642"/>
      <point x="337.7037037037037" y="-127.09876543209876"/>
      <point x="482.17283950617286" y="-127.09876543209876" type="curve" smooth="yes"/>
      <point x="669.320987654321" y="-127.09876543209876"/>
      <point x="805.5555555555555" y="-10.049382716049383"/>
      <point x="805.5555555555555" y="149.46913580246914" type="curve" smooth="yes"/>
      <point x="805.5555555555555" y="219.2962962962963"/>
      <point x="782.4938271604939" y="273.0617283950617"/>
      <point x="743.6666666666666" y="317.0617283950617" type="curve"/>
      <point x="847.9012345679013" y="376.7654320987654"/>
      <point x="918.7283950617284" y="451.641975308642"/>
      <point x="918.7283950617284" y="582.0" type="curve" smooth="yes"/>
      <point x="918.7283950617284" y="958.2962962962963"/>
      <point x="348.60493827160496" y="915.5679012345679"/>
      <point x="348.60493827160496" y="1144.3086419753085" type="curve" smooth="yes"/>
      <point x="348.60493827160496" y="1214.7283950617284"/>
      <point x="397.96296296296293" y="1277.2716049382716"/>
      <point x="516.0987654320987" y="1277.2716049382716" type="curve" smooth="yes"/>
      <point x="608.283950617284" y="1277.2716049382716"/>
      <point x="679.4567901234568" y="1236.2716049382716"/>
      <point x="745.2222222222222" y="1183.037037037037" type="curve"/>
    </contour>
    <contour>
      <point x="651.9876543209876" y="391.0987654320988" type="curve"/>
      <point x="483.1604938271605" y="494.28395061728395"/>
      <point x="231.90123456790124" y="528.4567901234568"/>
      <point x="231.90123456790124" y="715.4814814814815" type="curve" smooth="yes"/>
      <point x="231.90123456790124" y="802.5555555555555"/>
      <point x="282.38271604938274" y="853.9135802469136"/>
      <point x="361.39506172839504" y="899.0370370370371" type="curve"/>
      <point x="530.4567901234568" y="798.6172839506173"/>
      <point x="780.2469135802469" y="761.679012345679"/>
      <point x="780.2469135802469" y="569.358024691358" type="curve" smooth="yes"/>
      <point x="780.2469135802469" y="476.51851851851853"/>
      <point x="735.2962962962963" y="429.69135802469134"/>
    </contour>
  </outline>
</glyph>
<glyph name="dieresis" format="2">
  <advance width="1107.7530864197531"/>
  <unicode hex="00A8"/>
  <anchor x="553.8765432098766" y="991.3580246913581" name="_top"/>
  <outline>
    <contour>
      <point x="467.61728395061726" y="1207.8395061728395" type="curve" smooth="yes"/>
      <point x="522.8395061728395" y="1207.8395061728395"/>
      <point x="563.716049382716" y="1248.6543209876543"/>
      <point x="563.716049382716" y="1304.1728395061727" type="curve" smooth="yes"/>
      <point x="563.716049382716" y="1357.9259259259259"/>
      <point x="522.8395061728395" y="1399.5061728395062"/>
      <point x="467.61728395061726" y="1399.5061728395062" type="curve" smooth="yes"/>
      <point x="412.6296296296296" y="1399.5061728395062"/>
      <point x="371.5185185185185" y="1357.9259259259259"/>
      <point x="371.5185185185185" y="1304.1728395061727" type="curve" smooth="yes"/>
      <point x="371.5185185185185" y="1248.6543209876543"/>
      <point x="412.6296296296296" y="1207.8395061728395"/>
    </contour>
    <contour>
      <point x="640.3703703703704" y="1207.8395061728395" type="curve" smooth="yes"/>
      <point x="696.8888888888889" y="1207.8395061728395"/>
      <point x="736.4691358024692" y="1248.6543209876543"/>
      <point x="736.4691358024692" y="1304.1728395061727" type="curve" smooth="yes"/>
      <point x="736.4691358024692" y="1357.9259259259259"/>
      <point x="696.8888888888889" y="1399.5061728395062"/>
      <point x="640.3703703703704" y="1399.5061728395062" type="curve" smooth="yes"/>
      <point x="585.3827160493827" y="1399.5061728395062"/>
      <point x="545.8024691358025" y="1357.9259259259259"/>
      <point x="545.8024691358025" y="1304.1728395061727" type="curve" smooth="yes"/>
      <point x="545.8024691358025" y="1248.6543209876543"/>
      <point x="585.3827160493827" y="1207.8395061728395"/>
    </contour>
  </outline>
</glyph>
<glyph name="copyright" format="2">
  <advance width="1523.641975308642"/>
  <unicode hex="00A9"/>
  <outline>
    <contour>
      <point x="764.7037037037037" y="-39.04938271604938" type="curve" smooth="yes"/>
      <point x="1128.5185185185185" y="-39.04938271604938"/>
      <point x="1439.8641975308642" y="235.1851851851852"/>
      <point x="1439.8641975308642" y="662.2345679012345" type="curve" smooth="yes"/>
      <point x="1439.8641975308642" y="1088.283950617284"/>
      <point x="1128.5185185185185" y="1355.5185185185185"/>
      <point x="764.7037037037037" y="1355.5185185185185" type="curve" smooth="yes"/>
      <point x="400.358024691358" y="1355.5185185185185"/>
      <point x="88.54320987654322" y="1088.5185185185185"/>
      <point x="88.54320987654322" y="662.2345679012345" type="curve" smooth="yes"/>
      <point x="88.54320987654322" y="235.1851851851852"/>
      <point x="400.358024691358" y="-39.04938271604938"/>
    </contour>
    <contour>
      <point x="993.6666666666666" y="454.8024691358025" type="line"/>
      <point x="933.8395061728395" y="402.44444444444446"/>
      <point x="868.4197530864197" y="362.85185185185185"/>
      <point x="780.2345679012345" y="362.85185185185185" type="curve" smooth="yes"/>
      <point x="630.1604938271605" y="362.85185185185185"/>
      <point x="532.2098765432099" y="477.0987654320988"/>
      <point x="532.2098765432099" y="661.4691358024692" type="curve" smooth="yes"/>
      <point x="532.2098765432099" y="824.604938271605"/>
      <point x="634.7530864197531" y="941.0246913580247"/>
      <point x="786.7037037037037" y="941.0246913580247" type="curve" smooth="yes"/>
      <point x="859.358024691358" y="941.0246913580247"/>
      <point x="911.1851851851852" y="910.4938271604939"/>
      <point x="968.3086419753087" y="855.9012345679013" type="curve"/>
      <point x="1035.4074074074074" y="931.7037037037037" type="line"/>
      <point x="970.1728395061729" y="996.7037037037037"/>
      <point x="895.4691358024692" y="1047.4074074074074"/>
      <point x="781.0617283950618" y="1047.4074074074074" type="curve" smooth="yes"/>
      <point x="583.8888888888889" y="1047.4074074074074"/>
      <point x="404.48148148148147" y="898.7037037037037"/>
      <point x="404.48148148148147" y="661.4691358024692" type="curve" smooth="yes"/>
      <point x="404.48148148148147" y="407.17283950617286"/>
      <point x="569.716049382716" y="255.7037037037037"/>
      <point x="775.0" y="255.7037037037037" type="curve" smooth="yes"/>
      <point x="898.6543209876543" y="255.7037037037037"/>
      <point x="976.5925925925926" y="307.5308641975309"/>
      <point x="1052.0617283950617" y="373.2962962962963" type="curve"/>
    </contour>
    <contour>
      <point x="764.4691358024692" y="45.58024691358025" type="curve" smooth="yes"/>
      <point x="447.2345679012346" y="45.58024691358025"/>
      <point x="182.87654320987653" y="292.641975308642"/>
      <point x="182.87654320987653" y="662.2345679012345" type="curve" smooth="yes"/>
      <point x="182.87654320987653" y="1029.2962962962963"/>
      <point x="447.2345679012346" y="1272.888888888889"/>
      <point x="764.4691358024692" y="1272.888888888889" type="curve" smooth="yes"/>
      <point x="1081.4074074074074" y="1272.888888888889"/>
      <point x="1345.7654320987654" y="1029.2962962962963"/>
      <point x="1345.7654320987654" y="662.2345679012345" type="curve" smooth="yes"/>
      <point x="1345.7654320987654" y="292.641975308642"/>
      <point x="1081.4074074074074" y="45.58024691358025"/>
    </contour>
  </outline>
</glyph>
<glyph name="logicalnot" format="2">
  <advance width="1012.1481481481482"/>
  <unicode hex="00AC"/>
  <outline>
    <contour>
      <point x="815.716049382716" y="214.9506172839506" type="line"/>
      <point x="942.1481481481482" y="214.9506172839506" type="line"/>
      <point x="942.1481481481482" y="735.0987654320987" type="line"/>
      <point x="70.0" y="735.0987654320987" type="line"/>
      <point x="70.0" y="615.9012345679013" type="line"/>
      <point x="815.716049382716" y="615.9012345679013" type="line"/>
    </contour>
  </outline>
</glyph>
<glyph name="softhyphen" format="2">
  <advance width="633.0987654320987"/>
  <unicode hex="00AD"/>
  <outline>
    <contour>
      <point x="83.70370370370371" y="452.60493827160496" type="line"/>
      <point x="551.395061728395" y="452.60493827160496" type="line"/>
      <point x="551.395061728395" y="573.8024691358024" type="line"/>
      <point x="83.70370370370371" y="573.8024691358024" type="line"/>
    </contour>
  </outline>
</glyph>
<glyph name="registered" format="2">
  <advance width="859.4938271604939"/>
  <unicode hex="00AE"/>
  <outline>
    <contour>
      <point x="428.8641975308642" y="655.4197530864197" type="curve" smooth="yes"/>
      <point x="639.5061728395061" y="655.4197530864197"/>
      <point x="812.9135802469136" y="817.8271604938271"/>
      <point x="812.9135802469136" y="1057.2962962962963" type="curve" smooth="yes"/>
      <point x="812.9135802469136" y="1296.2962962962963"/>
      <point x="639.5061728395061" y="1459.7037037037037"/>
      <point x="428.8641975308642" y="1459.7037037037037" type="curve" smooth="yes"/>
      <point x="218.7530864197531" y="1459.7037037037037"/>
      <point x="45.58024691358025" y="1296.2962962962963"/>
      <point x="45.58024691358025" y="1057.2962962962963" type="curve" smooth="yes"/>
      <point x="45.58024691358025" y="817.8271604938271"/>
      <point x="218.7530864197531" y="655.4197530864197"/>
    </contour>
    <contour>
      <point x="428.8641975308642" y="728.1728395061729" type="curve" smooth="yes"/>
      <point x="256.8641975308642" y="728.1728395061729"/>
      <point x="124.27160493827161" y="862.5308641975308"/>
      <point x="124.27160493827161" y="1057.2962962962963" type="curve" smooth="yes"/>
      <point x="124.27160493827161" y="1249.8271604938273"/>
      <point x="256.8641975308642" y="1388.716049382716"/>
      <point x="428.8641975308642" y="1388.716049382716" type="curve" smooth="yes"/>
      <point x="600.8641975308642" y="1388.716049382716"/>
      <point x="734.2222222222222" y="1249.8271604938273"/>
      <point x="734.2222222222222" y="1057.2962962962963" type="curve" smooth="yes"/>
      <point x="734.2222222222222" y="862.5308641975308"/>
      <point x="600.8641975308642" y="728.1728395061729"/>
    </contour>
    <contour>
      <point x="282.28395061728395" y="854.5308641975308" type="line"/>
      <point x="363.2098765432099" y="854.5308641975308" type="line"/>
      <point x="363.2098765432099" y="999.716049382716" type="line"/>
      <point x="448.69135802469134" y="999.716049382716" type="line"/>
      <point x="522.0493827160494" y="854.5308641975308" type="line"/>
      <point x="613.2716049382716" y="854.5308641975308" type="line"/>
      <point x="517.9135802469136" y="1025.1234567901236" type="line"/>
      <point x="563.9135802469136" y="1041.5925925925926"/>
      <point x="594.9753086419753" y="1088.888888888889"/>
      <point x="594.9753086419753" y="1138.6543209876543" type="curve" smooth="yes"/>
      <point x="594.9753086419753" y="1237.4814814814815"/>
      <point x="520.4444444444445" y="1270.888888888889"/>
      <point x="436.037037037037" y="1270.888888888889" type="curve" smooth="yes"/>
      <point x="282.28395061728395" y="1270.888888888889" type="line"/>
    </contour>
    <contour>
      <point x="363.2098765432099" y="1064.0617283950617" type="line"/>
      <point x="363.2098765432099" y="1203.8395061728395" type="line"/>
      <point x="422.0987654320988" y="1203.8395061728395" type="line"/>
      <point x="485.04938271604937" y="1203.8395061728395"/>
      <point x="508.58024691358025" y="1176.5432098765432"/>
      <point x="508.58024691358025" y="1134.4197530864199" type="curve" smooth="yes"/>
      <point x="508.58024691358025" y="1087.2962962962963"/>
      <point x="473.69135802469134" y="1064.0617283950617"/>
      <point x="417.5679012345679" y="1064.0617283950617" type="curve" smooth="yes"/>
    </contour>
  </outline>
</glyph>
<glyph name="macron" format="2">
  <advance width="1107.7530864197531"/>
  <unicode hex="00AF"/>
  <anchor x="554.1111111111111" y="991.3580246913581" name="_top"/>
  <outline>
    <contour>
      <point x="306.41975308641975" y="1232.4197530864199" type="line"/>
      <point x="802.5679012345679" y="1232.4197530864199" type="line"/>
      <point x="802.5679012345679" y="1342.20987654321" type="line"/>
      <point x="306.41975308641975" y="1342.20987654321" type="line"/>
    </contour>
  </outline>
</glyph>
<glyph name="degree" format="2">
  <advance width="671.320987654321"/>
  <unicode hex="00B0"/>
  <outline>
    <contour>
      <point x="336.1604938271605" y="884.8518518518518" type="curve" smooth="yes"/>
      <point x="471.14814814814815" y="884.8518518518518"/>
      <point x="589.0246913580247" y="984.9012345679013"/>
      <point x="589.0246913580247" y="1141.7777777777778" type="curve" smooth="yes"/>
      <point x="589.0246913580247" y="1302.1851851851852"/>
      <point x="471.14814814814815" y="1402.469135802469"/>
      <point x="336.1604938271605" y="1402.469135802469" type="curve" smooth="yes"/>
      <point x="202.17283950617283" y="1402.469135802469"/>
      <point x="84.29629629629629" y="1302.1851851851852"/>
      <point x="84.29629629629629" y="1141.7777777777778" type="curve" smooth="yes"/>
      <point x="84.29629629629629" y="984.9012345679013"/>
      <point x="202.17283950617283" y="884.8518518518518"/>
    </contour>
    <contour>
      <point x="336.1604938271605" y="973.8888888888889" type="curve" smooth="yes"/>
      <point x="245.5679012345679" y="973.8888888888889"/>
      <point x="181.50617283950618" y="1044.716049382716"/>
      <point x="181.50617283950618" y="1141.7777777777778" type="curve" smooth="yes"/>
      <point x="181.50617283950618" y="1242.1358024691358"/>
      <point x="245.5679012345679" y="1312.962962962963"/>
      <point x="336.1604938271605" y="1312.962962962963" type="curve" smooth="yes"/>
      <point x="427.75308641975306" y="1312.962962962963"/>
      <point x="491.81481481481484" y="1242.1358024691358"/>
      <point x="491.81481481481484" y="1141.7777777777778" type="curve" smooth="yes"/>
      <point x="491.81481481481484" y="1044.716049382716"/>
      <point x="427.75308641975306" y="973.8888888888889"/>
    </contour>
  </outline>
</glyph>
<glyph name="plusminus" format="2">
  <advance width="1012.1481481481482"/>
  <unicode hex="00B1"/>
  <outline>
    <contour>
      <point x="443.12345679012344" y="254.14814814814815" type="line"/>
      <point x="568.0246913580247" y="254.14814814814815" type="line"/>
      <point x="568.0246913580247" y="624.9506172839506" type="line"/>
      <point x="942.1481481481482" y="624.9506172839506" type="line"/>
      <point x="942.1481481481482" y="743.6172839506173" type="line"/>
      <point x="568.0246913580247" y="743.6172839506173" type="line"/>
      <point x="568.0246913580247" y="1137.0493827160494" type="line"/>
      <point x="443.12345679012344" y="1137.0493827160494" type="line"/>
      <point x="443.12345679012344" y="743.6172839506173" type="line"/>
      <point x="70.0" y="743.6172839506173" type="line"/>
      <point x="70.0" y="624.9506172839506" type="line"/>
      <point x="443.12345679012344" y="624.9506172839506" type="line"/>
    </contour>
    <contour>
      <point x="70.0" y="0.0" type="line"/>
      <point x="942.1481481481482" y="0.0" type="line"/>
      <point x="942.1481481481482" y="118.66666666666666" type="line"/>
      <point x="70.0" y="118.66666666666666" type="line"/>
    </contour>
  </outline>
</glyph>
<glyph name="two.sups" format="2">
  <advance width="749.8148148148148"/>
  <unicode hex="00B2"/>
  <outline>
    <contour>
      <point x="107.88888888888889" y="901.0" type="line"/>
      <point x="652.2222222222222" y="901.0" type="line"/>
      <point x="652.2222222222222" y="1006.5555555555555" type="line"/>
      <point x="305.2962962962963" y="1006.5555555555555" type="line"/>
      <point x="480.85185185185185" y="1185.283950617284"/>
      <point x="610.0987654320987" y="1311.8765432098764"/>
      <point x="610.0987654320987" y="1467.1234567901236" type="curve" smooth="yes"/>
      <point x="610.0987654320987" y="1634.8271604938273"/>
      <point x="504.4567901234568" y="1724.0"/>
      <point x="347.641975308642" y="1724.0" type="curve" smooth="yes"/>
      <point x="240.53086419753086" y="1724.0"/>
      <point x="143.2962962962963" y="1660.1728395061727"/>
      <point x="84.24691358024691" y="1569.8271604938273" type="curve"/>
      <point x="158.0493827160494" y="1502.4938271604938" type="line"/>
      <point x="203.0493827160494" y="1568.5555555555557"/>
      <point x="263.17283950617286" y="1620.679012345679"/>
      <point x="332.2962962962963" y="1620.679012345679" type="curve" smooth="yes"/>
      <point x="428.24691358024694" y="1620.679012345679"/>
      <point x="488.9012345679012" y="1555.0246913580247"/>
      <point x="488.9012345679012" y="1448.7777777777778" type="curve" smooth="yes"/>
      <point x="488.9012345679012" y="1325.8271604938273"/>
      <point x="359.55555555555554" y="1200.358024691358"/>
      <point x="107.88888888888889" y="973.0987654320987" type="curve"/>
    </contour>
  </outline>
</glyph>
<glyph name="three.sups" format="2">
  <advance width="749.8148148148148"/>
  <unicode hex="00B3"/>
  <outline>
    <contour>
      <point x="181.22222222222223" y="1528.1975308641975" type="line"/>
      <point x="227.0493827160494" y="1584.5555555555557"/>
      <point x="286.7037037037037" y="1625.851851851852"/>
      <point x="346.5308641975309" y="1625.851851851852" type="curve" smooth="yes"/>
      <point x="437.5432098765432" y="1625.851851851852"/>
      <point x="496.1975308641975" y="1573.432098765432"/>
      <point x="496.1975308641975" y="1495.4814814814815" type="curve" smooth="yes"/>
      <point x="496.1975308641975" y="1411.8271604938273"/>
      <point x="414.5432098765432" y="1347.283950617284"/>
      <point x="273.17283950617286" y="1347.283950617284" type="curve"/>
      <point x="273.17283950617286" y="1267.9506172839506" type="line"/>
      <point x="432.18518518518516" y="1267.9506172839506"/>
      <point x="526.7283950617284" y="1217.0617283950617"/>
      <point x="526.7283950617284" y="1122.3456790123457" type="curve" smooth="yes"/>
      <point x="526.7283950617284" y="1027.8024691358025"/>
      <point x="452.01234567901236" y="975.1481481481482"/>
      <point x="362.2962962962963" y="975.1481481481482" type="curve" smooth="yes"/>
      <point x="277.87654320987656" y="975.1481481481482"/>
      <point x="205.45679012345678" y="1021.2716049382716"/>
      <point x="156.45679012345678" y="1096.0987654320988" type="curve"/>
      <point x="73.65432098765432" y="1031.7037037037037" type="line"/>
      <point x="133.82716049382717" y="942.8271604938271"/>
      <point x="239.46913580246914" y="877.0"/>
      <point x="367.87654320987656" y="877.0" type="curve" smooth="yes"/>
      <point x="522.0493827160494" y="877.0"/>
      <point x="649.395061728395" y="968.1728395061729"/>
      <point x="649.395061728395" y="1115.1728395061727" type="curve" smooth="yes"/>
      <point x="649.395061728395" y="1223.2962962962963"/>
      <point x="566.7407407407408" y="1290.2962962962963"/>
      <point x="475.14814814814815" y="1312.7037037037037" type="curve"/>
      <point x="557.9753086419753" y="1351.1728395061727"/>
      <point x="617.8641975308642" y="1414.469135802469"/>
      <point x="617.8641975308642" y="1509.8271604938273" type="curve" smooth="yes"/>
      <point x="617.8641975308642" y="1645.2962962962963"/>
      <point x="501.75308641975306" y="1724.0"/>
      <point x="364.58024691358025" y="1724.0" type="curve" smooth="yes"/>
      <point x="255.46913580246914" y="1724.0"/>
      <point x="173.46913580246914" y="1672.1728395061727"/>
      <point x="106.41975308641976" y="1593.2962962962963" type="curve"/>
    </contour>
  </outline>
</glyph>
<glyph name="acute" format="2">
  <advance width="1107.7530864197531"/>
  <unicode hex="00B4"/>
  <anchor x="492.71604938271605" y="991.3580246913581" name="_top"/>
  <outline>
    <contour>
      <point x="409.87654320987656" y="1173.469135802469" type="line"/>
      <point x="530.2469135802469" y="1173.469135802469" type="line"/>
      <point x="759.2962962962963" y="1460.0493827160494" type="line"/>
      <point x="594.641975308642" y="1460.0493827160494" type="line"/>
    </contour>
  </outline>
</glyph>
<glyph name="paragraph" format="2">
  <advance width="1131.9876543209878"/>
  <unicode hex="00B6"/>
  <outline>
    <contour>
      <point x="648.0493827160494" y="469.08641975308643" type="line"/>
      <point x="648.0493827160494" y="1344.5925925925926" type="line"/>
      <point x="575.283950617284" y="1344.5925925925926" type="line"/>
      <point x="293.04938271604937" y="1344.5925925925926"/>
      <point x="84.29629629629629" y="1229.2962962962963"/>
      <point x="84.29629629629629" y="909.7777777777778" type="curve" smooth="yes"/>
      <point x="84.29629629629629" y="601.074074074074"/>
      <point x="301.87654320987656" y="469.08641975308643"/>
      <point x="599.1728395061729" y="469.08641975308643" type="curve"/>
    </contour>
    <contour>
      <point x="775.7530864197531" y="-164.0" type="line"/>
      <point x="934.9876543209876" y="-164.0" type="line"/>
      <point x="934.9876543209876" y="1344.5925925925926" type="line"/>
      <point x="775.7530864197531" y="1344.5925925925926" type="line"/>
    </contour>
  </outline>
</glyph>
<glyph name="cedilla" format="2">
  <advance width="1107.7530864197531"/>
  <unicode hex="00B8"/>
  <outline>
    <contour>
      <point x="414.77777777777777" y="-434.34567901234567" type="line"/>
      <point x="564.641975308642" y="-420.04938271604937"/>
      <point x="703.8641975308642" y="-365.1111111111111"/>
      <point x="703.8641975308642" y="-248.82716049382717" type="curve" smooth="yes"/>
      <point x="703.8641975308642" y="-164.82716049382717"/>
      <point x="649.0987654320987" y="-126.12345679012346"/>
      <point x="582.0987654320987" y="-103.88888888888889" type="curve"/>
      <point x="636.2222222222222" y="5.469135802469136" type="line"/>
      <point x="531.8395061728395" y="5.469135802469136" type="line"/>
      <point x="449.8395061728395" y="-153.46913580246914" type="line"/>
      <point x="532.7777777777778" y="-173.7037037037037"/>
      <point x="582.1975308641976" y="-200.7037037037037"/>
      <point x="582.1975308641976" y="-254.35802469135803" type="curve" smooth="yes"/>
      <point x="582.1975308641976" y="-310.12345679012344"/>
      <point x="505.9012345679012" y="-339.65432098765433"/>
      <point x="398.0740740740741" y="-353.95061728395063" type="curve"/>
    </contour>
  </outline>
</glyph>
<glyph name="one.sups" format="2">
  <advance width="749.8148148148148"/>
  <unicode hex="00B9"/>
  <outline>
    <contour>
      <point x="353.12345679012344" y="901.0" type="line"/>
      <point x="476.25925925925924" y="901.0" type="line"/>
      <point x="476.25925925925924" y="1700.0" type="line"/>
      <point x="376.17283950617286" y="1700.0" type="line"/>
      <point x="322.2962962962963" y="1659.2962962962963"/>
      <point x="268.5308641975309" y="1634.2962962962963"/>
      <point x="180.71604938271605" y="1618.2962962962963" type="curve"/>
      <point x="180.71604938271605" y="1537.79012345679" type="line"/>
      <point x="353.12345679012344" y="1537.79012345679" type="line"/>
    </contour>
  </outline>
</glyph>
<glyph name="ordmasculine" format="2">
  <advance width="745.5802469135803"/>
  <unicode hex="00BA"/>
  <outline>
    <contour>
      <point x="372.17283950617286" y="516.0" type="curve" smooth="yes"/>
      <point x="539.1111111111111" y="516.0"/>
      <point x="681.2222222222222" y="644.4691358024692"/>
      <point x="681.2222222222222" y="860.9382716049382" type="curve" smooth="yes"/>
      <point x="681.2222222222222" y="1080.4074074074074"/>
      <point x="539.1111111111111" y="1207.111111111111"/>
      <point x="372.17283950617286" y="1207.111111111111" type="curve" smooth="yes"/>
      <point x="202.7037037037037" y="1207.111111111111"/>
      <point x="62.123456790123456" y="1080.4074074074074"/>
      <point x="62.123456790123456" y="860.9382716049382" type="curve" smooth="yes"/>
      <point x="62.123456790123456" y="644.4691358024692"/>
      <point x="202.7037037037037" y="516.0"/>
    </contour>
    <contour>
      <point x="372.17283950617286" y="615.1481481481482" type="curve" smooth="yes"/>
      <point x="256.0987654320988" y="615.1481481481482"/>
      <point x="183.02469135802468" y="715.6296296296297"/>
      <point x="183.02469135802468" y="860.9382716049382" type="curve" smooth="yes"/>
      <point x="183.02469135802468" y="1010.2469135802469"/>
      <point x="256.0987654320988" y="1108.7283950617284"/>
      <point x="372.17283950617286" y="1108.7283950617284" type="curve" smooth="yes"/>
      <point x="486.71604938271605" y="1108.7283950617284"/>
      <point x="558.7901234567901" y="1010.2469135802469"/>
      <point x="558.7901234567901" y="860.9382716049382" type="curve" smooth="yes"/>
      <point x="558.7901234567901" y="715.6296296296297"/>
      <point x="486.71604938271605" y="615.1481481481482"/>
    </contour>
  </outline>
</glyph>
<glyph name="AE" format="2">
  <advance width="1667.9753086419753"/>
  <unicode hex="00C6"/>
  <anchor x="833.9876543209876" y="1344.5925925925926" name="top"/>
  <outline>
    <contour>
      <point x="15.901234567901236" y="0.0" type="line"/>
      <point x="179.30864197530863" y="0.0" type="line"/>
      <point x="388.69135802469134" y="400.0987654320988" type="line"/>
      <point x="819.7777777777778" y="400.0987654320988" type="line"/>
      <point x="819.7777777777778" y="0.0" type="line"/>
      <point x="1575.0987654320988" y="0.0" type="line"/>
      <point x="1575.0987654320988" y="134.9506172839506" type="line"/>
      <point x="978.0123456790124" y="134.9506172839506" type="line"/>
      <point x="978.0123456790124" y="640.4444444444445" type="line"/>
      <point x="1458.4444444444443" y="640.4444444444445" type="line"/>
      <point x="1458.4444444444443" y="774.925925925926" type="line"/>
      <point x="978.0123456790124" y="774.925925925926" type="line"/>
      <point x="978.0123456790124" y="1210.8765432098764" type="line"/>
      <point x="1555.0987654320988" y="1210.8765432098764" type="line"/>
      <point x="1555.0987654320988" y="1344.5925925925926" type="line"/>
      <point x="727.5802469135803" y="1344.5925925925926" type="line"/>
    </contour>
    <contour>
      <point x="455.32098765432096" y="527.4074074074074" type="line"/>
      <point x="583.6913580246913" y="773.9012345679013" type="line"/>
      <point x="658.641975308642" y="921.9135802469136"/>
      <point x="737.358024691358" y="1072.0987654320988"/>
      <point x="811.7777777777778" y="1218.2222222222222" type="curve"/>
      <point x="819.7777777777778" y="1218.2222222222222" type="line"/>
      <point x="819.7777777777778" y="527.4074074074074" type="line"/>
    </contour>
  </outline>
</glyph>
<glyph name="Eth" format="2">
  <advance width="1287.7407407407406"/>
  <unicode hex="00D0"/>
  <anchor x="622.9876543209876" y="-276.5432098765432" name="btm"/>
  <anchor x="622.9876543209876" y="1404.6913580246915" name="top"/>
  <outline>
    <contour>
      <point x="220.12345679012347" y="0.0" type="line"/>
      <point x="559.395061728395" y="0.0" type="line"/>
      <point x="966.283950617284" y="0.0"/>
      <point x="1184.148148148148" y="253.07407407407408"/>
      <point x="1184.148148148148" y="678.2962962962963" type="curve" smooth="yes"/>
      <point x="1184.148148148148" y="1101.2222222222222"/>
      <point x="966.283950617284" y="1344.5925925925926"/>
      <point x="552.2222222222222" y="1344.5925925925926" type="curve" smooth="yes"/>
      <point x="220.12345679012347" y="1344.5925925925926" type="line"/>
      <point x="220.12345679012347" y="753.1728395061729" type="line"/>
      <point x="62.592592592592595" y="744.9382716049382" type="line"/>
      <point x="62.592592592592595" y="660.1358024691358" type="line"/>
      <point x="220.12345679012347" y="660.1358024691358" type="line"/>
    </contour>
    <contour>
      <point x="378.8888888888889" y="130.01234567901236" type="line"/>
      <point x="378.8888888888889" y="660.1358024691358" type="line"/>
      <point x="693.6172839506173" y="660.1358024691358" type="line"/>
      <point x="693.6172839506173" y="753.1728395061729" type="line"/>
      <point x="378.8888888888889" y="753.1728395061729" type="line"/>
      <point x="378.8888888888889" y="1214.5802469135801" type="line"/>
      <point x="540.283950617284" y="1214.5802469135801" type="line"/>
      <point x="862.3827160493827" y="1214.5802469135801"/>
      <point x="1020.679012345679" y="1018.4814814814815"/>
      <point x="1020.679012345679" y="678.2962962962963" type="curve" smooth="yes"/>
      <point x="1020.679012345679" y="336.34567901234567"/>
      <point x="862.3827160493827" y="130.01234567901236"/>
      <point x="540.283950617284" y="130.01234567901236" type="curve" smooth="yes"/>
    </contour>
  </outline>
</glyph>
<glyph name="multiply" format="2">
  <advance width="1012.1481481481482"/>
  <unicode hex="00D7"/>
  <outline>
    <contour>
      <point x="187.20987654320987" y="260.77777777777777" type="line"/>
      <point x="505.9259259259259" y="591.0864197530864" type="line"/>
      <point x="824.1728395061729" y="260.77777777777777" type="line"/>
      <point x="908.0864197530864" y="347.4567901234568" type="line"/>
      <point x="589.604938271605" y="675.7654320987655" type="line"/>
      <point x="908.0864197530864" y="1002.5432098765432" type="line"/>
      <point x="824.1728395061729" y="1089.2222222222222" type="line"/>
      <point x="505.9259259259259" y="759.9135802469136" type="line"/>
      <point x="187.20987654320987" y="1089.2222222222222" type="line"/>
      <point x="102.29629629629629" y="1002.5432098765432" type="line"/>
      <point x="422.5432098765432" y="675.7654320987655" type="line"/>
      <point x="102.29629629629629" y="347.4567901234568" type="line"/>
    </contour>
  </outline>
</glyph>
